solid OpenSCAD_Model
  facet normal 1 -0 0
    outer loop
      vertex 104.25 5 19
      vertex 104.25 99.25 0
      vertex 104.25 99.25 19
    endloop
  endfacet
  facet normal 1 0 0
    outer loop
      vertex 104.25 99.25 0
      vertex 104.25 5 19
      vertex 104.25 5 0
    endloop
  endfacet
  facet normal 0.998027 -0.062794 0
    outer loop
      vertex 104.211 4.37333 19
      vertex 104.25 5 0
      vertex 104.25 5 19
    endloop
  endfacet
  facet normal 0.998027 -0.062794 0
    outer loop
      vertex 104.25 5 0
      vertex 104.211 4.37333 19
      vertex 104.211 4.37333 0
    endloop
  endfacet
  facet normal -1 0 0
    outer loop
      vertex 0 5 0
      vertex 0 99.25 19
      vertex 0 99.25 0
    endloop
  endfacet
  facet normal -1 -0 0
    outer loop
      vertex 0 99.25 19
      vertex 0 5 0
      vertex 0 5 19
    endloop
  endfacet
  facet normal 0.125333 -0.992115 0
    outer loop
      vertex 99.5639 0.00986671 0
      vertex 100.187 0.0885639 19
      vertex 99.5639 0.00986671 19
    endloop
  endfacet
  facet normal 0.125333 -0.992115 0
    outer loop
      vertex 100.187 0.0885639 19
      vertex 99.5639 0.00986671 0
      vertex 100.187 0.0885639 0
    endloop
  endfacet
  facet normal 0 0 1
    outer loop
      vertex 101.899 99.0906 19
      vertex 104.25 99.25 19
      vertex 104.211 99.8767 19
    endloop
  endfacet
  facet normal 0 0 1
    outer loop
      vertex 104.25 99.25 19
      vertex 102.25 97.25 19
      vertex 104.25 5 19
    endloop
  endfacet
  facet normal 0 0 1
    outer loop
      vertex 101.632 99.6588 19
      vertex 104.211 99.8767 19
      vertex 104.093 100.493 19
    endloop
  endfacet
  facet normal -0 0 1
    outer loop
      vertex 102.25 7 19
      vertex 104.25 5 19
      vertex 102.25 97.25 19
    endloop
  endfacet
  facet normal 0 0 1
    outer loop
      vertex 101.632 99.6588 19
      vertex 104.093 100.493 19
      vertex 103.899 101.091 19
    endloop
  endfacet
  facet normal -0 0 1
    outer loop
      vertex 102.211 6.37333 19
      vertex 104.25 5 19
      vertex 102.25 7 19
    endloop
  endfacet
  facet normal 0 0 1
    outer loop
      vertex 101.295 100.189 19
      vertex 103.899 101.091 19
      vertex 103.632 101.659 19
    endloop
  endfacet
  facet normal -0 0 1
    outer loop
      vertex 102.093 5.75655 19
      vertex 104.25 5 19
      vertex 102.211 6.37333 19
    endloop
  endfacet
  facet normal 0 0 1
    outer loop
      vertex 101.295 100.189 19
      vertex 103.632 101.659 19
      vertex 103.295 102.189 19
    endloop
  endfacet
  facet normal -0 0 1
    outer loop
      vertex 101.899 5.15938 19
      vertex 104.25 5 19
      vertex 102.093 5.75655 19
    endloop
  endfacet
  facet normal 0 0 1
    outer loop
      vertex 100.895 100.673 19
      vertex 103.295 102.189 19
      vertex 102.895 102.673 19
    endloop
  endfacet
  facet normal 0 0 1
    outer loop
      vertex 104.25 5 19
      vertex 101.899 5.15938 19
      vertex 104.211 4.37333 19
    endloop
  endfacet
  facet normal 0 0 1
    outer loop
      vertex 100.895 100.673 19
      vertex 102.895 102.673 19
      vertex 102.437 103.103 19
    endloop
  endfacet
  facet normal -0 0 1
    outer loop
      vertex 101.632 4.59123 19
      vertex 104.211 4.37333 19
      vertex 101.899 5.15938 19
    endloop
  endfacet
  facet normal 0 0 1
    outer loop
      vertex 104.211 4.37333 19
      vertex 101.632 4.59123 19
      vertex 104.093 3.75655 19
    endloop
  endfacet
  facet normal 0 0 1
    outer loop
      vertex 104.25 99.25 19
      vertex 102.211 97.8767 19
      vertex 102.25 97.25 19
    endloop
  endfacet
  facet normal 0 0 1
    outer loop
      vertex 104.25 99.25 19
      vertex 102.093 98.4934 19
      vertex 102.211 97.8767 19
    endloop
  endfacet
  facet normal 0 0 1
    outer loop
      vertex 100.437 101.103 19
      vertex 102.437 103.103 19
      vertex 101.929 103.472 19
    endloop
  endfacet
  facet normal 0 0 1
    outer loop
      vertex 104.25 99.25 19
      vertex 101.899 99.0906 19
      vertex 102.093 98.4934 19
    endloop
  endfacet
  facet normal 0 0 1
    outer loop
      vertex 104.211 99.8767 19
      vertex 101.632 99.6588 19
      vertex 101.899 99.0906 19
    endloop
  endfacet
  facet normal 0 0 1
    outer loop
      vertex 100.437 101.103 19
      vertex 101.929 103.472 19
      vertex 101.379 103.774 19
    endloop
  endfacet
  facet normal 0 0 1
    outer loop
      vertex 103.899 101.091 19
      vertex 101.295 100.189 19
      vertex 101.632 99.6588 19
    endloop
  endfacet
  facet normal 0 0 1
    outer loop
      vertex 103.295 102.189 19
      vertex 100.895 100.673 19
      vertex 101.295 100.189 19
    endloop
  endfacet
  facet normal 0 0 1
    outer loop
      vertex 99.9291 101.472 19
      vertex 101.379 103.774 19
      vertex 100.795 104.005 19
    endloop
  endfacet
  facet normal 0 0 1
    outer loop
      vertex 102.437 103.103 19
      vertex 100.437 101.103 19
      vertex 100.895 100.673 19
    endloop
  endfacet
  facet normal 0 0 1
    outer loop
      vertex 99.3789 101.774 19
      vertex 100.795 104.005 19
      vertex 100.187 104.161 19
    endloop
  endfacet
  facet normal 0 0 1
    outer loop
      vertex 101.379 103.774 19
      vertex 99.9291 101.472 19
      vertex 100.437 101.103 19
    endloop
  endfacet
  facet normal 0 0 1
    outer loop
      vertex 99.3789 101.774 19
      vertex 100.187 104.161 19
      vertex 99.5639 104.24 19
    endloop
  endfacet
  facet normal 0 0 1
    outer loop
      vertex 100.795 104.005 19
      vertex 99.3789 101.774 19
      vertex 99.9291 101.472 19
    endloop
  endfacet
  facet normal 0 0 1
    outer loop
      vertex 99.5639 104.24 19
      vertex 98.7951 102.005 19
      vertex 99.3789 101.774 19
    endloop
  endfacet
  facet normal 0 0 1
    outer loop
      vertex 99.5639 104.24 19
      vertex 98.1869 102.161 19
      vertex 98.7951 102.005 19
    endloop
  endfacet
  facet normal 0 0 1
    outer loop
      vertex 99.5639 104.24 19
      vertex 97.5639 102.24 19
      vertex 98.1869 102.161 19
    endloop
  endfacet
  facet normal 0 0 1
    outer loop
      vertex 99.5639 104.24 19
      vertex 6.68605 102.24 19
      vertex 97.5639 102.24 19
    endloop
  endfacet
  facet normal -0 0 1
    outer loop
      vertex 4.68605 104.24 19
      vertex 6.68605 102.24 19
      vertex 99.5639 104.24 19
    endloop
  endfacet
  facet normal 0 0 1
    outer loop
      vertex 4.68605 104.24 19
      vertex 6.06309 102.161 19
      vertex 6.68605 102.24 19
    endloop
  endfacet
  facet normal 0 0 1
    outer loop
      vertex 4.68605 104.24 19
      vertex 5.45492 102.005 19
      vertex 6.06309 102.161 19
    endloop
  endfacet
  facet normal 0 0 1
    outer loop
      vertex 4.68605 104.24 19
      vertex 4.8711 101.774 19
      vertex 5.45492 102.005 19
    endloop
  endfacet
  facet normal -0 0 1
    outer loop
      vertex 4.06309 104.161 19
      vertex 4.8711 101.774 19
      vertex 4.68605 104.24 19
    endloop
  endfacet
  facet normal -0 0 1
    outer loop
      vertex 3.45492 104.005 19
      vertex 4.8711 101.774 19
      vertex 4.06309 104.161 19
    endloop
  endfacet
  facet normal 0 0 1
    outer loop
      vertex 4.8711 101.774 19
      vertex 3.45492 104.005 19
      vertex 4.32087 101.472 19
    endloop
  endfacet
  facet normal -0 0 1
    outer loop
      vertex 2.8711 103.774 19
      vertex 4.32087 101.472 19
      vertex 3.45492 104.005 19
    endloop
  endfacet
  facet normal 0 0 1
    outer loop
      vertex 4.32087 101.472 19
      vertex 2.8711 103.774 19
      vertex 3.81288 101.103 19
    endloop
  endfacet
  facet normal -0 0 1
    outer loop
      vertex 2.32087 103.472 19
      vertex 3.81288 101.103 19
      vertex 2.8711 103.774 19
    endloop
  endfacet
  facet normal -0 0 1
    outer loop
      vertex 1.81288 103.103 19
      vertex 3.81288 101.103 19
      vertex 2.32087 103.472 19
    endloop
  endfacet
  facet normal 0 0 1
    outer loop
      vertex 3.81288 101.103 19
      vertex 1.81288 103.103 19
      vertex 3.35516 100.673 19
    endloop
  endfacet
  facet normal -0 0 1
    outer loop
      vertex 1.35516 102.673 19
      vertex 3.35516 100.673 19
      vertex 1.81288 103.103 19
    endloop
  endfacet
  facet normal -0 0 1
    outer loop
      vertex 0.954915 102.189 19
      vertex 3.35516 100.673 19
      vertex 1.35516 102.673 19
    endloop
  endfacet
  facet normal 0 0 1
    outer loop
      vertex 3.35516 100.673 19
      vertex 0.954915 102.189 19
      vertex 2.95492 100.189 19
    endloop
  endfacet
  facet normal -0 0 1
    outer loop
      vertex 0.618467 101.659 19
      vertex 2.95492 100.189 19
      vertex 0.954915 102.189 19
    endloop
  endfacet
  facet normal -0 0 1
    outer loop
      vertex 0.351118 101.091 19
      vertex 2.95492 100.189 19
      vertex 0.618467 101.659 19
    endloop
  endfacet
  facet normal -0 0 1
    outer loop
      vertex 0.157084 100.493 19
      vertex 2.61847 99.6588 19
      vertex 0.351118 101.091 19
    endloop
  endfacet
  facet normal 0 0 1
    outer loop
      vertex 2.95492 100.189 19
      vertex 0.351118 101.091 19
      vertex 2.61847 99.6588 19
    endloop
  endfacet
  facet normal 0 0 1
    outer loop
      vertex 104.093 3.75655 19
      vertex 101.632 4.59123 19
      vertex 103.899 3.15938 19
    endloop
  endfacet
  facet normal -0 0 1
    outer loop
      vertex 101.295 4.06107 19
      vertex 103.899 3.15938 19
      vertex 101.632 4.59123 19
    endloop
  endfacet
  facet normal 0 0 1
    outer loop
      vertex 103.899 3.15938 19
      vertex 101.295 4.06107 19
      vertex 103.632 2.59123 19
    endloop
  endfacet
  facet normal 0 0 1
    outer loop
      vertex 103.632 2.59123 19
      vertex 101.295 4.06107 19
      vertex 103.295 2.06107 19
    endloop
  endfacet
  facet normal -0 0 1
    outer loop
      vertex 100.895 3.57726 19
      vertex 103.295 2.06107 19
      vertex 101.295 4.06107 19
    endloop
  endfacet
  facet normal 0 0 1
    outer loop
      vertex 103.295 2.06107 19
      vertex 100.895 3.57726 19
      vertex 102.895 1.57726 19
    endloop
  endfacet
  facet normal 0 0 1
    outer loop
      vertex 102.895 1.57726 19
      vertex 100.895 3.57726 19
      vertex 102.437 1.14743 19
    endloop
  endfacet
  facet normal -0 0 1
    outer loop
      vertex 100.437 3.14743 19
      vertex 102.437 1.14743 19
      vertex 100.895 3.57726 19
    endloop
  endfacet
  facet normal 0 0 1
    outer loop
      vertex 102.437 1.14743 19
      vertex 100.437 3.14743 19
      vertex 101.929 0.778361 19
    endloop
  endfacet
  facet normal 0 0 1
    outer loop
      vertex 101.929 0.778361 19
      vertex 100.437 3.14743 19
      vertex 101.379 0.475865 19
    endloop
  endfacet
  facet normal -0 0 1
    outer loop
      vertex 99.9291 2.77836 19
      vertex 101.379 0.475865 19
      vertex 100.437 3.14743 19
    endloop
  endfacet
  facet normal 0 0 1
    outer loop
      vertex 101.379 0.475865 19
      vertex 99.9291 2.77836 19
      vertex 100.795 0.244718 19
    endloop
  endfacet
  facet normal -0 0 1
    outer loop
      vertex 99.3789 2.47587 19
      vertex 100.795 0.244718 19
      vertex 99.9291 2.77836 19
    endloop
  endfacet
  facet normal 0 0 1
    outer loop
      vertex 100.795 0.244718 19
      vertex 99.3789 2.47587 19
      vertex 100.187 0.0885639 19
    endloop
  endfacet
  facet normal 0 0 1
    outer loop
      vertex 100.187 0.0885639 19
      vertex 99.3789 2.47587 19
      vertex 99.5639 0.00986671 19
    endloop
  endfacet
  facet normal -0 0 1
    outer loop
      vertex 98.7951 2.24472 19
      vertex 99.5639 0.00986671 19
      vertex 99.3789 2.47587 19
    endloop
  endfacet
  facet normal -0 0 1
    outer loop
      vertex 98.1869 2.08856 19
      vertex 99.5639 0.00986671 19
      vertex 98.7951 2.24472 19
    endloop
  endfacet
  facet normal -0 0 1
    outer loop
      vertex 97.5639 2.00987 19
      vertex 99.5639 0.00986671 19
      vertex 98.1869 2.08856 19
    endloop
  endfacet
  facet normal 0 0 1
    outer loop
      vertex 95.625 0.00986671 19
      vertex 97.5639 2.00987 19
      vertex 95.625 2.00987 19
    endloop
  endfacet
  facet normal 0 0 1
    outer loop
      vertex 97.5639 2.00987 19
      vertex 95.625 0.00986671 19
      vertex 99.5639 0.00986671 19
    endloop
  endfacet
  facet normal -0 0 1
    outer loop
      vertex 6.68605 2.00987 19
      vertex 8.625 0.00986671 19
      vertex 8.625 2.00987 19
    endloop
  endfacet
  facet normal 0 0 1
    outer loop
      vertex 4.68605 0.00986671 19
      vertex 6.68605 2.00987 19
      vertex 6.06309 2.08856 19
    endloop
  endfacet
  facet normal 0 0 1
    outer loop
      vertex 4.68605 0.00986671 19
      vertex 6.06309 2.08856 19
      vertex 5.45492 2.24472 19
    endloop
  endfacet
  facet normal 0 0 1
    outer loop
      vertex 4.68605 0.00986671 19
      vertex 5.45492 2.24472 19
      vertex 4.8711 2.47587 19
    endloop
  endfacet
  facet normal 0 0 1
    outer loop
      vertex 6.68605 2.00987 19
      vertex 4.68605 0.00986671 19
      vertex 8.625 0.00986671 19
    endloop
  endfacet
  facet normal 0 0 1
    outer loop
      vertex 3.45492 0.244718 19
      vertex 4.8711 2.47587 19
      vertex 4.32087 2.77836 19
    endloop
  endfacet
  facet normal 0 0 1
    outer loop
      vertex 4.8711 2.47587 19
      vertex 4.06309 0.0885639 19
      vertex 4.68605 0.00986671 19
    endloop
  endfacet
  facet normal 0 0 1
    outer loop
      vertex 2.8711 0.475865 19
      vertex 4.32087 2.77836 19
      vertex 3.81288 3.14743 19
    endloop
  endfacet
  facet normal 0 0 1
    outer loop
      vertex 4.8711 2.47587 19
      vertex 3.45492 0.244718 19
      vertex 4.06309 0.0885639 19
    endloop
  endfacet
  facet normal 0 0 1
    outer loop
      vertex 1.81288 1.14743 19
      vertex 3.81288 3.14743 19
      vertex 3.35516 3.57726 19
    endloop
  endfacet
  facet normal 0 0 1
    outer loop
      vertex 0.954915 2.06107 19
      vertex 3.35516 3.57726 19
      vertex 2.95492 4.06107 19
    endloop
  endfacet
  facet normal 0 0 1
    outer loop
      vertex 4.32087 2.77836 19
      vertex 2.8711 0.475865 19
      vertex 3.45492 0.244718 19
    endloop
  endfacet
  facet normal 0 0 1
    outer loop
      vertex 0.351118 3.15938 19
      vertex 2.95492 4.06107 19
      vertex 2.61847 4.59123 19
    endloop
  endfacet
  facet normal 0 0 1
    outer loop
      vertex 0.0394268 4.37333 19
      vertex 2.61847 4.59123 19
      vertex 2.35112 5.15938 19
    endloop
  endfacet
  facet normal 0 0 1
    outer loop
      vertex 3.81288 3.14743 19
      vertex 2.32087 0.778361 19
      vertex 2.8711 0.475865 19
    endloop
  endfacet
  facet normal 0 0 1
    outer loop
      vertex 0 5 19
      vertex 2.35112 5.15938 19
      vertex 2.15708 5.75655 19
    endloop
  endfacet
  facet normal 0 0 1
    outer loop
      vertex 0 5 19
      vertex 2.15708 5.75655 19
      vertex 2.03943 6.37333 19
    endloop
  endfacet
  facet normal 0 0 1
    outer loop
      vertex 0 5 19
      vertex 2.03943 6.37333 19
      vertex 2 7 19
    endloop
  endfacet
  facet normal 0 0 1
    outer loop
      vertex 3.81288 3.14743 19
      vertex 1.81288 1.14743 19
      vertex 2.32087 0.778361 19
    endloop
  endfacet
  facet normal 0 0 1
    outer loop
      vertex 2 97.25 19
      vertex 0 99.25 19
      vertex 2 7 19
    endloop
  endfacet
  facet normal -0 0 1
    outer loop
      vertex 0.0394268 99.8767 19
      vertex 2.61847 99.6588 19
      vertex 0.157084 100.493 19
    endloop
  endfacet
  facet normal 0 0 1
    outer loop
      vertex 0 5 19
      vertex 2 7 19
      vertex 0 99.25 19
    endloop
  endfacet
  facet normal 0 0 1
    outer loop
      vertex 2.61847 99.6588 19
      vertex 0.0394268 99.8767 19
      vertex 2.35112 99.0906 19
    endloop
  endfacet
  facet normal 0 0 1
    outer loop
      vertex 2.35112 5.15938 19
      vertex 0 5 19
      vertex 0.0394268 4.37333 19
    endloop
  endfacet
  facet normal -0 0 1
    outer loop
      vertex 0 99.25 19
      vertex 2.35112 99.0906 19
      vertex 0.0394268 99.8767 19
    endloop
  endfacet
  facet normal 0 0 1
    outer loop
      vertex 3.35516 3.57726 19
      vertex 1.35516 1.57726 19
      vertex 1.81288 1.14743 19
    endloop
  endfacet
  facet normal 0 0 1
    outer loop
      vertex 2.35112 99.0906 19
      vertex 0 99.25 19
      vertex 2.15708 98.4934 19
    endloop
  endfacet
  facet normal 0 0 1
    outer loop
      vertex 3.35516 3.57726 19
      vertex 0.954915 2.06107 19
      vertex 1.35516 1.57726 19
    endloop
  endfacet
  facet normal 0 0 1
    outer loop
      vertex 2.15708 98.4934 19
      vertex 0 99.25 19
      vertex 2.03943 97.8767 19
    endloop
  endfacet
  facet normal 0 0 1
    outer loop
      vertex 2.95492 4.06107 19
      vertex 0.618467 2.59123 19
      vertex 0.954915 2.06107 19
    endloop
  endfacet
  facet normal 0 0 1
    outer loop
      vertex 2.03943 97.8767 19
      vertex 0 99.25 19
      vertex 2 97.25 19
    endloop
  endfacet
  facet normal 0 0 1
    outer loop
      vertex 2.95492 4.06107 19
      vertex 0.351118 3.15938 19
      vertex 0.618467 2.59123 19
    endloop
  endfacet
  facet normal 0 0 1
    outer loop
      vertex 2.61847 4.59123 19
      vertex 0.157084 3.75655 19
      vertex 0.351118 3.15938 19
    endloop
  endfacet
  facet normal 0 0 1
    outer loop
      vertex 2.61847 4.59123 19
      vertex 0.0394268 4.37333 19
      vertex 0.157084 3.75655 19
    endloop
  endfacet
  facet normal 0 -1 0
    outer loop
      vertex 95.625 0.00986671 0
      vertex 99.5639 0.00986671 19
      vertex 95.625 0.00986671 19
    endloop
  endfacet
  facet normal 0 -1 -0
    outer loop
      vertex 99.5639 0.00986671 19
      vertex 95.625 0.00986671 0
      vertex 99.5639 0.00986671 0
    endloop
  endfacet
  facet normal 0 -1 0
    outer loop
      vertex 4.68605 0.00986671 0
      vertex 8.625 0.00986671 19
      vertex 4.68605 0.00986671 19
    endloop
  endfacet
  facet normal 0 -1 -0
    outer loop
      vertex 8.625 0.00986671 19
      vertex 4.68605 0.00986671 0
      vertex 8.625 0.00986671 0
    endloop
  endfacet
  facet normal 0.770516 -0.63742 0
    outer loop
      vertex 102.895 1.57726 19
      vertex 103.295 2.06107 0
      vertex 103.295 2.06107 19
    endloop
  endfacet
  facet normal 0.770516 -0.63742 0
    outer loop
      vertex 103.295 2.06107 0
      vertex 102.895 1.57726 19
      vertex 102.895 1.57726 0
    endloop
  endfacet
  facet normal -0.587784 0.809018 0
    outer loop
      vertex 2.32087 103.472 0
      vertex 1.81288 103.103 19
      vertex 2.32087 103.472 19
    endloop
  endfacet
  facet normal -0.587784 0.809018 0
    outer loop
      vertex 1.81288 103.103 19
      vertex 2.32087 103.472 0
      vertex 1.81288 103.103 0
    endloop
  endfacet
  facet normal 0.998026 0.0627943 0
    outer loop
      vertex 104.25 99.25 19
      vertex 104.211 99.8767 0
      vertex 104.211 99.8767 19
    endloop
  endfacet
  facet normal 0.998026 0.0627943 0
    outer loop
      vertex 104.211 99.8767 0
      vertex 104.25 99.25 19
      vertex 104.25 99.25 0
    endloop
  endfacet
  facet normal 0.951054 -0.309024 0
    outer loop
      vertex 103.899 3.15938 19
      vertex 104.093 3.75655 0
      vertex 104.093 3.75655 19
    endloop
  endfacet
  facet normal 0.951054 -0.309024 0
    outer loop
      vertex 104.093 3.75655 0
      vertex 103.899 3.15938 19
      vertex 103.899 3.15938 0
    endloop
  endfacet
  facet normal 0.684545 -0.72897 0
    outer loop
      vertex 102.437 1.14743 0
      vertex 102.895 1.57726 19
      vertex 102.437 1.14743 19
    endloop
  endfacet
  facet normal 0.684545 -0.72897 0
    outer loop
      vertex 102.895 1.57726 19
      vertex 102.437 1.14743 0
      vertex 102.895 1.57726 0
    endloop
  endfacet
  facet normal -0.125333 -0.992115 0
    outer loop
      vertex 4.06309 0.0885639 0
      vertex 4.68605 0.00986671 19
      vertex 4.06309 0.0885639 19
    endloop
  endfacet
  facet normal -0.125333 -0.992115 -0
    outer loop
      vertex 4.68605 0.00986671 19
      vertex 4.06309 0.0885639 0
      vertex 4.68605 0.00986671 0
    endloop
  endfacet
  facet normal 0.982289 -0.187374 0
    outer loop
      vertex 104.093 3.75655 19
      vertex 104.211 4.37333 0
      vertex 104.211 4.37333 19
    endloop
  endfacet
  facet normal 0.982289 -0.187374 0
    outer loop
      vertex 104.211 4.37333 0
      vertex 104.093 3.75655 19
      vertex 104.093 3.75655 0
    endloop
  endfacet
  facet normal -0.998027 0.0627913 0
    outer loop
      vertex 0 99.25 0
      vertex 0.0394268 99.8767 19
      vertex 0.0394268 99.8767 0
    endloop
  endfacet
  facet normal -0.998027 0.0627913 0
    outer loop
      vertex 0.0394268 99.8767 19
      vertex 0 99.25 0
      vertex 0 99.25 19
    endloop
  endfacet
  facet normal -0.904827 0.425779 0
    outer loop
      vertex 0.351118 101.091 0
      vertex 0.618467 101.659 19
      vertex 0.618467 101.659 0
    endloop
  endfacet
  facet normal -0.904827 0.425779 0
    outer loop
      vertex 0.618467 101.659 19
      vertex 0.351118 101.091 0
      vertex 0.351118 101.091 19
    endloop
  endfacet
  facet normal 0 1 -0
    outer loop
      vertex 99.5639 104.24 0
      vertex 4.68605 104.24 19
      vertex 99.5639 104.24 19
    endloop
  endfacet
  facet normal 0 1 0
    outer loop
      vertex 4.68605 104.24 19
      vertex 99.5639 104.24 0
      vertex 4.68605 104.24 0
    endloop
  endfacet
  facet normal 0.951055 0.309023 0
    outer loop
      vertex 104.093 100.493 19
      vertex 103.899 101.091 0
      vertex 103.899 101.091 19
    endloop
  endfacet
  facet normal 0.951055 0.309023 0
    outer loop
      vertex 103.899 101.091 0
      vertex 104.093 100.493 19
      vertex 104.093 100.493 0
    endloop
  endfacet
  facet normal 0.844328 -0.535827 0
    outer loop
      vertex 103.295 2.06107 19
      vertex 103.632 2.59123 0
      vertex 103.632 2.59123 19
    endloop
  endfacet
  facet normal 0.844328 -0.535827 0
    outer loop
      vertex 103.632 2.59123 0
      vertex 103.295 2.06107 19
      vertex 103.295 2.06107 0
    endloop
  endfacet
  facet normal 0.904827 -0.425779 0
    outer loop
      vertex 103.632 2.59123 19
      vertex 103.899 3.15938 0
      vertex 103.899 3.15938 19
    endloop
  endfacet
  facet normal 0.904827 -0.425779 0
    outer loop
      vertex 103.899 3.15938 0
      vertex 103.632 2.59123 19
      vertex 103.632 2.59123 0
    endloop
  endfacet
  facet normal 0.368122 -0.929777 0
    outer loop
      vertex 100.795 0.244718 0
      vertex 101.379 0.475865 19
      vertex 100.795 0.244718 19
    endloop
  endfacet
  facet normal 0.368122 -0.929777 0
    outer loop
      vertex 101.379 0.475865 19
      vertex 100.795 0.244718 0
      vertex 101.379 0.475865 0
    endloop
  endfacet
  facet normal -0.770513 -0.637424 0
    outer loop
      vertex 1.35516 1.57726 0
      vertex 0.954915 2.06107 19
      vertex 0.954915 2.06107 0
    endloop
  endfacet
  facet normal -0.770513 -0.637424 0
    outer loop
      vertex 0.954915 2.06107 19
      vertex 1.35516 1.57726 0
      vertex 1.35516 1.57726 19
    endloop
  endfacet
  facet normal -0.368126 -0.929776 0
    outer loop
      vertex 2.8711 0.475865 0
      vertex 3.45492 0.244718 19
      vertex 2.8711 0.475865 19
    endloop
  endfacet
  facet normal -0.368126 -0.929776 -0
    outer loop
      vertex 3.45492 0.244718 19
      vertex 2.8711 0.475865 0
      vertex 3.45492 0.244718 0
    endloop
  endfacet
  facet normal -0.951057 0.309016 0
    outer loop
      vertex 0.157084 100.493 0
      vertex 0.351118 101.091 19
      vertex 0.351118 101.091 0
    endloop
  endfacet
  facet normal -0.951057 0.309016 0
    outer loop
      vertex 0.351118 101.091 19
      vertex 0.157084 100.493 0
      vertex 0.157084 100.493 19
    endloop
  endfacet
  facet normal -0.770514 0.637423 0
    outer loop
      vertex 0.954915 102.189 0
      vertex 1.35516 102.673 19
      vertex 1.35516 102.673 0
    endloop
  endfacet
  facet normal -0.770514 0.637423 0
    outer loop
      vertex 1.35516 102.673 19
      vertex 0.954915 102.189 0
      vertex 0.954915 102.189 19
    endloop
  endfacet
  facet normal 0.368122 0.929777 -0
    outer loop
      vertex 101.379 103.774 0
      vertex 100.795 104.005 19
      vertex 101.379 103.774 19
    endloop
  endfacet
  facet normal 0.368122 0.929777 0
    outer loop
      vertex 100.795 104.005 19
      vertex 101.379 103.774 0
      vertex 100.795 104.005 0
    endloop
  endfacet
  facet normal -0.248697 0.968581 0
    outer loop
      vertex 4.06309 104.161 0
      vertex 3.45492 104.005 19
      vertex 4.06309 104.161 19
    endloop
  endfacet
  facet normal -0.248697 0.968581 0
    outer loop
      vertex 3.45492 104.005 19
      vertex 4.06309 104.161 0
      vertex 3.45492 104.005 0
    endloop
  endfacet
  facet normal 0.125333 0.992115 -0
    outer loop
      vertex 100.187 104.161 0
      vertex 99.5639 104.24 19
      vertex 100.187 104.161 19
    endloop
  endfacet
  facet normal 0.125333 0.992115 0
    outer loop
      vertex 99.5639 104.24 19
      vertex 100.187 104.161 0
      vertex 99.5639 104.24 0
    endloop
  endfacet
  facet normal -0.125333 0.992115 0
    outer loop
      vertex 4.68605 104.24 0
      vertex 4.06309 104.161 19
      vertex 4.68605 104.24 19
    endloop
  endfacet
  facet normal -0.125333 0.992115 0
    outer loop
      vertex 4.06309 104.161 19
      vertex 4.68605 104.24 0
      vertex 4.06309 104.161 0
    endloop
  endfacet
  facet normal -0.368126 0.929776 0
    outer loop
      vertex 3.45492 104.005 0
      vertex 2.8711 103.774 19
      vertex 3.45492 104.005 19
    endloop
  endfacet
  facet normal -0.368126 0.929776 0
    outer loop
      vertex 2.8711 103.774 19
      vertex 3.45492 104.005 0
      vertex 2.8711 103.774 0
    endloop
  endfacet
  facet normal 0.844328 0.535826 0
    outer loop
      vertex 103.632 101.659 19
      vertex 103.295 102.189 0
      vertex 103.295 102.189 19
    endloop
  endfacet
  facet normal 0.844328 0.535826 0
    outer loop
      vertex 103.295 102.189 0
      vertex 103.632 101.659 19
      vertex 103.632 101.659 0
    endloop
  endfacet
  facet normal 0.24869 -0.968583 0
    outer loop
      vertex 100.187 0.0885639 0
      vertex 100.795 0.244718 19
      vertex 100.187 0.0885639 19
    endloop
  endfacet
  facet normal 0.24869 -0.968583 0
    outer loop
      vertex 100.795 0.244718 19
      vertex 100.187 0.0885639 0
      vertex 100.795 0.244718 0
    endloop
  endfacet
  facet normal 0.587783 -0.809018 0
    outer loop
      vertex 101.929 0.778361 0
      vertex 102.437 1.14743 19
      vertex 101.929 0.778361 19
    endloop
  endfacet
  facet normal 0.587783 -0.809018 0
    outer loop
      vertex 102.437 1.14743 19
      vertex 101.929 0.778361 0
      vertex 102.437 1.14743 0
    endloop
  endfacet
  facet normal 0.481758 -0.876304 0
    outer loop
      vertex 101.379 0.475865 0
      vertex 101.929 0.778361 19
      vertex 101.379 0.475865 19
    endloop
  endfacet
  facet normal 0.481758 -0.876304 0
    outer loop
      vertex 101.929 0.778361 19
      vertex 101.379 0.475865 0
      vertex 101.929 0.778361 0
    endloop
  endfacet
  facet normal -0.951056 -0.309018 0
    outer loop
      vertex 0.351118 3.15938 0
      vertex 0.157084 3.75655 19
      vertex 0.157084 3.75655 0
    endloop
  endfacet
  facet normal -0.951056 -0.309018 0
    outer loop
      vertex 0.157084 3.75655 19
      vertex 0.351118 3.15938 0
      vertex 0.351118 3.15938 19
    endloop
  endfacet
  facet normal 0 0 -1
    outer loop
      vertex 8.625 0.00986671 0
      vertex 4.68605 0.00986671 0
      vertex 8.625 4 0
    endloop
  endfacet
  facet normal 0 0 -1
    outer loop
      vertex 12.625 4 0
      vertex 8.625 4 0
      vertex 12.625 94.25 0
    endloop
  endfacet
  facet normal 0 0 -1
    outer loop
      vertex 95.625 4 0
      vertex 104.25 5 0
      vertex 104.211 4.37333 0
    endloop
  endfacet
  facet normal 0 0 -1
    outer loop
      vertex 104.25 5 0
      vertex 91.625 94.25 0
      vertex 104.25 99.25 0
    endloop
  endfacet
  facet normal 0 0 -1
    outer loop
      vertex 95.625 4 0
      vertex 104.211 4.37333 0
      vertex 104.093 3.75655 0
    endloop
  endfacet
  facet normal 0 -0 -1
    outer loop
      vertex 99.5639 104.24 0
      vertex 104.25 99.25 0
      vertex 91.625 94.25 0
    endloop
  endfacet
  facet normal 0 0 -1
    outer loop
      vertex 95.625 4 0
      vertex 104.093 3.75655 0
      vertex 103.899 3.15938 0
    endloop
  endfacet
  facet normal 0 0 -1
    outer loop
      vertex 104.25 99.25 0
      vertex 99.5639 104.24 0
      vertex 104.211 99.8767 0
    endloop
  endfacet
  facet normal 0 0 -1
    outer loop
      vertex 95.625 4 0
      vertex 103.899 3.15938 0
      vertex 103.632 2.59123 0
    endloop
  endfacet
  facet normal 0 0 -1
    outer loop
      vertex 104.211 99.8767 0
      vertex 99.5639 104.24 0
      vertex 104.093 100.493 0
    endloop
  endfacet
  facet normal 0 0 -1
    outer loop
      vertex 95.625 4 0
      vertex 103.632 2.59123 0
      vertex 103.295 2.06107 0
    endloop
  endfacet
  facet normal 0 0 -1
    outer loop
      vertex 104.093 100.493 0
      vertex 99.5639 104.24 0
      vertex 103.899 101.091 0
    endloop
  endfacet
  facet normal 0 0 -1
    outer loop
      vertex 95.625 4 0
      vertex 103.295 2.06107 0
      vertex 102.895 1.57726 0
    endloop
  endfacet
  facet normal 0 0 -1
    outer loop
      vertex 103.899 101.091 0
      vertex 99.5639 104.24 0
      vertex 103.632 101.659 0
    endloop
  endfacet
  facet normal 0 0 -1
    outer loop
      vertex 95.625 4 0
      vertex 102.895 1.57726 0
      vertex 102.437 1.14743 0
    endloop
  endfacet
  facet normal 0 0 -1
    outer loop
      vertex 103.632 101.659 0
      vertex 99.5639 104.24 0
      vertex 103.295 102.189 0
    endloop
  endfacet
  facet normal 0 0 -1
    outer loop
      vertex 95.625 4 0
      vertex 102.437 1.14743 0
      vertex 101.929 0.778361 0
    endloop
  endfacet
  facet normal 0 0 -1
    outer loop
      vertex 103.295 102.189 0
      vertex 99.5639 104.24 0
      vertex 102.895 102.673 0
    endloop
  endfacet
  facet normal 0 0 -1
    outer loop
      vertex 95.625 4 0
      vertex 101.929 0.778361 0
      vertex 101.379 0.475865 0
    endloop
  endfacet
  facet normal 0 0 -1
    outer loop
      vertex 102.895 102.673 0
      vertex 99.5639 104.24 0
      vertex 102.437 103.103 0
    endloop
  endfacet
  facet normal 0 0 -1
    outer loop
      vertex 95.625 4 0
      vertex 101.379 0.475865 0
      vertex 100.795 0.244718 0
    endloop
  endfacet
  facet normal 0 0 -1
    outer loop
      vertex 102.437 103.103 0
      vertex 99.5639 104.24 0
      vertex 101.929 103.472 0
    endloop
  endfacet
  facet normal 0 0 -1
    outer loop
      vertex 95.625 4 0
      vertex 100.795 0.244718 0
      vertex 100.187 0.0885639 0
    endloop
  endfacet
  facet normal 0 0 -1
    outer loop
      vertex 101.929 103.472 0
      vertex 99.5639 104.24 0
      vertex 101.379 103.774 0
    endloop
  endfacet
  facet normal 0 0 -1
    outer loop
      vertex 95.625 4 0
      vertex 100.187 0.0885639 0
      vertex 99.5639 0.00986671 0
    endloop
  endfacet
  facet normal 0 0 -1
    outer loop
      vertex 101.379 103.774 0
      vertex 99.5639 104.24 0
      vertex 100.795 104.005 0
    endloop
  endfacet
  facet normal 0 0 -1
    outer loop
      vertex 95.625 4 0
      vertex 99.5639 0.00986671 0
      vertex 95.625 0.00986671 0
    endloop
  endfacet
  facet normal -0 0 -1
    outer loop
      vertex 104.25 5 0
      vertex 95.625 4 0
      vertex 91.625 94.25 0
    endloop
  endfacet
  facet normal 0 0 -1
    outer loop
      vertex 91.625 94.25 0
      vertex 95.625 4 0
      vertex 91.625 4 0
    endloop
  endfacet
  facet normal 0 0 -1
    outer loop
      vertex 100.795 104.005 0
      vertex 99.5639 104.24 0
      vertex 100.187 104.161 0
    endloop
  endfacet
  facet normal 0 0 -1
    outer loop
      vertex 12.625 94.25 0
      vertex 99.5639 104.24 0
      vertex 91.625 94.25 0
    endloop
  endfacet
  facet normal 0 0 -1
    outer loop
      vertex 4.06309 0.0885639 0
      vertex 8.625 4 0
      vertex 4.68605 0.00986671 0
    endloop
  endfacet
  facet normal 0 0 -1
    outer loop
      vertex 12.625 94.25 0
      vertex 4.68605 104.24 0
      vertex 99.5639 104.24 0
    endloop
  endfacet
  facet normal 0 0 -1
    outer loop
      vertex 8.625 4 0
      vertex 0 5 0
      vertex 12.625 94.25 0
    endloop
  endfacet
  facet normal 0 0 -1
    outer loop
      vertex 3.45492 0.244718 0
      vertex 8.625 4 0
      vertex 4.06309 0.0885639 0
    endloop
  endfacet
  facet normal 0 0 -1
    outer loop
      vertex 0 99.25 0
      vertex 12.625 94.25 0
      vertex 0 5 0
    endloop
  endfacet
  facet normal 0 0 -1
    outer loop
      vertex 2.8711 0.475865 0
      vertex 8.625 4 0
      vertex 3.45492 0.244718 0
    endloop
  endfacet
  facet normal 0 0 -1
    outer loop
      vertex 12.625 94.25 0
      vertex 0 99.25 0
      vertex 4.68605 104.24 0
    endloop
  endfacet
  facet normal 0 0 -1
    outer loop
      vertex 2.32087 0.778361 0
      vertex 8.625 4 0
      vertex 2.8711 0.475865 0
    endloop
  endfacet
  facet normal 0 0 -1
    outer loop
      vertex 4.68605 104.24 0
      vertex 0 99.25 0
      vertex 4.06309 104.161 0
    endloop
  endfacet
  facet normal 0 0 -1
    outer loop
      vertex 1.81288 1.14743 0
      vertex 8.625 4 0
      vertex 2.32087 0.778361 0
    endloop
  endfacet
  facet normal 0 0 -1
    outer loop
      vertex 4.06309 104.161 0
      vertex 0 99.25 0
      vertex 3.45492 104.005 0
    endloop
  endfacet
  facet normal 0 0 -1
    outer loop
      vertex 1.35516 1.57726 0
      vertex 8.625 4 0
      vertex 1.81288 1.14743 0
    endloop
  endfacet
  facet normal 0 0 -1
    outer loop
      vertex 3.45492 104.005 0
      vertex 0 99.25 0
      vertex 2.8711 103.774 0
    endloop
  endfacet
  facet normal 0 0 -1
    outer loop
      vertex 0.954915 2.06107 0
      vertex 8.625 4 0
      vertex 1.35516 1.57726 0
    endloop
  endfacet
  facet normal 0 0 -1
    outer loop
      vertex 2.8711 103.774 0
      vertex 0 99.25 0
      vertex 2.32087 103.472 0
    endloop
  endfacet
  facet normal 0 0 -1
    outer loop
      vertex 0.618467 2.59123 0
      vertex 8.625 4 0
      vertex 0.954915 2.06107 0
    endloop
  endfacet
  facet normal 0 0 -1
    outer loop
      vertex 2.32087 103.472 0
      vertex 0 99.25 0
      vertex 1.81288 103.103 0
    endloop
  endfacet
  facet normal 0 0 -1
    outer loop
      vertex 0.351118 3.15938 0
      vertex 8.625 4 0
      vertex 0.618467 2.59123 0
    endloop
  endfacet
  facet normal 0 0 -1
    outer loop
      vertex 1.81288 103.103 0
      vertex 0 99.25 0
      vertex 1.35516 102.673 0
    endloop
  endfacet
  facet normal 0 0 -1
    outer loop
      vertex 0.157084 3.75655 0
      vertex 8.625 4 0
      vertex 0.351118 3.15938 0
    endloop
  endfacet
  facet normal 0 0 -1
    outer loop
      vertex 1.35516 102.673 0
      vertex 0 99.25 0
      vertex 0.954915 102.189 0
    endloop
  endfacet
  facet normal 0 0 -1
    outer loop
      vertex 0.0394268 4.37333 0
      vertex 8.625 4 0
      vertex 0.157084 3.75655 0
    endloop
  endfacet
  facet normal 0 0 -1
    outer loop
      vertex 0.954915 102.189 0
      vertex 0 99.25 0
      vertex 0.618467 101.659 0
    endloop
  endfacet
  facet normal 0 0 -1
    outer loop
      vertex 8.625 4 0
      vertex 0.0394268 4.37333 0
      vertex 0 5 0
    endloop
  endfacet
  facet normal 0 0 -1
    outer loop
      vertex 0.618467 101.659 0
      vertex 0 99.25 0
      vertex 0.351118 101.091 0
    endloop
  endfacet
  facet normal 0 0 -1
    outer loop
      vertex 0.351118 101.091 0
      vertex 0 99.25 0
      vertex 0.157084 100.493 0
    endloop
  endfacet
  facet normal 0 0 -1
    outer loop
      vertex 0.157084 100.493 0
      vertex 0 99.25 0
      vertex 0.0394268 99.8767 0
    endloop
  endfacet
  facet normal -0.24869 -0.968583 0
    outer loop
      vertex 3.45492 0.244718 0
      vertex 4.06309 0.0885639 19
      vertex 3.45492 0.244718 19
    endloop
  endfacet
  facet normal -0.24869 -0.968583 -0
    outer loop
      vertex 4.06309 0.0885639 19
      vertex 3.45492 0.244718 0
      vertex 4.06309 0.0885639 0
    endloop
  endfacet
  facet normal -0.481754 -0.876307 0
    outer loop
      vertex 2.32087 0.778361 0
      vertex 2.8711 0.475865 19
      vertex 2.32087 0.778361 19
    endloop
  endfacet
  facet normal -0.481754 -0.876307 -0
    outer loop
      vertex 2.8711 0.475865 19
      vertex 2.32087 0.778361 0
      vertex 2.8711 0.475865 0
    endloop
  endfacet
  facet normal -0.587785 -0.809017 0
    outer loop
      vertex 1.81288 1.14743 0
      vertex 2.32087 0.778361 19
      vertex 1.81288 1.14743 19
    endloop
  endfacet
  facet normal -0.587785 -0.809017 -0
    outer loop
      vertex 2.32087 0.778361 19
      vertex 1.81288 1.14743 0
      vertex 2.32087 0.778361 0
    endloop
  endfacet
  facet normal -0.684547 -0.728969 0
    outer loop
      vertex 1.35516 1.57726 0
      vertex 1.81288 1.14743 19
      vertex 1.35516 1.57726 19
    endloop
  endfacet
  facet normal -0.684547 -0.728969 -0
    outer loop
      vertex 1.81288 1.14743 19
      vertex 1.35516 1.57726 0
      vertex 1.81288 1.14743 0
    endloop
  endfacet
  facet normal -0.982287 0.187381 0
    outer loop
      vertex 0.0394268 99.8767 0
      vertex 0.157084 100.493 19
      vertex 0.157084 100.493 0
    endloop
  endfacet
  facet normal -0.982287 0.187381 0
    outer loop
      vertex 0.157084 100.493 19
      vertex 0.0394268 99.8767 0
      vertex 0.0394268 99.8767 19
    endloop
  endfacet
  facet normal -0.844329 0.535825 0
    outer loop
      vertex 0.618467 101.659 0
      vertex 0.954915 102.189 19
      vertex 0.954915 102.189 0
    endloop
  endfacet
  facet normal -0.844329 0.535825 0
    outer loop
      vertex 0.954915 102.189 19
      vertex 0.618467 101.659 0
      vertex 0.618467 101.659 19
    endloop
  endfacet
  facet normal -0.684548 0.728968 0
    outer loop
      vertex 1.81288 103.103 0
      vertex 1.35516 102.673 19
      vertex 1.81288 103.103 19
    endloop
  endfacet
  facet normal -0.684548 0.728968 0
    outer loop
      vertex 1.35516 102.673 19
      vertex 1.81288 103.103 0
      vertex 1.35516 102.673 0
    endloop
  endfacet
  facet normal 0.904827 0.425779 0
    outer loop
      vertex 103.899 101.091 19
      vertex 103.632 101.659 0
      vertex 103.632 101.659 19
    endloop
  endfacet
  facet normal 0.904827 0.425779 0
    outer loop
      vertex 103.632 101.659 0
      vertex 103.899 101.091 19
      vertex 103.899 101.091 0
    endloop
  endfacet
  facet normal 0.684547 0.728969 -0
    outer loop
      vertex 102.895 102.673 0
      vertex 102.437 103.103 19
      vertex 102.895 102.673 19
    endloop
  endfacet
  facet normal 0.684547 0.728969 0
    outer loop
      vertex 102.437 103.103 19
      vertex 102.895 102.673 0
      vertex 102.437 103.103 0
    endloop
  endfacet
  facet normal 0.481751 0.876308 -0
    outer loop
      vertex 101.929 103.472 0
      vertex 101.379 103.774 19
      vertex 101.929 103.472 19
    endloop
  endfacet
  facet normal 0.481751 0.876308 0
    outer loop
      vertex 101.379 103.774 19
      vertex 101.929 103.472 0
      vertex 101.379 103.774 0
    endloop
  endfacet
  facet normal 0.770517 0.637419 0
    outer loop
      vertex 103.295 102.189 19
      vertex 102.895 102.673 0
      vertex 102.895 102.673 19
    endloop
  endfacet
  facet normal 0.770517 0.637419 0
    outer loop
      vertex 102.895 102.673 0
      vertex 103.295 102.189 19
      vertex 103.295 102.189 0
    endloop
  endfacet
  facet normal 0.248697 0.968581 -0
    outer loop
      vertex 100.795 104.005 0
      vertex 100.187 104.161 19
      vertex 100.795 104.005 19
    endloop
  endfacet
  facet normal 0.248697 0.968581 0
    outer loop
      vertex 100.187 104.161 19
      vertex 100.795 104.005 0
      vertex 100.187 104.161 0
    endloop
  endfacet
  facet normal -0.481747 0.87631 0
    outer loop
      vertex 2.8711 103.774 0
      vertex 2.32087 103.472 19
      vertex 2.8711 103.774 19
    endloop
  endfacet
  facet normal -0.481747 0.87631 0
    outer loop
      vertex 2.32087 103.472 19
      vertex 2.8711 103.774 0
      vertex 2.32087 103.472 0
    endloop
  endfacet
  facet normal -0.844329 -0.535826 0
    outer loop
      vertex 0.954915 2.06107 0
      vertex 0.618467 2.59123 19
      vertex 0.618467 2.59123 0
    endloop
  endfacet
  facet normal -0.844329 -0.535826 0
    outer loop
      vertex 0.618467 2.59123 19
      vertex 0.954915 2.06107 0
      vertex 0.954915 2.06107 19
    endloop
  endfacet
  facet normal -0.904827 -0.425779 0
    outer loop
      vertex 0.618467 2.59123 0
      vertex 0.351118 3.15938 19
      vertex 0.351118 3.15938 0
    endloop
  endfacet
  facet normal -0.904827 -0.425779 0
    outer loop
      vertex 0.351118 3.15938 19
      vertex 0.618467 2.59123 0
      vertex 0.618467 2.59123 19
    endloop
  endfacet
  facet normal -0.982287 -0.187381 0
    outer loop
      vertex 0.157084 3.75655 0
      vertex 0.0394268 4.37333 19
      vertex 0.0394268 4.37333 0
    endloop
  endfacet
  facet normal -0.982287 -0.187381 0
    outer loop
      vertex 0.0394268 4.37333 19
      vertex 0.157084 3.75655 0
      vertex 0.157084 3.75655 19
    endloop
  endfacet
  facet normal -0.998027 -0.062791 0
    outer loop
      vertex 0.0394268 4.37333 0
      vertex 0 5 19
      vertex 0 5 0
    endloop
  endfacet
  facet normal -0.998027 -0.062791 0
    outer loop
      vertex 0 5 19
      vertex 0.0394268 4.37333 0
      vertex 0.0394268 4.37333 19
    endloop
  endfacet
  facet normal 0.587782 0.809019 -0
    outer loop
      vertex 102.437 103.103 0
      vertex 101.929 103.472 19
      vertex 102.437 103.103 19
    endloop
  endfacet
  facet normal 0.587782 0.809019 0
    outer loop
      vertex 101.929 103.472 19
      vertex 102.437 103.103 0
      vertex 101.929 103.472 0
    endloop
  endfacet
  facet normal 0.982289 0.187374 0
    outer loop
      vertex 104.211 99.8767 19
      vertex 104.093 100.493 0
      vertex 104.093 100.493 19
    endloop
  endfacet
  facet normal 0.982289 0.187374 0
    outer loop
      vertex 104.093 100.493 0
      vertex 104.211 99.8767 19
      vertex 104.211 99.8767 0
    endloop
  endfacet
  facet normal 1 -0 0
    outer loop
      vertex 4 4 17.5
      vertex 4 100.25 1
      vertex 4 100.25 17.5
    endloop
  endfacet
  facet normal 1 0 0
    outer loop
      vertex 4 100.25 1
      vertex 4 4 17.5
      vertex 4 4 1
    endloop
  endfacet
  facet normal -1 0 0
    outer loop
      vertex 100.25 4 1
      vertex 100.25 100.25 17.5
      vertex 100.25 100.25 1
    endloop
  endfacet
  facet normal -1 -0 0
    outer loop
      vertex 100.25 100.25 17.5
      vertex 100.25 4 1
      vertex 100.25 4 17.5
    endloop
  endfacet
  facet normal -0 0 1
    outer loop
      vertex 91.625 94.25 1
      vertex 100.25 4 1
      vertex 100.25 100.25 1
    endloop
  endfacet
  facet normal 0 0 1
    outer loop
      vertex 100.25 4 1
      vertex 91.625 94.25 1
      vertex 95.625 4 1
    endloop
  endfacet
  facet normal 0 0 1
    outer loop
      vertex 100.25 100.25 1
      vertex 12.625 94.25 1
      vertex 91.625 94.25 1
    endloop
  endfacet
  facet normal 0 0 1
    outer loop
      vertex 12.625 94.25 1
      vertex 8.625 4 1
      vertex 12.625 4 1
    endloop
  endfacet
  facet normal -0 0 1
    outer loop
      vertex 4 100.25 1
      vertex 12.625 94.25 1
      vertex 100.25 100.25 1
    endloop
  endfacet
  facet normal 0 0 1
    outer loop
      vertex 4 4 1
      vertex 12.625 94.25 1
      vertex 4 100.25 1
    endloop
  endfacet
  facet normal 0 0 1
    outer loop
      vertex 12.625 94.25 1
      vertex 4 4 1
      vertex 8.625 4 1
    endloop
  endfacet
  facet normal 0 0 1
    outer loop
      vertex 95.625 4 1
      vertex 91.625 94.25 1
      vertex 91.625 4 1
    endloop
  endfacet
  facet normal 0 1 0
    outer loop
      vertex 8.625 4 17.5
      vertex 8 4 16.5
      vertex 8 4 17.5
    endloop
  endfacet
  facet normal 0 1 0
    outer loop
      vertex 8 4 16.5
      vertex 8.625 4 1
      vertex 5 4 16.5
    endloop
  endfacet
  facet normal 0 1 -0
    outer loop
      vertex 8.625 4 1
      vertex 8 4 16.5
      vertex 8.625 4 17.5
    endloop
  endfacet
  facet normal 0 1 -0
    outer loop
      vertex 5 4 16.5
      vertex 4 4 17.5
      vertex 5 4 17.5
    endloop
  endfacet
  facet normal 0 1 0
    outer loop
      vertex 4 4 1
      vertex 5 4 16.5
      vertex 8.625 4 1
    endloop
  endfacet
  facet normal 0 1 0
    outer loop
      vertex 5 4 16.5
      vertex 4 4 1
      vertex 4 4 17.5
    endloop
  endfacet
  facet normal 0 1 0
    outer loop
      vertex 100.25 4 17.5
      vertex 99.25 4 16.5
      vertex 99.25 4 17.5
    endloop
  endfacet
  facet normal 0 1 0
    outer loop
      vertex 95.625 4 1
      vertex 99.25 4 16.5
      vertex 100.25 4 1
    endloop
  endfacet
  facet normal 0 1 -0
    outer loop
      vertex 100.25 4 1
      vertex 99.25 4 16.5
      vertex 100.25 4 17.5
    endloop
  endfacet
  facet normal 0 1 -0
    outer loop
      vertex 96.25 4 16.5
      vertex 95.625 4 17.5
      vertex 96.25 4 17.5
    endloop
  endfacet
  facet normal 0 1 0
    outer loop
      vertex 99.25 4 16.5
      vertex 95.625 4 1
      vertex 96.25 4 16.5
    endloop
  endfacet
  facet normal 0 1 0
    outer loop
      vertex 96.25 4 16.5
      vertex 95.625 4 1
      vertex 95.625 4 17.5
    endloop
  endfacet
  facet normal 0 -1 0
    outer loop
      vertex 8.625 4 0
      vertex 12.625 4 1
      vertex 8.625 4 1
    endloop
  endfacet
  facet normal 0 -1 -0
    outer loop
      vertex 12.625 4 1
      vertex 8.625 4 0
      vertex 12.625 4 0
    endloop
  endfacet
  facet normal 0 -1 0
    outer loop
      vertex 91.625 4 0
      vertex 95.625 4 1
      vertex 91.625 4 1
    endloop
  endfacet
  facet normal 0 -1 -0
    outer loop
      vertex 95.625 4 1
      vertex 91.625 4 0
      vertex 95.625 4 0
    endloop
  endfacet
  facet normal 0 -1 0
    outer loop
      vertex 4 100.25 17.5
      vertex 5 100.25 16.5
      vertex 5 100.25 17.5
    endloop
  endfacet
  facet normal 0 -1 0
    outer loop
      vertex 4 100.25 1
      vertex 8 100.25 16.5
      vertex 5 100.25 16.5
    endloop
  endfacet
  facet normal 0 -1 -0
    outer loop
      vertex 8 100.25 16.5
      vertex 4 100.25 1
      vertex 96.25 100.25 16.5
    endloop
  endfacet
  facet normal 0 -1 0
    outer loop
      vertex 100.25 100.25 1
      vertex 96.25 100.25 16.5
      vertex 4 100.25 1
    endloop
  endfacet
  facet normal 0 -1 0
    outer loop
      vertex 4 100.25 1
      vertex 5 100.25 16.5
      vertex 4 100.25 17.5
    endloop
  endfacet
  facet normal 0 -1 0
    outer loop
      vertex 8 100.25 16.5
      vertex 96.25 100.25 17.5
      vertex 8 100.25 17.5
    endloop
  endfacet
  facet normal 0 -1 -0
    outer loop
      vertex 96.25 100.25 17.5
      vertex 8 100.25 16.5
      vertex 96.25 100.25 16.5
    endloop
  endfacet
  facet normal 0 -1 0
    outer loop
      vertex 99.25 100.25 16.5
      vertex 100.25 100.25 17.5
      vertex 99.25 100.25 17.5
    endloop
  endfacet
  facet normal 0 -1 0
    outer loop
      vertex 99.25 100.25 16.5
      vertex 100.25 100.25 1
      vertex 100.25 100.25 17.5
    endloop
  endfacet
  facet normal 0 -1 0
    outer loop
      vertex 96.25 100.25 16.5
      vertex 100.25 100.25 1
      vertex 99.25 100.25 16.5
    endloop
  endfacet
  facet normal 1 -0 0
    outer loop
      vertex 12.625 4 1
      vertex 12.625 94.25 0
      vertex 12.625 94.25 1
    endloop
  endfacet
  facet normal 1 0 0
    outer loop
      vertex 12.625 94.25 0
      vertex 12.625 4 1
      vertex 12.625 4 0
    endloop
  endfacet
  facet normal -1 0 0
    outer loop
      vertex 91.625 4 0
      vertex 91.625 94.25 1
      vertex 91.625 94.25 0
    endloop
  endfacet
  facet normal -1 -0 0
    outer loop
      vertex 91.625 94.25 1
      vertex 91.625 4 0
      vertex 91.625 4 1
    endloop
  endfacet
  facet normal 0 -1 0
    outer loop
      vertex 12.625 94.25 0
      vertex 91.625 94.25 1
      vertex 12.625 94.25 1
    endloop
  endfacet
  facet normal 0 -1 -0
    outer loop
      vertex 91.625 94.25 1
      vertex 12.625 94.25 0
      vertex 91.625 94.25 0
    endloop
  endfacet
  facet normal 1 -0 0
    outer loop
      vertex 5 100.25 17.5
      vertex 5 100.75 16.5
      vertex 5 100.75 17.5
    endloop
  endfacet
  facet normal 1 0 0
    outer loop
      vertex 5 100.75 16.5
      vertex 5 100.25 17.5
      vertex 5 100.25 16.5
    endloop
  endfacet
  facet normal 0 0 1
    outer loop
      vertex 96.25 100.25 17.5
      vertex 8 100.75 17.5
      vertex 8 100.25 17.5
    endloop
  endfacet
  facet normal 0 0 1
    outer loop
      vertex 96.25 4 17.5
      vertex 95.625 4 17.5
      vertex 96.25 3.5 17.5
    endloop
  endfacet
  facet normal 0 0 1
    outer loop
      vertex 98.7951 102.005 17.5
      vertex 99.25 100.75 17.5
      vertex 99.3789 101.774 17.5
    endloop
  endfacet
  facet normal 0 0 1
    outer loop
      vertex 98.1869 102.161 17.5
      vertex 99.25 100.75 17.5
      vertex 98.7951 102.005 17.5
    endloop
  endfacet
  facet normal 0 0 1
    outer loop
      vertex 96.25 100.75 17.5
      vertex 98.1869 102.161 17.5
      vertex 97.5639 102.24 17.5
    endloop
  endfacet
  facet normal 0 0 1
    outer loop
      vertex 98.1869 102.161 17.5
      vertex 96.25 100.75 17.5
      vertex 99.25 100.75 17.5
    endloop
  endfacet
  facet normal 0 0 1
    outer loop
      vertex 96.25 100.75 17.5
      vertex 8 100.75 17.5
      vertex 96.25 100.25 17.5
    endloop
  endfacet
  facet normal 0 0 1
    outer loop
      vertex 97.5639 102.24 17.5
      vertex 8 100.75 17.5
      vertex 96.25 100.75 17.5
    endloop
  endfacet
  facet normal -0 0 1
    outer loop
      vertex 6.68605 102.24 17.5
      vertex 8 100.75 17.5
      vertex 97.5639 102.24 17.5
    endloop
  endfacet
  facet normal -0 0 1
    outer loop
      vertex 6.06309 102.161 17.5
      vertex 8 100.75 17.5
      vertex 6.68605 102.24 17.5
    endloop
  endfacet
  facet normal 0 0 1
    outer loop
      vertex 5 100.75 17.5
      vertex 6.06309 102.161 17.5
      vertex 5.45492 102.005 17.5
    endloop
  endfacet
  facet normal 0 0 1
    outer loop
      vertex 6.06309 102.161 17.5
      vertex 5 100.75 17.5
      vertex 8 100.75 17.5
    endloop
  endfacet
  facet normal -0 0 1
    outer loop
      vertex 4.8711 101.774 17.5
      vertex 5 100.75 17.5
      vertex 5.45492 102.005 17.5
    endloop
  endfacet
  facet normal -0 0 1
    outer loop
      vertex 4.32087 101.472 17.5
      vertex 5 100.75 17.5
      vertex 4.8711 101.774 17.5
    endloop
  endfacet
  facet normal -0 0 1
    outer loop
      vertex 3.81288 101.103 17.5
      vertex 5 100.75 17.5
      vertex 4.32087 101.472 17.5
    endloop
  endfacet
  facet normal 0 0 1
    outer loop
      vertex 5 100.75 17.5
      vertex 4 100.25 17.5
      vertex 5 100.25 17.5
    endloop
  endfacet
  facet normal -0 0 1
    outer loop
      vertex 3.35516 100.673 17.5
      vertex 4 100.25 17.5
      vertex 3.81288 101.103 17.5
    endloop
  endfacet
  facet normal 0 0 1
    outer loop
      vertex 5 100.75 17.5
      vertex 3.81288 101.103 17.5
      vertex 4 100.25 17.5
    endloop
  endfacet
  facet normal 0 0 1
    outer loop
      vertex 100.25 100.25 17.5
      vertex 102.25 97.25 17.5
      vertex 102.211 97.8767 17.5
    endloop
  endfacet
  facet normal 0 0 1
    outer loop
      vertex 102.25 97.25 17.5
      vertex 100.25 100.25 17.5
      vertex 102.25 7 17.5
    endloop
  endfacet
  facet normal 0 0 1
    outer loop
      vertex 100.25 100.25 17.5
      vertex 102.211 97.8767 17.5
      vertex 102.093 98.4934 17.5
    endloop
  endfacet
  facet normal 0 0 1
    outer loop
      vertex 100.25 4 17.5
      vertex 102.25 7 17.5
      vertex 100.25 100.25 17.5
    endloop
  endfacet
  facet normal 0 0 1
    outer loop
      vertex 100.25 100.25 17.5
      vertex 102.093 98.4934 17.5
      vertex 101.899 99.0906 17.5
    endloop
  endfacet
  facet normal 0 0 1
    outer loop
      vertex 102.25 7 17.5
      vertex 100.25 4 17.5
      vertex 102.211 6.37333 17.5
    endloop
  endfacet
  facet normal 0 0 1
    outer loop
      vertex 100.25 100.25 17.5
      vertex 101.899 99.0906 17.5
      vertex 101.632 99.6588 17.5
    endloop
  endfacet
  facet normal 0 0 1
    outer loop
      vertex 102.211 6.37333 17.5
      vertex 100.25 4 17.5
      vertex 102.093 5.75655 17.5
    endloop
  endfacet
  facet normal 0 0 1
    outer loop
      vertex 100.25 100.25 17.5
      vertex 101.632 99.6588 17.5
      vertex 101.295 100.189 17.5
    endloop
  endfacet
  facet normal 0 0 1
    outer loop
      vertex 102.093 5.75655 17.5
      vertex 100.25 4 17.5
      vertex 101.899 5.15938 17.5
    endloop
  endfacet
  facet normal -0 0 1
    outer loop
      vertex 100.25 100.25 17.5
      vertex 101.295 100.189 17.5
      vertex 100.895 100.673 17.5
    endloop
  endfacet
  facet normal 0 0 1
    outer loop
      vertex 101.899 5.15938 17.5
      vertex 100.25 4 17.5
      vertex 101.632 4.59123 17.5
    endloop
  endfacet
  facet normal 0 0 1
    outer loop
      vertex 100.25 100.25 17.5
      vertex 100.895 100.673 17.5
      vertex 100.437 101.103 17.5
    endloop
  endfacet
  facet normal 0 0 1
    outer loop
      vertex 101.632 4.59123 17.5
      vertex 100.25 4 17.5
      vertex 101.295 4.06107 17.5
    endloop
  endfacet
  facet normal 0 0 1
    outer loop
      vertex 101.295 4.06107 17.5
      vertex 100.25 4 17.5
      vertex 100.895 3.57726 17.5
    endloop
  endfacet
  facet normal 0 0 1
    outer loop
      vertex 99.25 100.75 17.5
      vertex 100.437 101.103 17.5
      vertex 99.9291 101.472 17.5
    endloop
  endfacet
  facet normal 0 0 1
    outer loop
      vertex 99.25 100.75 17.5
      vertex 99.9291 101.472 17.5
      vertex 99.3789 101.774 17.5
    endloop
  endfacet
  facet normal 0 0 1
    outer loop
      vertex 100.437 101.103 17.5
      vertex 99.25 100.75 17.5
      vertex 100.25 100.25 17.5
    endloop
  endfacet
  facet normal 0 0 1
    outer loop
      vertex 100.25 100.25 17.5
      vertex 99.25 100.75 17.5
      vertex 99.25 100.25 17.5
    endloop
  endfacet
  facet normal 0 0 1
    outer loop
      vertex 100.895 3.57726 17.5
      vertex 100.25 4 17.5
      vertex 100.437 3.14743 17.5
    endloop
  endfacet
  facet normal -0 0 1
    outer loop
      vertex 99.25 3.5 17.5
      vertex 100.437 3.14743 17.5
      vertex 100.25 4 17.5
    endloop
  endfacet
  facet normal 0 0 1
    outer loop
      vertex 100.437 3.14743 17.5
      vertex 99.25 3.5 17.5
      vertex 99.9291 2.77836 17.5
    endloop
  endfacet
  facet normal 0 0 1
    outer loop
      vertex 99.25 3.5 17.5
      vertex 100.25 4 17.5
      vertex 99.25 4 17.5
    endloop
  endfacet
  facet normal 0 0 1
    outer loop
      vertex 99.9291 2.77836 17.5
      vertex 99.25 3.5 17.5
      vertex 99.3789 2.47587 17.5
    endloop
  endfacet
  facet normal 0 0 1
    outer loop
      vertex 99.25 3.5 17.5
      vertex 98.7951 2.24472 17.5
      vertex 99.3789 2.47587 17.5
    endloop
  endfacet
  facet normal 0 0 1
    outer loop
      vertex 99.25 3.5 17.5
      vertex 98.1869 2.08856 17.5
      vertex 98.7951 2.24472 17.5
    endloop
  endfacet
  facet normal -0 0 1
    outer loop
      vertex 96.25 3.5 17.5
      vertex 98.1869 2.08856 17.5
      vertex 99.25 3.5 17.5
    endloop
  endfacet
  facet normal 0 0 1
    outer loop
      vertex 98.1869 2.08856 17.5
      vertex 96.25 3.5 17.5
      vertex 97.5639 2.00987 17.5
    endloop
  endfacet
  facet normal 0 0 1
    outer loop
      vertex 95.625 2.00987 17.5
      vertex 96.25 3.5 17.5
      vertex 95.625 4 17.5
    endloop
  endfacet
  facet normal 0 0 1
    outer loop
      vertex 96.25 3.5 17.5
      vertex 95.625 2.00987 17.5
      vertex 97.5639 2.00987 17.5
    endloop
  endfacet
  facet normal -0 0 1
    outer loop
      vertex 4 4 17.5
      vertex 5 3.5 17.5
      vertex 5 4 17.5
    endloop
  endfacet
  facet normal 0 0 1
    outer loop
      vertex 5 3.5 17.5
      vertex 4.32087 2.77836 17.5
      vertex 4.8711 2.47587 17.5
    endloop
  endfacet
  facet normal 0 0 1
    outer loop
      vertex 3.81288 3.14743 17.5
      vertex 5 3.5 17.5
      vertex 4 4 17.5
    endloop
  endfacet
  facet normal 0 0 1
    outer loop
      vertex 5 3.5 17.5
      vertex 3.81288 3.14743 17.5
      vertex 4.32087 2.77836 17.5
    endloop
  endfacet
  facet normal 0 0 1
    outer loop
      vertex 4 100.25 17.5
      vertex 2 97.25 17.5
      vertex 4 4 17.5
    endloop
  endfacet
  facet normal 0 0 1
    outer loop
      vertex 2.95492 100.189 17.5
      vertex 4 100.25 17.5
      vertex 3.35516 100.673 17.5
    endloop
  endfacet
  facet normal -0 0 1
    outer loop
      vertex 2 7 17.5
      vertex 4 4 17.5
      vertex 2 97.25 17.5
    endloop
  endfacet
  facet normal 0 0 1
    outer loop
      vertex 2.61847 99.6588 17.5
      vertex 4 100.25 17.5
      vertex 2.95492 100.189 17.5
    endloop
  endfacet
  facet normal -0 -0 1
    outer loop
      vertex 2.03943 6.37333 17.5
      vertex 4 4 17.5
      vertex 2 7 17.5
    endloop
  endfacet
  facet normal 0 0 1
    outer loop
      vertex 2.35112 99.0906 17.5
      vertex 4 100.25 17.5
      vertex 2.61847 99.6588 17.5
    endloop
  endfacet
  facet normal 0 0 1
    outer loop
      vertex 4 4 17.5
      vertex 3.35516 3.57726 17.5
      vertex 3.81288 3.14743 17.5
    endloop
  endfacet
  facet normal 0 0 1
    outer loop
      vertex 2.15708 98.4934 17.5
      vertex 4 100.25 17.5
      vertex 2.35112 99.0906 17.5
    endloop
  endfacet
  facet normal 0 0 1
    outer loop
      vertex 4 4 17.5
      vertex 2.95492 4.06107 17.5
      vertex 3.35516 3.57726 17.5
    endloop
  endfacet
  facet normal 0 0 1
    outer loop
      vertex 2.03943 97.8767 17.5
      vertex 4 100.25 17.5
      vertex 2.15708 98.4934 17.5
    endloop
  endfacet
  facet normal 0 0 1
    outer loop
      vertex 4 4 17.5
      vertex 2.61847 4.59123 17.5
      vertex 2.95492 4.06107 17.5
    endloop
  endfacet
  facet normal 0 0 1
    outer loop
      vertex 4 100.25 17.5
      vertex 2.03943 97.8767 17.5
      vertex 2 97.25 17.5
    endloop
  endfacet
  facet normal 0 0 1
    outer loop
      vertex 4 4 17.5
      vertex 2.35112 5.15938 17.5
      vertex 2.61847 4.59123 17.5
    endloop
  endfacet
  facet normal 0 0 1
    outer loop
      vertex 4 4 17.5
      vertex 2.15708 5.75655 17.5
      vertex 2.35112 5.15938 17.5
    endloop
  endfacet
  facet normal 0 0 1
    outer loop
      vertex 4 4 17.5
      vertex 2.03943 6.37333 17.5
      vertex 2.15708 5.75655 17.5
    endloop
  endfacet
  facet normal 0 0 1
    outer loop
      vertex 8 3.5 17.5
      vertex 8.625 4 17.5
      vertex 8 4 17.5
    endloop
  endfacet
  facet normal 0 0 1
    outer loop
      vertex 8.625 4 17.5
      vertex 8 3.5 17.5
      vertex 8.625 2.00987 17.5
    endloop
  endfacet
  facet normal 0 0 1
    outer loop
      vertex 8 3.5 17.5
      vertex 6.68605 2.00987 17.5
      vertex 8.625 2.00987 17.5
    endloop
  endfacet
  facet normal 0 0 1
    outer loop
      vertex 8 3.5 17.5
      vertex 6.06309 2.08856 17.5
      vertex 6.68605 2.00987 17.5
    endloop
  endfacet
  facet normal -0 0 1
    outer loop
      vertex 5 3.5 17.5
      vertex 6.06309 2.08856 17.5
      vertex 8 3.5 17.5
    endloop
  endfacet
  facet normal 0 0 1
    outer loop
      vertex 6.06309 2.08856 17.5
      vertex 5 3.5 17.5
      vertex 5.45492 2.24472 17.5
    endloop
  endfacet
  facet normal 0 0 1
    outer loop
      vertex 5.45492 2.24472 17.5
      vertex 5 3.5 17.5
      vertex 4.8711 2.47587 17.5
    endloop
  endfacet
  facet normal -1 0 0
    outer loop
      vertex 8 100.25 16.5
      vertex 8 100.75 17.5
      vertex 8 100.75 16.5
    endloop
  endfacet
  facet normal -1 -0 0
    outer loop
      vertex 8 100.75 17.5
      vertex 8 100.25 16.5
      vertex 8 100.25 17.5
    endloop
  endfacet
  facet normal 0 -1 0
    outer loop
      vertex 5 100.75 16.5
      vertex 8 100.75 17.5
      vertex 5 100.75 17.5
    endloop
  endfacet
  facet normal 0 -1 -0
    outer loop
      vertex 8 100.75 17.5
      vertex 5 100.75 16.5
      vertex 8 100.75 16.5
    endloop
  endfacet
  facet normal -0 0 1
    outer loop
      vertex 5 100.75 16.5
      vertex 8 100.25 16.5
      vertex 8 100.75 16.5
    endloop
  endfacet
  facet normal 0 0 1
    outer loop
      vertex 8 100.25 16.5
      vertex 5 100.75 16.5
      vertex 5 100.25 16.5
    endloop
  endfacet
  facet normal 1 -0 0
    outer loop
      vertex 96.25 100.25 17.5
      vertex 96.25 100.75 16.5
      vertex 96.25 100.75 17.5
    endloop
  endfacet
  facet normal 1 0 0
    outer loop
      vertex 96.25 100.75 16.5
      vertex 96.25 100.25 17.5
      vertex 96.25 100.25 16.5
    endloop
  endfacet
  facet normal -1 0 0
    outer loop
      vertex 99.25 100.25 16.5
      vertex 99.25 100.75 17.5
      vertex 99.25 100.75 16.5
    endloop
  endfacet
  facet normal -1 -0 0
    outer loop
      vertex 99.25 100.75 17.5
      vertex 99.25 100.25 16.5
      vertex 99.25 100.25 17.5
    endloop
  endfacet
  facet normal -0 0 1
    outer loop
      vertex 96.25 100.75 16.5
      vertex 99.25 100.25 16.5
      vertex 99.25 100.75 16.5
    endloop
  endfacet
  facet normal 0 0 1
    outer loop
      vertex 99.25 100.25 16.5
      vertex 96.25 100.75 16.5
      vertex 96.25 100.25 16.5
    endloop
  endfacet
  facet normal 0 -1 0
    outer loop
      vertex 96.25 100.75 16.5
      vertex 99.25 100.75 17.5
      vertex 96.25 100.75 17.5
    endloop
  endfacet
  facet normal 0 -1 -0
    outer loop
      vertex 99.25 100.75 17.5
      vertex 96.25 100.75 16.5
      vertex 99.25 100.75 16.5
    endloop
  endfacet
  facet normal 1 -0 0
    outer loop
      vertex 5 3.5 17.5
      vertex 5 4 16.5
      vertex 5 4 17.5
    endloop
  endfacet
  facet normal 1 0 0
    outer loop
      vertex 5 4 16.5
      vertex 5 3.5 17.5
      vertex 5 3.5 16.5
    endloop
  endfacet
  facet normal -1 0 0
    outer loop
      vertex 8 3.5 16.5
      vertex 8 4 17.5
      vertex 8 4 16.5
    endloop
  endfacet
  facet normal -1 -0 0
    outer loop
      vertex 8 4 17.5
      vertex 8 3.5 16.5
      vertex 8 3.5 17.5
    endloop
  endfacet
  facet normal -0 0 1
    outer loop
      vertex 5 4 16.5
      vertex 8 3.5 16.5
      vertex 8 4 16.5
    endloop
  endfacet
  facet normal 0 0 1
    outer loop
      vertex 8 3.5 16.5
      vertex 5 4 16.5
      vertex 5 3.5 16.5
    endloop
  endfacet
  facet normal 0 1 -0
    outer loop
      vertex 8 3.5 16.5
      vertex 5 3.5 17.5
      vertex 8 3.5 17.5
    endloop
  endfacet
  facet normal 0 1 0
    outer loop
      vertex 5 3.5 17.5
      vertex 8 3.5 16.5
      vertex 5 3.5 16.5
    endloop
  endfacet
  facet normal 1 -0 0
    outer loop
      vertex 96.25 3.5 17.5
      vertex 96.25 4 16.5
      vertex 96.25 4 17.5
    endloop
  endfacet
  facet normal 1 0 0
    outer loop
      vertex 96.25 4 16.5
      vertex 96.25 3.5 17.5
      vertex 96.25 3.5 16.5
    endloop
  endfacet
  facet normal -1 0 0
    outer loop
      vertex 99.25 3.5 16.5
      vertex 99.25 4 17.5
      vertex 99.25 4 16.5
    endloop
  endfacet
  facet normal -1 -0 0
    outer loop
      vertex 99.25 4 17.5
      vertex 99.25 3.5 16.5
      vertex 99.25 3.5 17.5
    endloop
  endfacet
  facet normal -0 0 1
    outer loop
      vertex 96.25 4 16.5
      vertex 99.25 3.5 16.5
      vertex 99.25 4 16.5
    endloop
  endfacet
  facet normal 0 0 1
    outer loop
      vertex 99.25 3.5 16.5
      vertex 96.25 4 16.5
      vertex 96.25 3.5 16.5
    endloop
  endfacet
  facet normal 0 1 -0
    outer loop
      vertex 99.25 3.5 16.5
      vertex 96.25 3.5 17.5
      vertex 99.25 3.5 17.5
    endloop
  endfacet
  facet normal 0 1 0
    outer loop
      vertex 96.25 3.5 17.5
      vertex 99.25 3.5 16.5
      vertex 96.25 3.5 16.5
    endloop
  endfacet
  facet normal -1 0 0
    outer loop
      vertex 102.25 7 17.5
      vertex 102.25 97.25 19
      vertex 102.25 97.25 17.5
    endloop
  endfacet
  facet normal -1 -0 0
    outer loop
      vertex 102.25 97.25 19
      vertex 102.25 7 17.5
      vertex 102.25 7 19
    endloop
  endfacet
  facet normal -0.998027 0.062794 0
    outer loop
      vertex 102.211 6.37333 17.5
      vertex 102.25 7 19
      vertex 102.25 7 17.5
    endloop
  endfacet
  facet normal -0.998027 0.062794 0
    outer loop
      vertex 102.25 7 19
      vertex 102.211 6.37333 17.5
      vertex 102.211 6.37333 19
    endloop
  endfacet
  facet normal 1 -0 0
    outer loop
      vertex 2 7 19
      vertex 2 97.25 17.5
      vertex 2 97.25 19
    endloop
  endfacet
  facet normal 1 0 0
    outer loop
      vertex 2 97.25 17.5
      vertex 2 7 19
      vertex 2 7 17.5
    endloop
  endfacet
  facet normal 0 1 -0
    outer loop
      vertex 8.625 2.00987 17.5
      vertex 6.68605 2.00987 19
      vertex 8.625 2.00987 19
    endloop
  endfacet
  facet normal 0 1 0
    outer loop
      vertex 6.68605 2.00987 19
      vertex 8.625 2.00987 17.5
      vertex 6.68605 2.00987 17.5
    endloop
  endfacet
  facet normal 0 1 -0
    outer loop
      vertex 97.5639 2.00987 17.5
      vertex 95.625 2.00987 19
      vertex 97.5639 2.00987 19
    endloop
  endfacet
  facet normal 0 1 0
    outer loop
      vertex 95.625 2.00987 19
      vertex 97.5639 2.00987 17.5
      vertex 95.625 2.00987 17.5
    endloop
  endfacet
  facet normal -0.770516 0.63742 0
    outer loop
      vertex 100.895 3.57726 17.5
      vertex 101.295 4.06107 19
      vertex 101.295 4.06107 17.5
    endloop
  endfacet
  facet normal -0.770516 0.63742 0
    outer loop
      vertex 101.295 4.06107 19
      vertex 100.895 3.57726 17.5
      vertex 100.895 3.57726 19
    endloop
  endfacet
  facet normal 0.587784 -0.809018 0
    outer loop
      vertex 3.81288 101.103 17.5
      vertex 4.32087 101.472 19
      vertex 3.81288 101.103 19
    endloop
  endfacet
  facet normal 0.587784 -0.809018 0
    outer loop
      vertex 4.32087 101.472 19
      vertex 3.81288 101.103 17.5
      vertex 4.32087 101.472 17.5
    endloop
  endfacet
  facet normal -0.998026 -0.0627943 0
    outer loop
      vertex 102.25 97.25 17.5
      vertex 102.211 97.8767 19
      vertex 102.211 97.8767 17.5
    endloop
  endfacet
  facet normal -0.998026 -0.0627943 0
    outer loop
      vertex 102.211 97.8767 19
      vertex 102.25 97.25 17.5
      vertex 102.25 97.25 19
    endloop
  endfacet
  facet normal -0.951054 0.309024 0
    outer loop
      vertex 101.899 5.15938 17.5
      vertex 102.093 5.75655 19
      vertex 102.093 5.75655 17.5
    endloop
  endfacet
  facet normal -0.951054 0.309024 0
    outer loop
      vertex 102.093 5.75655 19
      vertex 101.899 5.15938 17.5
      vertex 101.899 5.15938 19
    endloop
  endfacet
  facet normal -0.481758 0.876304 0
    outer loop
      vertex 99.9291 2.77836 17.5
      vertex 99.3789 2.47587 19
      vertex 99.9291 2.77836 19
    endloop
  endfacet
  facet normal -0.481758 0.876304 0
    outer loop
      vertex 99.3789 2.47587 19
      vertex 99.9291 2.77836 17.5
      vertex 99.3789 2.47587 17.5
    endloop
  endfacet
  facet normal -0.684545 0.72897 0
    outer loop
      vertex 100.895 3.57726 17.5
      vertex 100.437 3.14743 19
      vertex 100.895 3.57726 19
    endloop
  endfacet
  facet normal -0.684545 0.72897 0
    outer loop
      vertex 100.437 3.14743 19
      vertex 100.895 3.57726 17.5
      vertex 100.437 3.14743 17.5
    endloop
  endfacet
  facet normal 0.125333 0.992115 -0
    outer loop
      vertex 6.68605 2.00987 17.5
      vertex 6.06309 2.08856 19
      vertex 6.68605 2.00987 19
    endloop
  endfacet
  facet normal 0.125333 0.992115 0
    outer loop
      vertex 6.06309 2.08856 19
      vertex 6.68605 2.00987 17.5
      vertex 6.06309 2.08856 17.5
    endloop
  endfacet
  facet normal -0.982289 0.187374 0
    outer loop
      vertex 102.093 5.75655 17.5
      vertex 102.211 6.37333 19
      vertex 102.211 6.37333 17.5
    endloop
  endfacet
  facet normal -0.982289 0.187374 0
    outer loop
      vertex 102.211 6.37333 19
      vertex 102.093 5.75655 17.5
      vertex 102.093 5.75655 19
    endloop
  endfacet
  facet normal 0.998027 -0.0627913 0
    outer loop
      vertex 2 97.25 19
      vertex 2.03943 97.8767 17.5
      vertex 2.03943 97.8767 19
    endloop
  endfacet
  facet normal 0.998027 -0.0627913 0
    outer loop
      vertex 2.03943 97.8767 17.5
      vertex 2 97.25 19
      vertex 2 97.25 17.5
    endloop
  endfacet
  facet normal 0.904827 -0.425779 0
    outer loop
      vertex 2.35112 99.0906 19
      vertex 2.61847 99.6588 17.5
      vertex 2.61847 99.6588 19
    endloop
  endfacet
  facet normal 0.904827 -0.425779 0
    outer loop
      vertex 2.61847 99.6588 17.5
      vertex 2.35112 99.0906 19
      vertex 2.35112 99.0906 17.5
    endloop
  endfacet
  facet normal 0 -1 0
    outer loop
      vertex 6.68605 102.24 17.5
      vertex 97.5639 102.24 19
      vertex 6.68605 102.24 19
    endloop
  endfacet
  facet normal 0 -1 -0
    outer loop
      vertex 97.5639 102.24 19
      vertex 6.68605 102.24 17.5
      vertex 97.5639 102.24 17.5
    endloop
  endfacet
  facet normal -0.982289 -0.187374 0
    outer loop
      vertex 102.211 97.8767 17.5
      vertex 102.093 98.4934 19
      vertex 102.093 98.4934 17.5
    endloop
  endfacet
  facet normal -0.982289 -0.187374 0
    outer loop
      vertex 102.093 98.4934 19
      vertex 102.211 97.8767 17.5
      vertex 102.211 97.8767 19
    endloop
  endfacet
  facet normal -0.844328 0.535827 0
    outer loop
      vertex 101.295 4.06107 17.5
      vertex 101.632 4.59123 19
      vertex 101.632 4.59123 17.5
    endloop
  endfacet
  facet normal -0.844328 0.535827 0
    outer loop
      vertex 101.632 4.59123 19
      vertex 101.295 4.06107 17.5
      vertex 101.295 4.06107 19
    endloop
  endfacet
  facet normal -0.904827 0.425779 0
    outer loop
      vertex 101.632 4.59123 17.5
      vertex 101.899 5.15938 19
      vertex 101.899 5.15938 17.5
    endloop
  endfacet
  facet normal -0.904827 0.425779 0
    outer loop
      vertex 101.899 5.15938 19
      vertex 101.632 4.59123 17.5
      vertex 101.632 4.59123 19
    endloop
  endfacet
  facet normal -0.368122 0.929777 0
    outer loop
      vertex 99.3789 2.47587 17.5
      vertex 98.7951 2.24472 19
      vertex 99.3789 2.47587 19
    endloop
  endfacet
  facet normal -0.368122 0.929777 0
    outer loop
      vertex 98.7951 2.24472 19
      vertex 99.3789 2.47587 17.5
      vertex 98.7951 2.24472 17.5
    endloop
  endfacet
  facet normal 0.770513 0.637424 0
    outer loop
      vertex 3.35516 3.57726 19
      vertex 2.95492 4.06107 17.5
      vertex 2.95492 4.06107 19
    endloop
  endfacet
  facet normal 0.770513 0.637424 0
    outer loop
      vertex 2.95492 4.06107 17.5
      vertex 3.35516 3.57726 19
      vertex 3.35516 3.57726 17.5
    endloop
  endfacet
  facet normal 0.368126 0.929776 -0
    outer loop
      vertex 5.45492 2.24472 17.5
      vertex 4.8711 2.47587 19
      vertex 5.45492 2.24472 19
    endloop
  endfacet
  facet normal 0.368126 0.929776 0
    outer loop
      vertex 4.8711 2.47587 19
      vertex 5.45492 2.24472 17.5
      vertex 4.8711 2.47587 17.5
    endloop
  endfacet
  facet normal 0.951057 -0.309016 0
    outer loop
      vertex 2.15708 98.4934 19
      vertex 2.35112 99.0906 17.5
      vertex 2.35112 99.0906 19
    endloop
  endfacet
  facet normal 0.951057 -0.309016 0
    outer loop
      vertex 2.35112 99.0906 17.5
      vertex 2.15708 98.4934 19
      vertex 2.15708 98.4934 17.5
    endloop
  endfacet
  facet normal 0.844329 -0.535825 0
    outer loop
      vertex 2.61847 99.6588 19
      vertex 2.95492 100.189 17.5
      vertex 2.95492 100.189 19
    endloop
  endfacet
  facet normal 0.844329 -0.535825 0
    outer loop
      vertex 2.95492 100.189 17.5
      vertex 2.61847 99.6588 19
      vertex 2.61847 99.6588 17.5
    endloop
  endfacet
  facet normal -0.368122 -0.929777 0
    outer loop
      vertex 98.7951 102.005 17.5
      vertex 99.3789 101.774 19
      vertex 98.7951 102.005 19
    endloop
  endfacet
  facet normal -0.368122 -0.929777 -0
    outer loop
      vertex 99.3789 101.774 19
      vertex 98.7951 102.005 17.5
      vertex 99.3789 101.774 17.5
    endloop
  endfacet
  facet normal 0.248697 -0.968581 0
    outer loop
      vertex 5.45492 102.005 17.5
      vertex 6.06309 102.161 19
      vertex 5.45492 102.005 19
    endloop
  endfacet
  facet normal 0.248697 -0.968581 0
    outer loop
      vertex 6.06309 102.161 19
      vertex 5.45492 102.005 17.5
      vertex 6.06309 102.161 17.5
    endloop
  endfacet
  facet normal -0.125333 -0.992115 0
    outer loop
      vertex 97.5639 102.24 17.5
      vertex 98.1869 102.161 19
      vertex 97.5639 102.24 19
    endloop
  endfacet
  facet normal -0.125333 -0.992115 -0
    outer loop
      vertex 98.1869 102.161 19
      vertex 97.5639 102.24 17.5
      vertex 98.1869 102.161 17.5
    endloop
  endfacet
  facet normal 0.125333 -0.992115 0
    outer loop
      vertex 6.06309 102.161 17.5
      vertex 6.68605 102.24 19
      vertex 6.06309 102.161 19
    endloop
  endfacet
  facet normal 0.125333 -0.992115 0
    outer loop
      vertex 6.68605 102.24 19
      vertex 6.06309 102.161 17.5
      vertex 6.68605 102.24 17.5
    endloop
  endfacet
  facet normal 0.368126 -0.929776 0
    outer loop
      vertex 4.8711 101.774 17.5
      vertex 5.45492 102.005 19
      vertex 4.8711 101.774 19
    endloop
  endfacet
  facet normal 0.368126 -0.929776 0
    outer loop
      vertex 5.45492 102.005 19
      vertex 4.8711 101.774 17.5
      vertex 5.45492 102.005 17.5
    endloop
  endfacet
  facet normal -0.904827 -0.425779 0
    outer loop
      vertex 101.899 99.0906 17.5
      vertex 101.632 99.6588 19
      vertex 101.632 99.6588 17.5
    endloop
  endfacet
  facet normal -0.904827 -0.425779 0
    outer loop
      vertex 101.632 99.6588 19
      vertex 101.899 99.0906 17.5
      vertex 101.899 99.0906 19
    endloop
  endfacet
  facet normal -0.24869 0.968583 0
    outer loop
      vertex 98.7951 2.24472 17.5
      vertex 98.1869 2.08856 19
      vertex 98.7951 2.24472 19
    endloop
  endfacet
  facet normal -0.24869 0.968583 0
    outer loop
      vertex 98.1869 2.08856 19
      vertex 98.7951 2.24472 17.5
      vertex 98.1869 2.08856 17.5
    endloop
  endfacet
  facet normal -0.125333 0.992115 0
    outer loop
      vertex 98.1869 2.08856 17.5
      vertex 97.5639 2.00987 19
      vertex 98.1869 2.08856 19
    endloop
  endfacet
  facet normal -0.125333 0.992115 0
    outer loop
      vertex 97.5639 2.00987 19
      vertex 98.1869 2.08856 17.5
      vertex 97.5639 2.00987 17.5
    endloop
  endfacet
  facet normal -0.587783 0.809018 0
    outer loop
      vertex 100.437 3.14743 17.5
      vertex 99.9291 2.77836 19
      vertex 100.437 3.14743 19
    endloop
  endfacet
  facet normal -0.587783 0.809018 0
    outer loop
      vertex 99.9291 2.77836 19
      vertex 100.437 3.14743 17.5
      vertex 99.9291 2.77836 17.5
    endloop
  endfacet
  facet normal 0.951056 0.309018 0
    outer loop
      vertex 2.35112 5.15938 19
      vertex 2.15708 5.75655 17.5
      vertex 2.15708 5.75655 19
    endloop
  endfacet
  facet normal 0.951056 0.309018 0
    outer loop
      vertex 2.15708 5.75655 17.5
      vertex 2.35112 5.15938 19
      vertex 2.35112 5.15938 17.5
    endloop
  endfacet
  facet normal 0.24869 0.968583 -0
    outer loop
      vertex 6.06309 2.08856 17.5
      vertex 5.45492 2.24472 19
      vertex 6.06309 2.08856 19
    endloop
  endfacet
  facet normal 0.24869 0.968583 0
    outer loop
      vertex 5.45492 2.24472 19
      vertex 6.06309 2.08856 17.5
      vertex 5.45492 2.24472 17.5
    endloop
  endfacet
  facet normal 0.481754 0.876307 -0
    outer loop
      vertex 4.8711 2.47587 17.5
      vertex 4.32087 2.77836 19
      vertex 4.8711 2.47587 19
    endloop
  endfacet
  facet normal 0.481754 0.876307 0
    outer loop
      vertex 4.32087 2.77836 19
      vertex 4.8711 2.47587 17.5
      vertex 4.32087 2.77836 17.5
    endloop
  endfacet
  facet normal 0.587785 0.809017 -0
    outer loop
      vertex 4.32087 2.77836 17.5
      vertex 3.81288 3.14743 19
      vertex 4.32087 2.77836 19
    endloop
  endfacet
  facet normal 0.587785 0.809017 0
    outer loop
      vertex 3.81288 3.14743 19
      vertex 4.32087 2.77836 17.5
      vertex 3.81288 3.14743 17.5
    endloop
  endfacet
  facet normal 0.684547 0.728969 -0
    outer loop
      vertex 3.81288 3.14743 17.5
      vertex 3.35516 3.57726 19
      vertex 3.81288 3.14743 19
    endloop
  endfacet
  facet normal 0.684547 0.728969 0
    outer loop
      vertex 3.35516 3.57726 19
      vertex 3.81288 3.14743 17.5
      vertex 3.35516 3.57726 17.5
    endloop
  endfacet
  facet normal 0.982287 -0.187381 0
    outer loop
      vertex 2.03943 97.8767 19
      vertex 2.15708 98.4934 17.5
      vertex 2.15708 98.4934 19
    endloop
  endfacet
  facet normal 0.982287 -0.187381 0
    outer loop
      vertex 2.15708 98.4934 17.5
      vertex 2.03943 97.8767 19
      vertex 2.03943 97.8767 17.5
    endloop
  endfacet
  facet normal -0.844328 -0.535826 0
    outer loop
      vertex 101.632 99.6588 17.5
      vertex 101.295 100.189 19
      vertex 101.295 100.189 17.5
    endloop
  endfacet
  facet normal -0.844328 -0.535826 0
    outer loop
      vertex 101.295 100.189 19
      vertex 101.632 99.6588 17.5
      vertex 101.632 99.6588 19
    endloop
  endfacet
  facet normal -0.684547 -0.728969 0
    outer loop
      vertex 100.437 101.103 17.5
      vertex 100.895 100.673 19
      vertex 100.437 101.103 19
    endloop
  endfacet
  facet normal -0.684547 -0.728969 -0
    outer loop
      vertex 100.895 100.673 19
      vertex 100.437 101.103 17.5
      vertex 100.895 100.673 17.5
    endloop
  endfacet
  facet normal -0.481751 -0.876308 0
    outer loop
      vertex 99.3789 101.774 17.5
      vertex 99.9291 101.472 19
      vertex 99.3789 101.774 19
    endloop
  endfacet
  facet normal -0.481751 -0.876308 -0
    outer loop
      vertex 99.9291 101.472 19
      vertex 99.3789 101.774 17.5
      vertex 99.9291 101.472 17.5
    endloop
  endfacet
  facet normal -0.770517 -0.637419 0
    outer loop
      vertex 101.295 100.189 17.5
      vertex 100.895 100.673 19
      vertex 100.895 100.673 17.5
    endloop
  endfacet
  facet normal -0.770517 -0.637419 0
    outer loop
      vertex 100.895 100.673 19
      vertex 101.295 100.189 17.5
      vertex 101.295 100.189 19
    endloop
  endfacet
  facet normal -0.248697 -0.968581 0
    outer loop
      vertex 98.1869 102.161 17.5
      vertex 98.7951 102.005 19
      vertex 98.1869 102.161 19
    endloop
  endfacet
  facet normal -0.248697 -0.968581 -0
    outer loop
      vertex 98.7951 102.005 19
      vertex 98.1869 102.161 17.5
      vertex 98.7951 102.005 17.5
    endloop
  endfacet
  facet normal 0.481747 -0.87631 0
    outer loop
      vertex 4.32087 101.472 17.5
      vertex 4.8711 101.774 19
      vertex 4.32087 101.472 19
    endloop
  endfacet
  facet normal 0.481747 -0.87631 0
    outer loop
      vertex 4.8711 101.774 19
      vertex 4.32087 101.472 17.5
      vertex 4.8711 101.774 17.5
    endloop
  endfacet
  facet normal -0.951055 -0.309023 0
    outer loop
      vertex 102.093 98.4934 17.5
      vertex 101.899 99.0906 19
      vertex 101.899 99.0906 17.5
    endloop
  endfacet
  facet normal -0.951055 -0.309023 0
    outer loop
      vertex 101.899 99.0906 19
      vertex 102.093 98.4934 17.5
      vertex 102.093 98.4934 19
    endloop
  endfacet
  facet normal 0.844329 0.535826 0
    outer loop
      vertex 2.95492 4.06107 19
      vertex 2.61847 4.59123 17.5
      vertex 2.61847 4.59123 19
    endloop
  endfacet
  facet normal 0.844329 0.535826 0
    outer loop
      vertex 2.61847 4.59123 17.5
      vertex 2.95492 4.06107 19
      vertex 2.95492 4.06107 17.5
    endloop
  endfacet
  facet normal 0.904827 0.425779 0
    outer loop
      vertex 2.61847 4.59123 19
      vertex 2.35112 5.15938 17.5
      vertex 2.35112 5.15938 19
    endloop
  endfacet
  facet normal 0.904827 0.425779 0
    outer loop
      vertex 2.35112 5.15938 17.5
      vertex 2.61847 4.59123 19
      vertex 2.61847 4.59123 17.5
    endloop
  endfacet
  facet normal 0.982287 0.187381 0
    outer loop
      vertex 2.15708 5.75655 19
      vertex 2.03943 6.37333 17.5
      vertex 2.03943 6.37333 19
    endloop
  endfacet
  facet normal 0.982287 0.187381 0
    outer loop
      vertex 2.03943 6.37333 17.5
      vertex 2.15708 5.75655 19
      vertex 2.15708 5.75655 17.5
    endloop
  endfacet
  facet normal 0.998027 0.062791 0
    outer loop
      vertex 2.03943 6.37333 19
      vertex 2 7 17.5
      vertex 2 7 19
    endloop
  endfacet
  facet normal 0.998027 0.062791 0
    outer loop
      vertex 2 7 17.5
      vertex 2.03943 6.37333 19
      vertex 2.03943 6.37333 17.5
    endloop
  endfacet
  facet normal 0.770514 -0.637423 0
    outer loop
      vertex 2.95492 100.189 19
      vertex 3.35516 100.673 17.5
      vertex 3.35516 100.673 19
    endloop
  endfacet
  facet normal 0.770514 -0.637423 0
    outer loop
      vertex 3.35516 100.673 17.5
      vertex 2.95492 100.189 19
      vertex 2.95492 100.189 17.5
    endloop
  endfacet
  facet normal 0.684548 -0.728968 0
    outer loop
      vertex 3.35516 100.673 17.5
      vertex 3.81288 101.103 19
      vertex 3.35516 100.673 19
    endloop
  endfacet
  facet normal 0.684548 -0.728968 0
    outer loop
      vertex 3.81288 101.103 19
      vertex 3.35516 100.673 17.5
      vertex 3.81288 101.103 17.5
    endloop
  endfacet
  facet normal -0.587782 -0.809019 0
    outer loop
      vertex 99.9291 101.472 17.5
      vertex 100.437 101.103 19
      vertex 99.9291 101.472 19
    endloop
  endfacet
  facet normal -0.587782 -0.809019 -0
    outer loop
      vertex 100.437 101.103 19
      vertex 99.9291 101.472 17.5
      vertex 100.437 101.103 17.5
    endloop
  endfacet
  facet normal 1 0 0
    outer loop
      vertex 8.625 2.00987 19
      vertex 8.625 0.00986671 19
      vertex 8.625 2.00987 17.5
    endloop
  endfacet
  facet normal 1 -0 0
    outer loop
      vertex 8.625 2.00987 17.5
      vertex 8.625 4 1
      vertex 8.625 4 17.5
    endloop
  endfacet
  facet normal 1 0 0
    outer loop
      vertex 8.625 0.00986671 0
      vertex 8.625 4 1
      vertex 8.625 2.00987 17.5
    endloop
  endfacet
  facet normal 1 0 0
    outer loop
      vertex 8.625 0.00986671 0
      vertex 8.625 2.00987 17.5
      vertex 8.625 0.00986671 19
    endloop
  endfacet
  facet normal 1 0 0
    outer loop
      vertex 8.625 4 1
      vertex 8.625 0.00986671 0
      vertex 8.625 4 0
    endloop
  endfacet
  facet normal -1 0 0
    outer loop
      vertex 95.625 0.00986671 0
      vertex 95.625 4 1
      vertex 95.625 4 0
    endloop
  endfacet
  facet normal -1 0 0
    outer loop
      vertex 95.625 4 1
      vertex 95.625 2.00987 17.5
      vertex 95.625 4 17.5
    endloop
  endfacet
  facet normal -1 -0 0
    outer loop
      vertex 95.625 4 1
      vertex 95.625 0.00986671 0
      vertex 95.625 2.00987 17.5
    endloop
  endfacet
  facet normal -1 0 0
    outer loop
      vertex 95.625 0.00986671 19
      vertex 95.625 2.00987 17.5
      vertex 95.625 0.00986671 0
    endloop
  endfacet
  facet normal -1 0 0
    outer loop
      vertex 95.625 2.00987 17.5
      vertex 95.625 0.00986671 19
      vertex 95.625 2.00987 19
    endloop
  endfacet
endsolid OpenSCAD_Model
