solid OpenSCAD_Model
  facet normal 1 -0 0
    outer loop
      vertex 105 5 19
      vertex 105 100 0
      vertex 105 100 19
    endloop
  endfacet
  facet normal 1 0 0
    outer loop
      vertex 105 100 0
      vertex 105 5 19
      vertex 105 5 0
    endloop
  endfacet
  facet normal 0 0 1
    outer loop
      vertex 102.649 99.8406 19
      vertex 105 100 19
      vertex 104.961 100.627 19
    endloop
  endfacet
  facet normal 0 0 1
    outer loop
      vertex 105 100 19
      vertex 103 98 19
      vertex 105 5 19
    endloop
  endfacet
  facet normal 0 0 1
    outer loop
      vertex 102.382 100.409 19
      vertex 104.961 100.627 19
      vertex 104.843 101.243 19
    endloop
  endfacet
  facet normal -0 0 1
    outer loop
      vertex 103 7 19
      vertex 105 5 19
      vertex 103 98 19
    endloop
  endfacet
  facet normal 0 0 1
    outer loop
      vertex 102.382 100.409 19
      vertex 104.843 101.243 19
      vertex 104.649 101.841 19
    endloop
  endfacet
  facet normal -0 0 1
    outer loop
      vertex 102.961 6.37333 19
      vertex 105 5 19
      vertex 103 7 19
    endloop
  endfacet
  facet normal 0 0 1
    outer loop
      vertex 102.045 100.939 19
      vertex 104.649 101.841 19
      vertex 104.382 102.409 19
    endloop
  endfacet
  facet normal -0 0 1
    outer loop
      vertex 102.843 5.75655 19
      vertex 105 5 19
      vertex 102.961 6.37333 19
    endloop
  endfacet
  facet normal 0 0 1
    outer loop
      vertex 102.045 100.939 19
      vertex 104.382 102.409 19
      vertex 104.045 102.939 19
    endloop
  endfacet
  facet normal -0 0 1
    outer loop
      vertex 102.649 5.15938 19
      vertex 105 5 19
      vertex 102.843 5.75655 19
    endloop
  endfacet
  facet normal 0 0 1
    outer loop
      vertex 101.645 101.423 19
      vertex 104.045 102.939 19
      vertex 103.645 103.423 19
    endloop
  endfacet
  facet normal 0 0 1
    outer loop
      vertex 105 5 19
      vertex 102.649 5.15938 19
      vertex 104.961 4.37333 19
    endloop
  endfacet
  facet normal 0 0 1
    outer loop
      vertex 101.645 101.423 19
      vertex 103.645 103.423 19
      vertex 103.187 103.853 19
    endloop
  endfacet
  facet normal -0 0 1
    outer loop
      vertex 102.382 4.59123 19
      vertex 104.961 4.37333 19
      vertex 102.649 5.15938 19
    endloop
  endfacet
  facet normal 0 0 1
    outer loop
      vertex 104.961 4.37333 19
      vertex 102.382 4.59123 19
      vertex 104.843 3.75655 19
    endloop
  endfacet
  facet normal 0 0 1
    outer loop
      vertex 105 100 19
      vertex 102.961 98.6267 19
      vertex 103 98 19
    endloop
  endfacet
  facet normal 0 0 1
    outer loop
      vertex 105 100 19
      vertex 102.843 99.2434 19
      vertex 102.961 98.6267 19
    endloop
  endfacet
  facet normal 0 0 1
    outer loop
      vertex 101.187 101.853 19
      vertex 103.187 103.853 19
      vertex 102.679 104.222 19
    endloop
  endfacet
  facet normal 0 0 1
    outer loop
      vertex 105 100 19
      vertex 102.649 99.8406 19
      vertex 102.843 99.2434 19
    endloop
  endfacet
  facet normal 0 0 1
    outer loop
      vertex 104.961 100.627 19
      vertex 102.382 100.409 19
      vertex 102.649 99.8406 19
    endloop
  endfacet
  facet normal 0 0 1
    outer loop
      vertex 101.187 101.853 19
      vertex 102.679 104.222 19
      vertex 102.129 104.524 19
    endloop
  endfacet
  facet normal 0 0 1
    outer loop
      vertex 104.649 101.841 19
      vertex 102.045 100.939 19
      vertex 102.382 100.409 19
    endloop
  endfacet
  facet normal 0 0 1
    outer loop
      vertex 104.045 102.939 19
      vertex 101.645 101.423 19
      vertex 102.045 100.939 19
    endloop
  endfacet
  facet normal 0 0 1
    outer loop
      vertex 100.679 102.222 19
      vertex 102.129 104.524 19
      vertex 101.545 104.755 19
    endloop
  endfacet
  facet normal 0 0 1
    outer loop
      vertex 103.187 103.853 19
      vertex 101.187 101.853 19
      vertex 101.645 101.423 19
    endloop
  endfacet
  facet normal 0 0 1
    outer loop
      vertex 100.129 102.524 19
      vertex 101.545 104.755 19
      vertex 100.937 104.911 19
    endloop
  endfacet
  facet normal 0 0 1
    outer loop
      vertex 102.129 104.524 19
      vertex 100.679 102.222 19
      vertex 101.187 101.853 19
    endloop
  endfacet
  facet normal 0 0 1
    outer loop
      vertex 100.129 102.524 19
      vertex 100.937 104.911 19
      vertex 100.314 104.99 19
    endloop
  endfacet
  facet normal 0 0 1
    outer loop
      vertex 101.545 104.755 19
      vertex 100.129 102.524 19
      vertex 100.679 102.222 19
    endloop
  endfacet
  facet normal 0 0 1
    outer loop
      vertex 100.314 104.99 19
      vertex 99.5451 102.755 19
      vertex 100.129 102.524 19
    endloop
  endfacet
  facet normal 0 0 1
    outer loop
      vertex 100.314 104.99 19
      vertex 98.9369 102.911 19
      vertex 99.5451 102.755 19
    endloop
  endfacet
  facet normal 0 0 1
    outer loop
      vertex 100.314 104.99 19
      vertex 98.3139 102.99 19
      vertex 98.9369 102.911 19
    endloop
  endfacet
  facet normal 0 0 1
    outer loop
      vertex 100.314 104.99 19
      vertex 6.68605 102.99 19
      vertex 98.3139 102.99 19
    endloop
  endfacet
  facet normal -0 0 1
    outer loop
      vertex 4.68605 104.99 19
      vertex 6.68605 102.99 19
      vertex 100.314 104.99 19
    endloop
  endfacet
  facet normal 0 0 1
    outer loop
      vertex 4.68605 104.99 19
      vertex 6.06309 102.911 19
      vertex 6.68605 102.99 19
    endloop
  endfacet
  facet normal 0 0 1
    outer loop
      vertex 4.68605 104.99 19
      vertex 5.45492 102.755 19
      vertex 6.06309 102.911 19
    endloop
  endfacet
  facet normal 0 0 1
    outer loop
      vertex 4.68605 104.99 19
      vertex 4.8711 102.524 19
      vertex 5.45492 102.755 19
    endloop
  endfacet
  facet normal -0 0 1
    outer loop
      vertex 4.06309 104.911 19
      vertex 4.8711 102.524 19
      vertex 4.68605 104.99 19
    endloop
  endfacet
  facet normal -0 0 1
    outer loop
      vertex 3.45492 104.755 19
      vertex 4.8711 102.524 19
      vertex 4.06309 104.911 19
    endloop
  endfacet
  facet normal 0 0 1
    outer loop
      vertex 4.8711 102.524 19
      vertex 3.45492 104.755 19
      vertex 4.32087 102.222 19
    endloop
  endfacet
  facet normal -0 0 1
    outer loop
      vertex 2.8711 104.524 19
      vertex 4.32087 102.222 19
      vertex 3.45492 104.755 19
    endloop
  endfacet
  facet normal 0 0 1
    outer loop
      vertex 4.32087 102.222 19
      vertex 2.8711 104.524 19
      vertex 3.81288 101.853 19
    endloop
  endfacet
  facet normal -0 0 1
    outer loop
      vertex 2.32087 104.222 19
      vertex 3.81288 101.853 19
      vertex 2.8711 104.524 19
    endloop
  endfacet
  facet normal -0 0 1
    outer loop
      vertex 1.81288 103.853 19
      vertex 3.81288 101.853 19
      vertex 2.32087 104.222 19
    endloop
  endfacet
  facet normal 0 0 1
    outer loop
      vertex 3.81288 101.853 19
      vertex 1.81288 103.853 19
      vertex 3.35516 101.423 19
    endloop
  endfacet
  facet normal -0 0 1
    outer loop
      vertex 1.35516 103.423 19
      vertex 3.35516 101.423 19
      vertex 1.81288 103.853 19
    endloop
  endfacet
  facet normal -0 0 1
    outer loop
      vertex 0.954915 102.939 19
      vertex 3.35516 101.423 19
      vertex 1.35516 103.423 19
    endloop
  endfacet
  facet normal 0 0 1
    outer loop
      vertex 3.35516 101.423 19
      vertex 0.954915 102.939 19
      vertex 2.95492 100.939 19
    endloop
  endfacet
  facet normal -0 0 1
    outer loop
      vertex 0.618467 102.409 19
      vertex 2.95492 100.939 19
      vertex 0.954915 102.939 19
    endloop
  endfacet
  facet normal -0 0 1
    outer loop
      vertex 0.351118 101.841 19
      vertex 2.95492 100.939 19
      vertex 0.618467 102.409 19
    endloop
  endfacet
  facet normal -0 0 1
    outer loop
      vertex 0.157084 101.243 19
      vertex 2.61847 100.409 19
      vertex 0.351118 101.841 19
    endloop
  endfacet
  facet normal 0 0 1
    outer loop
      vertex 2.95492 100.939 19
      vertex 0.351118 101.841 19
      vertex 2.61847 100.409 19
    endloop
  endfacet
  facet normal 0 0 1
    outer loop
      vertex 104.843 3.75655 19
      vertex 102.382 4.59123 19
      vertex 104.649 3.15938 19
    endloop
  endfacet
  facet normal -0 0 1
    outer loop
      vertex 102.045 4.06107 19
      vertex 104.649 3.15938 19
      vertex 102.382 4.59123 19
    endloop
  endfacet
  facet normal 0 0 1
    outer loop
      vertex 104.649 3.15938 19
      vertex 102.045 4.06107 19
      vertex 104.382 2.59123 19
    endloop
  endfacet
  facet normal 0 0 1
    outer loop
      vertex 104.382 2.59123 19
      vertex 102.045 4.06107 19
      vertex 104.045 2.06107 19
    endloop
  endfacet
  facet normal -0 0 1
    outer loop
      vertex 101.645 3.57726 19
      vertex 104.045 2.06107 19
      vertex 102.045 4.06107 19
    endloop
  endfacet
  facet normal 0 0 1
    outer loop
      vertex 104.045 2.06107 19
      vertex 101.645 3.57726 19
      vertex 103.645 1.57726 19
    endloop
  endfacet
  facet normal 0 0 1
    outer loop
      vertex 103.645 1.57726 19
      vertex 101.645 3.57726 19
      vertex 103.187 1.14743 19
    endloop
  endfacet
  facet normal -0 0 1
    outer loop
      vertex 101.187 3.14743 19
      vertex 103.187 1.14743 19
      vertex 101.645 3.57726 19
    endloop
  endfacet
  facet normal 0 0 1
    outer loop
      vertex 103.187 1.14743 19
      vertex 101.187 3.14743 19
      vertex 102.679 0.778361 19
    endloop
  endfacet
  facet normal 0 0 1
    outer loop
      vertex 102.679 0.778361 19
      vertex 101.187 3.14743 19
      vertex 102.129 0.475865 19
    endloop
  endfacet
  facet normal -0 0 1
    outer loop
      vertex 100.679 2.77836 19
      vertex 102.129 0.475865 19
      vertex 101.187 3.14743 19
    endloop
  endfacet
  facet normal 0 0 1
    outer loop
      vertex 102.129 0.475865 19
      vertex 100.679 2.77836 19
      vertex 101.545 0.244718 19
    endloop
  endfacet
  facet normal -0 0 1
    outer loop
      vertex 100.129 2.47587 19
      vertex 101.545 0.244718 19
      vertex 100.679 2.77836 19
    endloop
  endfacet
  facet normal 0 0 1
    outer loop
      vertex 101.545 0.244718 19
      vertex 100.129 2.47587 19
      vertex 100.937 0.0885639 19
    endloop
  endfacet
  facet normal 0 0 1
    outer loop
      vertex 100.937 0.0885639 19
      vertex 100.129 2.47587 19
      vertex 100.314 0.00986671 19
    endloop
  endfacet
  facet normal -0 0 1
    outer loop
      vertex 99.5451 2.24472 19
      vertex 100.314 0.00986671 19
      vertex 100.129 2.47587 19
    endloop
  endfacet
  facet normal -0 0 1
    outer loop
      vertex 98.9369 2.08856 19
      vertex 100.314 0.00986671 19
      vertex 99.5451 2.24472 19
    endloop
  endfacet
  facet normal 0 0 1
    outer loop
      vertex 97.5 0.00986671 19
      vertex 98.9369 2.08856 19
      vertex 98.3139 2.00987 19
    endloop
  endfacet
  facet normal 0 0 1
    outer loop
      vertex 97.5 0.00986671 19
      vertex 98.3139 2.00987 19
      vertex 97.5 2.00987 19
    endloop
  endfacet
  facet normal 0 0 1
    outer loop
      vertex 98.9369 2.08856 19
      vertex 97.5 0.00986671 19
      vertex 100.314 0.00986671 19
    endloop
  endfacet
  facet normal -0 0 1
    outer loop
      vertex 6.68605 2.00987 19
      vertex 7.5 0.00986671 19
      vertex 7.5 2.00987 19
    endloop
  endfacet
  facet normal 0 0 1
    outer loop
      vertex 6.06309 2.08856 19
      vertex 7.5 0.00986671 19
      vertex 6.68605 2.00987 19
    endloop
  endfacet
  facet normal 0 0 1
    outer loop
      vertex 4.68605 0.00986671 19
      vertex 6.06309 2.08856 19
      vertex 5.45492 2.24472 19
    endloop
  endfacet
  facet normal 0 0 1
    outer loop
      vertex 4.68605 0.00986671 19
      vertex 5.45492 2.24472 19
      vertex 4.8711 2.47587 19
    endloop
  endfacet
  facet normal 0 0 1
    outer loop
      vertex 6.06309 2.08856 19
      vertex 4.68605 0.00986671 19
      vertex 7.5 0.00986671 19
    endloop
  endfacet
  facet normal 0 0 1
    outer loop
      vertex 3.45492 0.244718 19
      vertex 4.8711 2.47587 19
      vertex 4.32087 2.77836 19
    endloop
  endfacet
  facet normal 0 0 1
    outer loop
      vertex 4.8711 2.47587 19
      vertex 4.06309 0.0885639 19
      vertex 4.68605 0.00986671 19
    endloop
  endfacet
  facet normal 0 0 1
    outer loop
      vertex 2.8711 0.475865 19
      vertex 4.32087 2.77836 19
      vertex 3.81288 3.14743 19
    endloop
  endfacet
  facet normal 0 0 1
    outer loop
      vertex 4.8711 2.47587 19
      vertex 3.45492 0.244718 19
      vertex 4.06309 0.0885639 19
    endloop
  endfacet
  facet normal 0 0 1
    outer loop
      vertex 1.81288 1.14743 19
      vertex 3.81288 3.14743 19
      vertex 3.35516 3.57726 19
    endloop
  endfacet
  facet normal 0 0 1
    outer loop
      vertex 0.954915 2.06107 19
      vertex 3.35516 3.57726 19
      vertex 2.95492 4.06107 19
    endloop
  endfacet
  facet normal 0 0 1
    outer loop
      vertex 4.32087 2.77836 19
      vertex 2.8711 0.475865 19
      vertex 3.45492 0.244718 19
    endloop
  endfacet
  facet normal 0 0 1
    outer loop
      vertex 0.351118 3.15938 19
      vertex 2.95492 4.06107 19
      vertex 2.61847 4.59123 19
    endloop
  endfacet
  facet normal 0 0 1
    outer loop
      vertex 0.0394268 4.37333 19
      vertex 2.61847 4.59123 19
      vertex 2.35112 5.15938 19
    endloop
  endfacet
  facet normal 0 0 1
    outer loop
      vertex 3.81288 3.14743 19
      vertex 2.32087 0.778361 19
      vertex 2.8711 0.475865 19
    endloop
  endfacet
  facet normal 0 0 1
    outer loop
      vertex 0 5 19
      vertex 2.35112 5.15938 19
      vertex 2.15708 5.75655 19
    endloop
  endfacet
  facet normal 0 0 1
    outer loop
      vertex 0 5 19
      vertex 2.15708 5.75655 19
      vertex 2.03943 6.37333 19
    endloop
  endfacet
  facet normal 0 0 1
    outer loop
      vertex 0 5 19
      vertex 2.03943 6.37333 19
      vertex 2 7 19
    endloop
  endfacet
  facet normal 0 0 1
    outer loop
      vertex 3.81288 3.14743 19
      vertex 1.81288 1.14743 19
      vertex 2.32087 0.778361 19
    endloop
  endfacet
  facet normal 0 0 1
    outer loop
      vertex 2 98 19
      vertex 0 100 19
      vertex 2 7 19
    endloop
  endfacet
  facet normal -0 0 1
    outer loop
      vertex 0.0394268 100.627 19
      vertex 2.61847 100.409 19
      vertex 0.157084 101.243 19
    endloop
  endfacet
  facet normal 0 0 1
    outer loop
      vertex 0 5 19
      vertex 2 7 19
      vertex 0 100 19
    endloop
  endfacet
  facet normal 0 0 1
    outer loop
      vertex 2.61847 100.409 19
      vertex 0.0394268 100.627 19
      vertex 2.35112 99.8406 19
    endloop
  endfacet
  facet normal 0 0 1
    outer loop
      vertex 2.35112 5.15938 19
      vertex 0 5 19
      vertex 0.0394268 4.37333 19
    endloop
  endfacet
  facet normal -0 0 1
    outer loop
      vertex 0 100 19
      vertex 2.35112 99.8406 19
      vertex 0.0394268 100.627 19
    endloop
  endfacet
  facet normal 0 0 1
    outer loop
      vertex 3.35516 3.57726 19
      vertex 1.35516 1.57726 19
      vertex 1.81288 1.14743 19
    endloop
  endfacet
  facet normal 0 0 1
    outer loop
      vertex 2.35112 99.8406 19
      vertex 0 100 19
      vertex 2.15708 99.2434 19
    endloop
  endfacet
  facet normal 0 0 1
    outer loop
      vertex 3.35516 3.57726 19
      vertex 0.954915 2.06107 19
      vertex 1.35516 1.57726 19
    endloop
  endfacet
  facet normal 0 0 1
    outer loop
      vertex 2.15708 99.2434 19
      vertex 0 100 19
      vertex 2.03943 98.6267 19
    endloop
  endfacet
  facet normal 0 0 1
    outer loop
      vertex 2.95492 4.06107 19
      vertex 0.618467 2.59123 19
      vertex 0.954915 2.06107 19
    endloop
  endfacet
  facet normal 0 0 1
    outer loop
      vertex 2.03943 98.6267 19
      vertex 0 100 19
      vertex 2 98 19
    endloop
  endfacet
  facet normal 0 0 1
    outer loop
      vertex 2.95492 4.06107 19
      vertex 0.351118 3.15938 19
      vertex 0.618467 2.59123 19
    endloop
  endfacet
  facet normal 0 0 1
    outer loop
      vertex 2.61847 4.59123 19
      vertex 0.157084 3.75655 19
      vertex 0.351118 3.15938 19
    endloop
  endfacet
  facet normal 0 0 1
    outer loop
      vertex 2.61847 4.59123 19
      vertex 0.0394268 4.37333 19
      vertex 0.157084 3.75655 19
    endloop
  endfacet
  facet normal 0 -1 0
    outer loop
      vertex 97.5 0.00986671 0
      vertex 100.314 0.00986671 19
      vertex 97.5 0.00986671 19
    endloop
  endfacet
  facet normal 0 -1 -0
    outer loop
      vertex 100.314 0.00986671 19
      vertex 97.5 0.00986671 0
      vertex 100.314 0.00986671 0
    endloop
  endfacet
  facet normal 0 -1 0
    outer loop
      vertex 4.68605 0.00986671 0
      vertex 7.5 0.00986671 19
      vertex 4.68605 0.00986671 19
    endloop
  endfacet
  facet normal 0 -1 -0
    outer loop
      vertex 7.5 0.00986671 19
      vertex 4.68605 0.00986671 0
      vertex 7.5 0.00986671 0
    endloop
  endfacet
  facet normal 0.684545 -0.72897 0
    outer loop
      vertex 103.187 1.14743 0
      vertex 103.645 1.57726 19
      vertex 103.187 1.14743 19
    endloop
  endfacet
  facet normal 0.684545 -0.72897 0
    outer loop
      vertex 103.645 1.57726 19
      vertex 103.187 1.14743 0
      vertex 103.645 1.57726 0
    endloop
  endfacet
  facet normal -1 0 0
    outer loop
      vertex 0 5 0
      vertex 0 100 19
      vertex 0 100 0
    endloop
  endfacet
  facet normal -1 -0 0
    outer loop
      vertex 0 100 19
      vertex 0 5 0
      vertex 0 5 19
    endloop
  endfacet
  facet normal 0 1 -0
    outer loop
      vertex 100.314 104.99 0
      vertex 4.68605 104.99 19
      vertex 100.314 104.99 19
    endloop
  endfacet
  facet normal 0 1 0
    outer loop
      vertex 4.68605 104.99 19
      vertex 100.314 104.99 0
      vertex 4.68605 104.99 0
    endloop
  endfacet
  facet normal 0.844328 0.535826 0
    outer loop
      vertex 104.382 102.409 19
      vertex 104.045 102.939 0
      vertex 104.045 102.939 19
    endloop
  endfacet
  facet normal 0.844328 0.535826 0
    outer loop
      vertex 104.045 102.939 0
      vertex 104.382 102.409 19
      vertex 104.382 102.409 0
    endloop
  endfacet
  facet normal 0.951054 -0.309024 0
    outer loop
      vertex 104.649 3.15938 19
      vertex 104.843 3.75655 0
      vertex 104.843 3.75655 19
    endloop
  endfacet
  facet normal 0.951054 -0.309024 0
    outer loop
      vertex 104.843 3.75655 0
      vertex 104.649 3.15938 19
      vertex 104.649 3.15938 0
    endloop
  endfacet
  facet normal 0.770516 -0.63742 0
    outer loop
      vertex 103.645 1.57726 19
      vertex 104.045 2.06107 0
      vertex 104.045 2.06107 19
    endloop
  endfacet
  facet normal 0.770516 -0.63742 0
    outer loop
      vertex 104.045 2.06107 0
      vertex 103.645 1.57726 19
      vertex 103.645 1.57726 0
    endloop
  endfacet
  facet normal -0.368126 -0.929776 0
    outer loop
      vertex 2.8711 0.475865 0
      vertex 3.45492 0.244718 19
      vertex 2.8711 0.475865 19
    endloop
  endfacet
  facet normal -0.368126 -0.929776 -0
    outer loop
      vertex 3.45492 0.244718 19
      vertex 2.8711 0.475865 0
      vertex 3.45492 0.244718 0
    endloop
  endfacet
  facet normal -0.770514 0.637423 0
    outer loop
      vertex 0.954915 102.939 0
      vertex 1.35516 103.423 19
      vertex 1.35516 103.423 0
    endloop
  endfacet
  facet normal -0.770514 0.637423 0
    outer loop
      vertex 1.35516 103.423 19
      vertex 0.954915 102.939 0
      vertex 0.954915 102.939 19
    endloop
  endfacet
  facet normal -0.998027 0.0627913 0
    outer loop
      vertex 0 100 0
      vertex 0.0394268 100.627 19
      vertex 0.0394268 100.627 0
    endloop
  endfacet
  facet normal -0.998027 0.0627913 0
    outer loop
      vertex 0.0394268 100.627 19
      vertex 0 100 0
      vertex 0 100 19
    endloop
  endfacet
  facet normal -0.368126 0.929776 0
    outer loop
      vertex 3.45492 104.755 0
      vertex 2.8711 104.524 19
      vertex 3.45492 104.755 19
    endloop
  endfacet
  facet normal -0.368126 0.929776 0
    outer loop
      vertex 2.8711 104.524 19
      vertex 3.45492 104.755 0
      vertex 2.8711 104.524 0
    endloop
  endfacet
  facet normal 0.982289 -0.187374 0
    outer loop
      vertex 104.843 3.75655 19
      vertex 104.961 4.37333 0
      vertex 104.961 4.37333 19
    endloop
  endfacet
  facet normal 0.982289 -0.187374 0
    outer loop
      vertex 104.961 4.37333 0
      vertex 104.843 3.75655 19
      vertex 104.843 3.75655 0
    endloop
  endfacet
  facet normal 0.844328 -0.535827 0
    outer loop
      vertex 104.045 2.06107 19
      vertex 104.382 2.59123 0
      vertex 104.382 2.59123 19
    endloop
  endfacet
  facet normal 0.844328 -0.535827 0
    outer loop
      vertex 104.382 2.59123 0
      vertex 104.045 2.06107 19
      vertex 104.045 2.06107 0
    endloop
  endfacet
  facet normal 0.904827 -0.425779 0
    outer loop
      vertex 104.382 2.59123 19
      vertex 104.649 3.15938 0
      vertex 104.649 3.15938 19
    endloop
  endfacet
  facet normal 0.904827 -0.425779 0
    outer loop
      vertex 104.649 3.15938 0
      vertex 104.382 2.59123 19
      vertex 104.382 2.59123 0
    endloop
  endfacet
  facet normal 0.125333 -0.992115 0
    outer loop
      vertex 100.314 0.00986671 0
      vertex 100.937 0.0885639 19
      vertex 100.314 0.00986671 19
    endloop
  endfacet
  facet normal 0.125333 -0.992115 0
    outer loop
      vertex 100.937 0.0885639 19
      vertex 100.314 0.00986671 0
      vertex 100.937 0.0885639 0
    endloop
  endfacet
  facet normal 0.368122 -0.929777 0
    outer loop
      vertex 101.545 0.244718 0
      vertex 102.129 0.475865 19
      vertex 101.545 0.244718 19
    endloop
  endfacet
  facet normal 0.368122 -0.929777 0
    outer loop
      vertex 102.129 0.475865 19
      vertex 101.545 0.244718 0
      vertex 102.129 0.475865 0
    endloop
  endfacet
  facet normal -0.770513 -0.637424 0
    outer loop
      vertex 1.35516 1.57726 0
      vertex 0.954915 2.06107 19
      vertex 0.954915 2.06107 0
    endloop
  endfacet
  facet normal -0.770513 -0.637424 0
    outer loop
      vertex 0.954915 2.06107 19
      vertex 1.35516 1.57726 0
      vertex 1.35516 1.57726 19
    endloop
  endfacet
  facet normal -0.684548 0.728968 0
    outer loop
      vertex 1.81288 103.853 0
      vertex 1.35516 103.423 19
      vertex 1.81288 103.853 19
    endloop
  endfacet
  facet normal -0.684548 0.728968 0
    outer loop
      vertex 1.35516 103.423 19
      vertex 1.81288 103.853 0
      vertex 1.35516 103.423 0
    endloop
  endfacet
  facet normal -0.904827 0.425779 0
    outer loop
      vertex 0.351118 101.841 0
      vertex 0.618467 102.409 19
      vertex 0.618467 102.409 0
    endloop
  endfacet
  facet normal -0.904827 0.425779 0
    outer loop
      vertex 0.618467 102.409 19
      vertex 0.351118 101.841 0
      vertex 0.351118 101.841 19
    endloop
  endfacet
  facet normal -0.951057 0.309016 0
    outer loop
      vertex 0.157084 101.243 0
      vertex 0.351118 101.841 19
      vertex 0.351118 101.841 0
    endloop
  endfacet
  facet normal -0.951057 0.309016 0
    outer loop
      vertex 0.351118 101.841 19
      vertex 0.157084 101.243 0
      vertex 0.157084 101.243 19
    endloop
  endfacet
  facet normal 0.770517 0.637419 0
    outer loop
      vertex 104.045 102.939 19
      vertex 103.645 103.423 0
      vertex 103.645 103.423 19
    endloop
  endfacet
  facet normal 0.770517 0.637419 0
    outer loop
      vertex 103.645 103.423 0
      vertex 104.045 102.939 19
      vertex 104.045 102.939 0
    endloop
  endfacet
  facet normal 0.368122 0.929777 -0
    outer loop
      vertex 102.129 104.524 0
      vertex 101.545 104.755 19
      vertex 102.129 104.524 19
    endloop
  endfacet
  facet normal 0.368122 0.929777 0
    outer loop
      vertex 101.545 104.755 19
      vertex 102.129 104.524 0
      vertex 101.545 104.755 0
    endloop
  endfacet
  facet normal -0.125333 0.992115 0
    outer loop
      vertex 4.68605 104.99 0
      vertex 4.06309 104.911 19
      vertex 4.68605 104.99 19
    endloop
  endfacet
  facet normal -0.125333 0.992115 0
    outer loop
      vertex 4.06309 104.911 19
      vertex 4.68605 104.99 0
      vertex 4.06309 104.911 0
    endloop
  endfacet
  facet normal -0.248697 0.968581 0
    outer loop
      vertex 4.06309 104.911 0
      vertex 3.45492 104.755 19
      vertex 4.06309 104.911 19
    endloop
  endfacet
  facet normal -0.248697 0.968581 0
    outer loop
      vertex 3.45492 104.755 19
      vertex 4.06309 104.911 0
      vertex 3.45492 104.755 0
    endloop
  endfacet
  facet normal 0.125333 0.992115 -0
    outer loop
      vertex 100.937 104.911 0
      vertex 100.314 104.99 19
      vertex 100.937 104.911 19
    endloop
  endfacet
  facet normal 0.125333 0.992115 0
    outer loop
      vertex 100.314 104.99 19
      vertex 100.937 104.911 0
      vertex 100.314 104.99 0
    endloop
  endfacet
  facet normal 0.951055 0.309023 0
    outer loop
      vertex 104.843 101.243 19
      vertex 104.649 101.841 0
      vertex 104.649 101.841 19
    endloop
  endfacet
  facet normal 0.951055 0.309023 0
    outer loop
      vertex 104.649 101.841 0
      vertex 104.843 101.243 19
      vertex 104.843 101.243 0
    endloop
  endfacet
  facet normal 0.998026 0.0627943 0
    outer loop
      vertex 105 100 19
      vertex 104.961 100.627 0
      vertex 104.961 100.627 19
    endloop
  endfacet
  facet normal 0.998026 0.0627943 0
    outer loop
      vertex 104.961 100.627 0
      vertex 105 100 19
      vertex 105 100 0
    endloop
  endfacet
  facet normal 0.998027 -0.062794 0
    outer loop
      vertex 104.961 4.37333 19
      vertex 105 5 0
      vertex 105 5 19
    endloop
  endfacet
  facet normal 0.998027 -0.062794 0
    outer loop
      vertex 105 5 0
      vertex 104.961 4.37333 19
      vertex 104.961 4.37333 0
    endloop
  endfacet
  facet normal 0.587783 -0.809018 0
    outer loop
      vertex 102.679 0.778361 0
      vertex 103.187 1.14743 19
      vertex 102.679 0.778361 19
    endloop
  endfacet
  facet normal 0.587783 -0.809018 0
    outer loop
      vertex 103.187 1.14743 19
      vertex 102.679 0.778361 0
      vertex 103.187 1.14743 0
    endloop
  endfacet
  facet normal 0.481758 -0.876304 0
    outer loop
      vertex 102.129 0.475865 0
      vertex 102.679 0.778361 19
      vertex 102.129 0.475865 19
    endloop
  endfacet
  facet normal 0.481758 -0.876304 0
    outer loop
      vertex 102.679 0.778361 19
      vertex 102.129 0.475865 0
      vertex 102.679 0.778361 0
    endloop
  endfacet
  facet normal 0.24869 -0.968583 0
    outer loop
      vertex 100.937 0.0885639 0
      vertex 101.545 0.244718 19
      vertex 100.937 0.0885639 19
    endloop
  endfacet
  facet normal 0.24869 -0.968583 0
    outer loop
      vertex 101.545 0.244718 19
      vertex 100.937 0.0885639 0
      vertex 101.545 0.244718 0
    endloop
  endfacet
  facet normal -0.998027 -0.062791 0
    outer loop
      vertex 0.0394268 4.37333 0
      vertex 0 5 19
      vertex 0 5 0
    endloop
  endfacet
  facet normal -0.998027 -0.062791 0
    outer loop
      vertex 0 5 19
      vertex 0.0394268 4.37333 0
      vertex 0.0394268 4.37333 19
    endloop
  endfacet
  facet normal -0.951056 -0.309018 0
    outer loop
      vertex 0.351118 3.15938 0
      vertex 0.157084 3.75655 19
      vertex 0.157084 3.75655 0
    endloop
  endfacet
  facet normal -0.951056 -0.309018 0
    outer loop
      vertex 0.157084 3.75655 19
      vertex 0.351118 3.15938 0
      vertex 0.351118 3.15938 19
    endloop
  endfacet
  facet normal -0.481754 -0.876307 0
    outer loop
      vertex 2.32087 0.778361 0
      vertex 2.8711 0.475865 19
      vertex 2.32087 0.778361 19
    endloop
  endfacet
  facet normal -0.481754 -0.876307 -0
    outer loop
      vertex 2.8711 0.475865 19
      vertex 2.32087 0.778361 0
      vertex 2.8711 0.475865 0
    endloop
  endfacet
  facet normal -0.587785 -0.809017 0
    outer loop
      vertex 1.81288 1.14743 0
      vertex 2.32087 0.778361 19
      vertex 1.81288 1.14743 19
    endloop
  endfacet
  facet normal -0.587785 -0.809017 -0
    outer loop
      vertex 2.32087 0.778361 19
      vertex 1.81288 1.14743 0
      vertex 2.32087 0.778361 0
    endloop
  endfacet
  facet normal -0.684547 -0.728969 0
    outer loop
      vertex 1.35516 1.57726 0
      vertex 1.81288 1.14743 19
      vertex 1.35516 1.57726 19
    endloop
  endfacet
  facet normal -0.684547 -0.728969 -0
    outer loop
      vertex 1.81288 1.14743 19
      vertex 1.35516 1.57726 0
      vertex 1.81288 1.14743 0
    endloop
  endfacet
  facet normal -0.844329 0.535825 0
    outer loop
      vertex 0.618467 102.409 0
      vertex 0.954915 102.939 19
      vertex 0.954915 102.939 0
    endloop
  endfacet
  facet normal -0.844329 0.535825 0
    outer loop
      vertex 0.954915 102.939 19
      vertex 0.618467 102.409 0
      vertex 0.618467 102.409 19
    endloop
  endfacet
  facet normal -0.982287 0.187381 0
    outer loop
      vertex 0.0394268 100.627 0
      vertex 0.157084 101.243 19
      vertex 0.157084 101.243 0
    endloop
  endfacet
  facet normal -0.982287 0.187381 0
    outer loop
      vertex 0.157084 101.243 19
      vertex 0.0394268 100.627 0
      vertex 0.0394268 100.627 19
    endloop
  endfacet
  facet normal 0.904827 0.425779 0
    outer loop
      vertex 104.649 101.841 19
      vertex 104.382 102.409 0
      vertex 104.382 102.409 19
    endloop
  endfacet
  facet normal 0.904827 0.425779 0
    outer loop
      vertex 104.382 102.409 0
      vertex 104.649 101.841 19
      vertex 104.649 101.841 0
    endloop
  endfacet
  facet normal 0.684547 0.728969 -0
    outer loop
      vertex 103.645 103.423 0
      vertex 103.187 103.853 19
      vertex 103.645 103.423 19
    endloop
  endfacet
  facet normal 0.684547 0.728969 0
    outer loop
      vertex 103.187 103.853 19
      vertex 103.645 103.423 0
      vertex 103.187 103.853 0
    endloop
  endfacet
  facet normal 0.481751 0.876308 -0
    outer loop
      vertex 102.679 104.222 0
      vertex 102.129 104.524 19
      vertex 102.679 104.222 19
    endloop
  endfacet
  facet normal 0.481751 0.876308 0
    outer loop
      vertex 102.129 104.524 19
      vertex 102.679 104.222 0
      vertex 102.129 104.524 0
    endloop
  endfacet
  facet normal -0.587784 0.809018 0
    outer loop
      vertex 2.32087 104.222 0
      vertex 1.81288 103.853 19
      vertex 2.32087 104.222 19
    endloop
  endfacet
  facet normal -0.587784 0.809018 0
    outer loop
      vertex 1.81288 103.853 19
      vertex 2.32087 104.222 0
      vertex 1.81288 103.853 0
    endloop
  endfacet
  facet normal 0.248697 0.968581 -0
    outer loop
      vertex 101.545 104.755 0
      vertex 100.937 104.911 19
      vertex 101.545 104.755 19
    endloop
  endfacet
  facet normal 0.248697 0.968581 0
    outer loop
      vertex 100.937 104.911 19
      vertex 101.545 104.755 0
      vertex 100.937 104.911 0
    endloop
  endfacet
  facet normal 0.982289 0.187374 0
    outer loop
      vertex 104.961 100.627 19
      vertex 104.843 101.243 0
      vertex 104.843 101.243 19
    endloop
  endfacet
  facet normal 0.982289 0.187374 0
    outer loop
      vertex 104.843 101.243 0
      vertex 104.961 100.627 19
      vertex 104.961 100.627 0
    endloop
  endfacet
  facet normal 0 0 -1
    outer loop
      vertex 7.5 0.00986671 0
      vertex 4.68605 0.00986671 0
      vertex 7.5 4 0
    endloop
  endfacet
  facet normal 0 0 -1
    outer loop
      vertex 13.5 4 0
      vertex 7.5 4 0
      vertex 13.5 95 0
    endloop
  endfacet
  facet normal 0 0 -1
    outer loop
      vertex 97.5 4 0
      vertex 105 5 0
      vertex 104.961 4.37333 0
    endloop
  endfacet
  facet normal 0 0 -1
    outer loop
      vertex 105 5 0
      vertex 91.5 95 0
      vertex 105 100 0
    endloop
  endfacet
  facet normal 0 0 -1
    outer loop
      vertex 97.5 4 0
      vertex 104.961 4.37333 0
      vertex 104.843 3.75655 0
    endloop
  endfacet
  facet normal 0 -0 -1
    outer loop
      vertex 100.314 104.99 0
      vertex 105 100 0
      vertex 91.5 95 0
    endloop
  endfacet
  facet normal 0 0 -1
    outer loop
      vertex 97.5 4 0
      vertex 104.843 3.75655 0
      vertex 104.649 3.15938 0
    endloop
  endfacet
  facet normal 0 0 -1
    outer loop
      vertex 105 100 0
      vertex 100.314 104.99 0
      vertex 104.961 100.627 0
    endloop
  endfacet
  facet normal 0 0 -1
    outer loop
      vertex 97.5 4 0
      vertex 104.649 3.15938 0
      vertex 104.382 2.59123 0
    endloop
  endfacet
  facet normal 0 0 -1
    outer loop
      vertex 104.961 100.627 0
      vertex 100.314 104.99 0
      vertex 104.843 101.243 0
    endloop
  endfacet
  facet normal 0 0 -1
    outer loop
      vertex 97.5 4 0
      vertex 104.382 2.59123 0
      vertex 104.045 2.06107 0
    endloop
  endfacet
  facet normal 0 0 -1
    outer loop
      vertex 104.843 101.243 0
      vertex 100.314 104.99 0
      vertex 104.649 101.841 0
    endloop
  endfacet
  facet normal 0 0 -1
    outer loop
      vertex 97.5 4 0
      vertex 104.045 2.06107 0
      vertex 103.645 1.57726 0
    endloop
  endfacet
  facet normal 0 0 -1
    outer loop
      vertex 104.649 101.841 0
      vertex 100.314 104.99 0
      vertex 104.382 102.409 0
    endloop
  endfacet
  facet normal 0 0 -1
    outer loop
      vertex 97.5 4 0
      vertex 103.645 1.57726 0
      vertex 103.187 1.14743 0
    endloop
  endfacet
  facet normal 0 0 -1
    outer loop
      vertex 104.382 102.409 0
      vertex 100.314 104.99 0
      vertex 104.045 102.939 0
    endloop
  endfacet
  facet normal 0 0 -1
    outer loop
      vertex 97.5 4 0
      vertex 103.187 1.14743 0
      vertex 102.679 0.778361 0
    endloop
  endfacet
  facet normal 0 0 -1
    outer loop
      vertex 104.045 102.939 0
      vertex 100.314 104.99 0
      vertex 103.645 103.423 0
    endloop
  endfacet
  facet normal 0 0 -1
    outer loop
      vertex 97.5 4 0
      vertex 102.679 0.778361 0
      vertex 102.129 0.475865 0
    endloop
  endfacet
  facet normal -0 0 -1
    outer loop
      vertex 105 5 0
      vertex 97.5 4 0
      vertex 91.5 95 0
    endloop
  endfacet
  facet normal 0 0 -1
    outer loop
      vertex 97.5 4 0
      vertex 102.129 0.475865 0
      vertex 101.545 0.244718 0
    endloop
  endfacet
  facet normal 0 0 -1
    outer loop
      vertex 103.645 103.423 0
      vertex 100.314 104.99 0
      vertex 103.187 103.853 0
    endloop
  endfacet
  facet normal 0 0 -1
    outer loop
      vertex 97.5 4 0
      vertex 101.545 0.244718 0
      vertex 100.937 0.0885639 0
    endloop
  endfacet
  facet normal 0 0 -1
    outer loop
      vertex 103.187 103.853 0
      vertex 100.314 104.99 0
      vertex 102.679 104.222 0
    endloop
  endfacet
  facet normal 0 0 -1
    outer loop
      vertex 97.5 4 0
      vertex 100.937 0.0885639 0
      vertex 100.314 0.00986671 0
    endloop
  endfacet
  facet normal 0 0 -1
    outer loop
      vertex 102.679 104.222 0
      vertex 100.314 104.99 0
      vertex 102.129 104.524 0
    endloop
  endfacet
  facet normal 0 0 -1
    outer loop
      vertex 97.5 4 0
      vertex 100.314 0.00986671 0
      vertex 97.5 0.00986671 0
    endloop
  endfacet
  facet normal 0 0 -1
    outer loop
      vertex 102.129 104.524 0
      vertex 100.314 104.99 0
      vertex 101.545 104.755 0
    endloop
  endfacet
  facet normal 0 0 -1
    outer loop
      vertex 91.5 95 0
      vertex 97.5 4 0
      vertex 91.5 4 0
    endloop
  endfacet
  facet normal 0 0 -1
    outer loop
      vertex 101.545 104.755 0
      vertex 100.314 104.99 0
      vertex 100.937 104.911 0
    endloop
  endfacet
  facet normal 0 0 -1
    outer loop
      vertex 13.5 95 0
      vertex 100.314 104.99 0
      vertex 91.5 95 0
    endloop
  endfacet
  facet normal 0 0 -1
    outer loop
      vertex 4.06309 0.0885639 0
      vertex 7.5 4 0
      vertex 4.68605 0.00986671 0
    endloop
  endfacet
  facet normal 0 0 -1
    outer loop
      vertex 13.5 95 0
      vertex 4.68605 104.99 0
      vertex 100.314 104.99 0
    endloop
  endfacet
  facet normal 0 0 -1
    outer loop
      vertex 7.5 4 0
      vertex 0 5 0
      vertex 13.5 95 0
    endloop
  endfacet
  facet normal 0 0 -1
    outer loop
      vertex 3.45492 0.244718 0
      vertex 7.5 4 0
      vertex 4.06309 0.0885639 0
    endloop
  endfacet
  facet normal 0 0 -1
    outer loop
      vertex 0 100 0
      vertex 13.5 95 0
      vertex 0 5 0
    endloop
  endfacet
  facet normal 0 0 -1
    outer loop
      vertex 2.8711 0.475865 0
      vertex 7.5 4 0
      vertex 3.45492 0.244718 0
    endloop
  endfacet
  facet normal 0 0 -1
    outer loop
      vertex 13.5 95 0
      vertex 0 100 0
      vertex 4.68605 104.99 0
    endloop
  endfacet
  facet normal 0 0 -1
    outer loop
      vertex 2.32087 0.778361 0
      vertex 7.5 4 0
      vertex 2.8711 0.475865 0
    endloop
  endfacet
  facet normal 0 0 -1
    outer loop
      vertex 4.68605 104.99 0
      vertex 0 100 0
      vertex 4.06309 104.911 0
    endloop
  endfacet
  facet normal 0 0 -1
    outer loop
      vertex 1.81288 1.14743 0
      vertex 7.5 4 0
      vertex 2.32087 0.778361 0
    endloop
  endfacet
  facet normal 0 0 -1
    outer loop
      vertex 4.06309 104.911 0
      vertex 0 100 0
      vertex 3.45492 104.755 0
    endloop
  endfacet
  facet normal 0 0 -1
    outer loop
      vertex 1.35516 1.57726 0
      vertex 7.5 4 0
      vertex 1.81288 1.14743 0
    endloop
  endfacet
  facet normal 0 0 -1
    outer loop
      vertex 3.45492 104.755 0
      vertex 0 100 0
      vertex 2.8711 104.524 0
    endloop
  endfacet
  facet normal 0 0 -1
    outer loop
      vertex 0.954915 2.06107 0
      vertex 7.5 4 0
      vertex 1.35516 1.57726 0
    endloop
  endfacet
  facet normal 0 0 -1
    outer loop
      vertex 2.8711 104.524 0
      vertex 0 100 0
      vertex 2.32087 104.222 0
    endloop
  endfacet
  facet normal 0 0 -1
    outer loop
      vertex 0.618467 2.59123 0
      vertex 7.5 4 0
      vertex 0.954915 2.06107 0
    endloop
  endfacet
  facet normal 0 0 -1
    outer loop
      vertex 2.32087 104.222 0
      vertex 0 100 0
      vertex 1.81288 103.853 0
    endloop
  endfacet
  facet normal 0 0 -1
    outer loop
      vertex 0.351118 3.15938 0
      vertex 7.5 4 0
      vertex 0.618467 2.59123 0
    endloop
  endfacet
  facet normal 0 0 -1
    outer loop
      vertex 1.81288 103.853 0
      vertex 0 100 0
      vertex 1.35516 103.423 0
    endloop
  endfacet
  facet normal 0 0 -1
    outer loop
      vertex 0.157084 3.75655 0
      vertex 7.5 4 0
      vertex 0.351118 3.15938 0
    endloop
  endfacet
  facet normal 0 0 -1
    outer loop
      vertex 1.35516 103.423 0
      vertex 0 100 0
      vertex 0.954915 102.939 0
    endloop
  endfacet
  facet normal 0 0 -1
    outer loop
      vertex 0.0394268 4.37333 0
      vertex 7.5 4 0
      vertex 0.157084 3.75655 0
    endloop
  endfacet
  facet normal 0 0 -1
    outer loop
      vertex 0.954915 102.939 0
      vertex 0 100 0
      vertex 0.618467 102.409 0
    endloop
  endfacet
  facet normal 0 0 -1
    outer loop
      vertex 7.5 4 0
      vertex 0.0394268 4.37333 0
      vertex 0 5 0
    endloop
  endfacet
  facet normal 0 0 -1
    outer loop
      vertex 0.618467 102.409 0
      vertex 0 100 0
      vertex 0.351118 101.841 0
    endloop
  endfacet
  facet normal 0 0 -1
    outer loop
      vertex 0.351118 101.841 0
      vertex 0 100 0
      vertex 0.157084 101.243 0
    endloop
  endfacet
  facet normal 0 0 -1
    outer loop
      vertex 0.157084 101.243 0
      vertex 0 100 0
      vertex 0.0394268 100.627 0
    endloop
  endfacet
  facet normal -0.982287 -0.187381 0
    outer loop
      vertex 0.157084 3.75655 0
      vertex 0.0394268 4.37333 19
      vertex 0.0394268 4.37333 0
    endloop
  endfacet
  facet normal -0.982287 -0.187381 0
    outer loop
      vertex 0.0394268 4.37333 19
      vertex 0.157084 3.75655 0
      vertex 0.157084 3.75655 19
    endloop
  endfacet
  facet normal -0.844329 -0.535826 0
    outer loop
      vertex 0.954915 2.06107 0
      vertex 0.618467 2.59123 19
      vertex 0.618467 2.59123 0
    endloop
  endfacet
  facet normal -0.844329 -0.535826 0
    outer loop
      vertex 0.618467 2.59123 19
      vertex 0.954915 2.06107 0
      vertex 0.954915 2.06107 19
    endloop
  endfacet
  facet normal -0.904827 -0.425779 0
    outer loop
      vertex 0.618467 2.59123 0
      vertex 0.351118 3.15938 19
      vertex 0.351118 3.15938 0
    endloop
  endfacet
  facet normal -0.904827 -0.425779 0
    outer loop
      vertex 0.351118 3.15938 19
      vertex 0.618467 2.59123 0
      vertex 0.618467 2.59123 19
    endloop
  endfacet
  facet normal -0.125333 -0.992115 0
    outer loop
      vertex 4.06309 0.0885639 0
      vertex 4.68605 0.00986671 19
      vertex 4.06309 0.0885639 19
    endloop
  endfacet
  facet normal -0.125333 -0.992115 -0
    outer loop
      vertex 4.68605 0.00986671 19
      vertex 4.06309 0.0885639 0
      vertex 4.68605 0.00986671 0
    endloop
  endfacet
  facet normal -0.24869 -0.968583 0
    outer loop
      vertex 3.45492 0.244718 0
      vertex 4.06309 0.0885639 19
      vertex 3.45492 0.244718 19
    endloop
  endfacet
  facet normal -0.24869 -0.968583 -0
    outer loop
      vertex 4.06309 0.0885639 19
      vertex 3.45492 0.244718 0
      vertex 4.06309 0.0885639 0
    endloop
  endfacet
  facet normal 0.587782 0.809019 -0
    outer loop
      vertex 103.187 103.853 0
      vertex 102.679 104.222 19
      vertex 103.187 103.853 19
    endloop
  endfacet
  facet normal 0.587782 0.809019 0
    outer loop
      vertex 102.679 104.222 19
      vertex 103.187 103.853 0
      vertex 102.679 104.222 0
    endloop
  endfacet
  facet normal -0.481747 0.87631 0
    outer loop
      vertex 2.8711 104.524 0
      vertex 2.32087 104.222 19
      vertex 2.8711 104.524 19
    endloop
  endfacet
  facet normal -0.481747 0.87631 0
    outer loop
      vertex 2.32087 104.222 19
      vertex 2.8711 104.524 0
      vertex 2.32087 104.222 0
    endloop
  endfacet
  facet normal 1 0 0
    outer loop
      vertex 6 91.5 17.5
      vertex 6 13.5 17.5
      vertex 6 91.5 15.9
    endloop
  endfacet
  facet normal 1 -0 0
    outer loop
      vertex 6 91.5 15.9
      vertex 6 101 1
      vertex 6 101 15.9
    endloop
  endfacet
  facet normal 1 0 0
    outer loop
      vertex 6 13.5 15.9
      vertex 6 91.5 15.9
      vertex 6 13.5 17.5
    endloop
  endfacet
  facet normal 1 0 0
    outer loop
      vertex 6 91.5 15.9
      vertex 6 13.5 15.9
      vertex 6 101 1
    endloop
  endfacet
  facet normal 1 0 0
    outer loop
      vertex 6 4 1
      vertex 6 13.5 15.9
      vertex 6 4 15.9
    endloop
  endfacet
  facet normal 1 0 0
    outer loop
      vertex 6 13.5 15.9
      vertex 6 4 1
      vertex 6 101 1
    endloop
  endfacet
  facet normal -1 0 0
    outer loop
      vertex 99 101 1
      vertex 99 91.5 15.9
      vertex 99 101 15.9
    endloop
  endfacet
  facet normal -1 0 0
    outer loop
      vertex 99 91.5 15.9
      vertex 99 13.5 15.9
      vertex 99 91.5 17.5
    endloop
  endfacet
  facet normal -1 0 0
    outer loop
      vertex 99 101 1
      vertex 99 13.5 15.9
      vertex 99 91.5 15.9
    endloop
  endfacet
  facet normal -1 0 0
    outer loop
      vertex 99 4 1
      vertex 99 13.5 15.9
      vertex 99 101 1
    endloop
  endfacet
  facet normal -1 -0 0
    outer loop
      vertex 99 13.5 15.9
      vertex 99 4 1
      vertex 99 4 15.9
    endloop
  endfacet
  facet normal -1 -0 0
    outer loop
      vertex 99 91.5 17.5
      vertex 99 13.5 15.9
      vertex 99 13.5 17.5
    endloop
  endfacet
  facet normal -0 0 1
    outer loop
      vertex 91.5 95 1
      vertex 99 4 1
      vertex 99 101 1
    endloop
  endfacet
  facet normal 0 0 1
    outer loop
      vertex 99 4 1
      vertex 91.5 95 1
      vertex 97.5 4 1
    endloop
  endfacet
  facet normal 0 0 1
    outer loop
      vertex 99 101 1
      vertex 13.5 95 1
      vertex 91.5 95 1
    endloop
  endfacet
  facet normal 0 0 1
    outer loop
      vertex 13.5 95 1
      vertex 7.5 4 1
      vertex 13.5 4 1
    endloop
  endfacet
  facet normal -0 0 1
    outer loop
      vertex 6 101 1
      vertex 13.5 95 1
      vertex 99 101 1
    endloop
  endfacet
  facet normal 0 0 1
    outer loop
      vertex 6 4 1
      vertex 13.5 95 1
      vertex 6 101 1
    endloop
  endfacet
  facet normal 0 0 1
    outer loop
      vertex 13.5 95 1
      vertex 6 4 1
      vertex 7.5 4 1
    endloop
  endfacet
  facet normal 0 0 1
    outer loop
      vertex 97.5 4 1
      vertex 91.5 95 1
      vertex 91.5 4 1
    endloop
  endfacet
  facet normal 0 1 -0
    outer loop
      vertex 7.5 4 1
      vertex 6 4 15.9
      vertex 7.5 4 15.9
    endloop
  endfacet
  facet normal 0 1 0
    outer loop
      vertex 6 4 15.9
      vertex 7.5 4 1
      vertex 6 4 1
    endloop
  endfacet
  facet normal 0 1 -0
    outer loop
      vertex 99 4 1
      vertex 97.5 4 15.9
      vertex 99 4 15.9
    endloop
  endfacet
  facet normal 0 1 0
    outer loop
      vertex 97.5 4 15.9
      vertex 99 4 1
      vertex 97.5 4 1
    endloop
  endfacet
  facet normal 0 -1 0
    outer loop
      vertex 7.5 4 0
      vertex 13.5 4 1
      vertex 7.5 4 1
    endloop
  endfacet
  facet normal 0 -1 -0
    outer loop
      vertex 13.5 4 1
      vertex 7.5 4 0
      vertex 13.5 4 0
    endloop
  endfacet
  facet normal 0 -1 0
    outer loop
      vertex 91.5 4 0
      vertex 97.5 4 1
      vertex 91.5 4 1
    endloop
  endfacet
  facet normal 0 -1 -0
    outer loop
      vertex 97.5 4 1
      vertex 91.5 4 0
      vertex 97.5 4 0
    endloop
  endfacet
  facet normal 0 -1 0
    outer loop
      vertex 6 101 1
      vertex 13.5 101 15.9
      vertex 6 101 15.9
    endloop
  endfacet
  facet normal 0 -1 -0
    outer loop
      vertex 13.5 101 15.9
      vertex 6 101 1
      vertex 30.5 101 15.9
    endloop
  endfacet
  facet normal 0 -1 -0
    outer loop
      vertex 30.5 101 15.9
      vertex 6 101 1
      vertex 74.5 101 15.9
    endloop
  endfacet
  facet normal 0 -1 0
    outer loop
      vertex 99 101 1
      vertex 74.5 101 15.9
      vertex 6 101 1
    endloop
  endfacet
  facet normal 0 -1 0
    outer loop
      vertex 74.5 101 15.9
      vertex 99 101 1
      vertex 91.5 101 15.9
    endloop
  endfacet
  facet normal 0 -1 0
    outer loop
      vertex 91.5 101 15.9
      vertex 99 101 1
      vertex 99 101 15.9
    endloop
  endfacet
  facet normal 0 -1 0
    outer loop
      vertex 13.5 101 15.9
      vertex 30.5 101 17.5
      vertex 13.5 101 17.5
    endloop
  endfacet
  facet normal 0 -1 -0
    outer loop
      vertex 30.5 101 17.5
      vertex 13.5 101 15.9
      vertex 30.5 101 15.9
    endloop
  endfacet
  facet normal 0 -1 0
    outer loop
      vertex 74.5 101 15.9
      vertex 91.5 101 17.5
      vertex 74.5 101 17.5
    endloop
  endfacet
  facet normal 0 -1 -0
    outer loop
      vertex 91.5 101 17.5
      vertex 74.5 101 15.9
      vertex 91.5 101 15.9
    endloop
  endfacet
  facet normal 1 -0 0
    outer loop
      vertex 13.5 4 1
      vertex 13.5 95 0
      vertex 13.5 95 1
    endloop
  endfacet
  facet normal 1 0 0
    outer loop
      vertex 13.5 95 0
      vertex 13.5 4 1
      vertex 13.5 4 0
    endloop
  endfacet
  facet normal -1 0 0
    outer loop
      vertex 91.5 4 0
      vertex 91.5 95 1
      vertex 91.5 95 0
    endloop
  endfacet
  facet normal -1 -0 0
    outer loop
      vertex 91.5 95 1
      vertex 91.5 4 0
      vertex 91.5 4 1
    endloop
  endfacet
  facet normal 0 -1 0
    outer loop
      vertex 13.5 95 0
      vertex 91.5 95 1
      vertex 13.5 95 1
    endloop
  endfacet
  facet normal 0 -1 -0
    outer loop
      vertex 91.5 95 1
      vertex 13.5 95 0
      vertex 91.5 95 0
    endloop
  endfacet
  facet normal -1 0 0
    outer loop
      vertex 103 7 17.5
      vertex 103 98 19
      vertex 103 98 17.5
    endloop
  endfacet
  facet normal -1 -0 0
    outer loop
      vertex 103 98 19
      vertex 103 7 17.5
      vertex 103 7 19
    endloop
  endfacet
  facet normal -0.998027 0.062794 0
    outer loop
      vertex 102.961 6.37333 17.5
      vertex 103 7 19
      vertex 103 7 17.5
    endloop
  endfacet
  facet normal -0.998027 0.062794 0
    outer loop
      vertex 103 7 19
      vertex 102.961 6.37333 17.5
      vertex 102.961 6.37333 19
    endloop
  endfacet
  facet normal 1 -0 0
    outer loop
      vertex 2 7 19
      vertex 2 98 17.5
      vertex 2 98 19
    endloop
  endfacet
  facet normal 1 0 0
    outer loop
      vertex 2 98 17.5
      vertex 2 7 19
      vertex 2 7 17.5
    endloop
  endfacet
  facet normal -0.125333 0.992115 0
    outer loop
      vertex 98.9369 2.08856 17.5
      vertex 98.3139 2.00987 19
      vertex 98.9369 2.08856 19
    endloop
  endfacet
  facet normal -0.125333 0.992115 0
    outer loop
      vertex 98.3139 2.00987 19
      vertex 98.9369 2.08856 17.5
      vertex 98.3139 2.00987 17.5
    endloop
  endfacet
  facet normal 0 1 -0
    outer loop
      vertex 7.5 2.00987 17.5
      vertex 6.68605 2.00987 19
      vertex 7.5 2.00987 19
    endloop
  endfacet
  facet normal 0 1 0
    outer loop
      vertex 6.68605 2.00987 19
      vertex 7.5 2.00987 17.5
      vertex 6.68605 2.00987 17.5
    endloop
  endfacet
  facet normal 0 1 -0
    outer loop
      vertex 98.3139 2.00987 17.5
      vertex 97.5 2.00987 19
      vertex 98.3139 2.00987 19
    endloop
  endfacet
  facet normal 0 1 0
    outer loop
      vertex 97.5 2.00987 19
      vertex 98.3139 2.00987 17.5
      vertex 97.5 2.00987 17.5
    endloop
  endfacet
  facet normal -0.770516 0.63742 0
    outer loop
      vertex 101.645 3.57726 17.5
      vertex 102.045 4.06107 19
      vertex 102.045 4.06107 17.5
    endloop
  endfacet
  facet normal -0.770516 0.63742 0
    outer loop
      vertex 102.045 4.06107 19
      vertex 101.645 3.57726 17.5
      vertex 101.645 3.57726 19
    endloop
  endfacet
  facet normal 0.587784 -0.809018 0
    outer loop
      vertex 3.81288 101.853 17.5
      vertex 4.32087 102.222 19
      vertex 3.81288 101.853 19
    endloop
  endfacet
  facet normal 0.587784 -0.809018 0
    outer loop
      vertex 4.32087 102.222 19
      vertex 3.81288 101.853 17.5
      vertex 4.32087 102.222 17.5
    endloop
  endfacet
  facet normal -0.951054 0.309024 0
    outer loop
      vertex 102.649 5.15938 17.5
      vertex 102.843 5.75655 19
      vertex 102.843 5.75655 17.5
    endloop
  endfacet
  facet normal -0.951054 0.309024 0
    outer loop
      vertex 102.843 5.75655 19
      vertex 102.649 5.15938 17.5
      vertex 102.649 5.15938 19
    endloop
  endfacet
  facet normal -0.684545 0.72897 0
    outer loop
      vertex 101.645 3.57726 17.5
      vertex 101.187 3.14743 19
      vertex 101.645 3.57726 19
    endloop
  endfacet
  facet normal -0.684545 0.72897 0
    outer loop
      vertex 101.187 3.14743 19
      vertex 101.645 3.57726 17.5
      vertex 101.187 3.14743 17.5
    endloop
  endfacet
  facet normal 0.125333 0.992115 -0
    outer loop
      vertex 6.68605 2.00987 17.5
      vertex 6.06309 2.08856 19
      vertex 6.68605 2.00987 19
    endloop
  endfacet
  facet normal 0.125333 0.992115 0
    outer loop
      vertex 6.06309 2.08856 19
      vertex 6.68605 2.00987 17.5
      vertex 6.06309 2.08856 17.5
    endloop
  endfacet
  facet normal -0.982289 0.187374 0
    outer loop
      vertex 102.843 5.75655 17.5
      vertex 102.961 6.37333 19
      vertex 102.961 6.37333 17.5
    endloop
  endfacet
  facet normal -0.982289 0.187374 0
    outer loop
      vertex 102.961 6.37333 19
      vertex 102.843 5.75655 17.5
      vertex 102.843 5.75655 19
    endloop
  endfacet
  facet normal 0.998027 -0.0627913 0
    outer loop
      vertex 2 98 19
      vertex 2.03943 98.6267 17.5
      vertex 2.03943 98.6267 19
    endloop
  endfacet
  facet normal 0.998027 -0.0627913 0
    outer loop
      vertex 2.03943 98.6267 17.5
      vertex 2 98 19
      vertex 2 98 17.5
    endloop
  endfacet
  facet normal 0.904827 -0.425779 0
    outer loop
      vertex 2.35112 99.8406 19
      vertex 2.61847 100.409 17.5
      vertex 2.61847 100.409 19
    endloop
  endfacet
  facet normal 0.904827 -0.425779 0
    outer loop
      vertex 2.61847 100.409 17.5
      vertex 2.35112 99.8406 19
      vertex 2.35112 99.8406 17.5
    endloop
  endfacet
  facet normal 0 -1 0
    outer loop
      vertex 6.68605 102.99 17.5
      vertex 98.3139 102.99 19
      vertex 6.68605 102.99 19
    endloop
  endfacet
  facet normal 0 -1 -0
    outer loop
      vertex 98.3139 102.99 19
      vertex 6.68605 102.99 17.5
      vertex 98.3139 102.99 17.5
    endloop
  endfacet
  facet normal -0.982289 -0.187374 0
    outer loop
      vertex 102.961 98.6267 17.5
      vertex 102.843 99.2434 19
      vertex 102.843 99.2434 17.5
    endloop
  endfacet
  facet normal -0.982289 -0.187374 0
    outer loop
      vertex 102.843 99.2434 19
      vertex 102.961 98.6267 17.5
      vertex 102.961 98.6267 19
    endloop
  endfacet
  facet normal -0.951055 -0.309023 0
    outer loop
      vertex 102.843 99.2434 17.5
      vertex 102.649 99.8406 19
      vertex 102.649 99.8406 17.5
    endloop
  endfacet
  facet normal -0.951055 -0.309023 0
    outer loop
      vertex 102.649 99.8406 19
      vertex 102.843 99.2434 17.5
      vertex 102.843 99.2434 19
    endloop
  endfacet
  facet normal -0.844328 0.535827 0
    outer loop
      vertex 102.045 4.06107 17.5
      vertex 102.382 4.59123 19
      vertex 102.382 4.59123 17.5
    endloop
  endfacet
  facet normal -0.844328 0.535827 0
    outer loop
      vertex 102.382 4.59123 19
      vertex 102.045 4.06107 17.5
      vertex 102.045 4.06107 19
    endloop
  endfacet
  facet normal -0.904827 0.425779 0
    outer loop
      vertex 102.382 4.59123 17.5
      vertex 102.649 5.15938 19
      vertex 102.649 5.15938 17.5
    endloop
  endfacet
  facet normal -0.904827 0.425779 0
    outer loop
      vertex 102.649 5.15938 19
      vertex 102.382 4.59123 17.5
      vertex 102.382 4.59123 19
    endloop
  endfacet
  facet normal -0.368122 0.929777 0
    outer loop
      vertex 100.129 2.47587 17.5
      vertex 99.5451 2.24472 19
      vertex 100.129 2.47587 19
    endloop
  endfacet
  facet normal -0.368122 0.929777 0
    outer loop
      vertex 99.5451 2.24472 19
      vertex 100.129 2.47587 17.5
      vertex 99.5451 2.24472 17.5
    endloop
  endfacet
  facet normal 0.770513 0.637424 0
    outer loop
      vertex 3.35516 3.57726 19
      vertex 2.95492 4.06107 17.5
      vertex 2.95492 4.06107 19
    endloop
  endfacet
  facet normal 0.770513 0.637424 0
    outer loop
      vertex 2.95492 4.06107 17.5
      vertex 3.35516 3.57726 19
      vertex 3.35516 3.57726 17.5
    endloop
  endfacet
  facet normal 0.368126 0.929776 -0
    outer loop
      vertex 5.45492 2.24472 17.5
      vertex 4.8711 2.47587 19
      vertex 5.45492 2.24472 19
    endloop
  endfacet
  facet normal 0.368126 0.929776 0
    outer loop
      vertex 4.8711 2.47587 19
      vertex 5.45492 2.24472 17.5
      vertex 4.8711 2.47587 17.5
    endloop
  endfacet
  facet normal 0.951057 -0.309016 0
    outer loop
      vertex 2.15708 99.2434 19
      vertex 2.35112 99.8406 17.5
      vertex 2.35112 99.8406 19
    endloop
  endfacet
  facet normal 0.951057 -0.309016 0
    outer loop
      vertex 2.35112 99.8406 17.5
      vertex 2.15708 99.2434 19
      vertex 2.15708 99.2434 17.5
    endloop
  endfacet
  facet normal 0.770514 -0.637423 0
    outer loop
      vertex 2.95492 100.939 19
      vertex 3.35516 101.423 17.5
      vertex 3.35516 101.423 19
    endloop
  endfacet
  facet normal 0.770514 -0.637423 0
    outer loop
      vertex 3.35516 101.423 17.5
      vertex 2.95492 100.939 19
      vertex 2.95492 100.939 17.5
    endloop
  endfacet
  facet normal -0.368122 -0.929777 0
    outer loop
      vertex 99.5451 102.755 17.5
      vertex 100.129 102.524 19
      vertex 99.5451 102.755 19
    endloop
  endfacet
  facet normal -0.368122 -0.929777 -0
    outer loop
      vertex 100.129 102.524 19
      vertex 99.5451 102.755 17.5
      vertex 100.129 102.524 17.5
    endloop
  endfacet
  facet normal 0.248697 -0.968581 0
    outer loop
      vertex 5.45492 102.755 17.5
      vertex 6.06309 102.911 19
      vertex 5.45492 102.755 19
    endloop
  endfacet
  facet normal 0.248697 -0.968581 0
    outer loop
      vertex 6.06309 102.911 19
      vertex 5.45492 102.755 17.5
      vertex 6.06309 102.911 17.5
    endloop
  endfacet
  facet normal -0.125333 -0.992115 0
    outer loop
      vertex 98.3139 102.99 17.5
      vertex 98.9369 102.911 19
      vertex 98.3139 102.99 19
    endloop
  endfacet
  facet normal -0.125333 -0.992115 -0
    outer loop
      vertex 98.9369 102.911 19
      vertex 98.3139 102.99 17.5
      vertex 98.9369 102.911 17.5
    endloop
  endfacet
  facet normal 0.125333 -0.992115 0
    outer loop
      vertex 6.06309 102.911 17.5
      vertex 6.68605 102.99 19
      vertex 6.06309 102.911 19
    endloop
  endfacet
  facet normal 0.125333 -0.992115 0
    outer loop
      vertex 6.68605 102.99 19
      vertex 6.06309 102.911 17.5
      vertex 6.68605 102.99 17.5
    endloop
  endfacet
  facet normal 0.368126 -0.929776 0
    outer loop
      vertex 4.8711 102.524 17.5
      vertex 5.45492 102.755 19
      vertex 4.8711 102.524 19
    endloop
  endfacet
  facet normal 0.368126 -0.929776 0
    outer loop
      vertex 5.45492 102.755 19
      vertex 4.8711 102.524 17.5
      vertex 5.45492 102.755 17.5
    endloop
  endfacet
  facet normal -0.998026 -0.0627943 0
    outer loop
      vertex 103 98 17.5
      vertex 102.961 98.6267 19
      vertex 102.961 98.6267 17.5
    endloop
  endfacet
  facet normal -0.998026 -0.0627943 0
    outer loop
      vertex 102.961 98.6267 19
      vertex 103 98 17.5
      vertex 103 98 19
    endloop
  endfacet
  facet normal -0.844328 -0.535826 0
    outer loop
      vertex 102.382 100.409 17.5
      vertex 102.045 100.939 19
      vertex 102.045 100.939 17.5
    endloop
  endfacet
  facet normal -0.844328 -0.535826 0
    outer loop
      vertex 102.045 100.939 19
      vertex 102.382 100.409 17.5
      vertex 102.382 100.409 19
    endloop
  endfacet
  facet normal -0.24869 0.968583 0
    outer loop
      vertex 99.5451 2.24472 17.5
      vertex 98.9369 2.08856 19
      vertex 99.5451 2.24472 19
    endloop
  endfacet
  facet normal -0.24869 0.968583 0
    outer loop
      vertex 98.9369 2.08856 19
      vertex 99.5451 2.24472 17.5
      vertex 98.9369 2.08856 17.5
    endloop
  endfacet
  facet normal -0.587783 0.809018 0
    outer loop
      vertex 101.187 3.14743 17.5
      vertex 100.679 2.77836 19
      vertex 101.187 3.14743 19
    endloop
  endfacet
  facet normal -0.587783 0.809018 0
    outer loop
      vertex 100.679 2.77836 19
      vertex 101.187 3.14743 17.5
      vertex 100.679 2.77836 17.5
    endloop
  endfacet
  facet normal -0.481758 0.876304 0
    outer loop
      vertex 100.679 2.77836 17.5
      vertex 100.129 2.47587 19
      vertex 100.679 2.77836 19
    endloop
  endfacet
  facet normal -0.481758 0.876304 0
    outer loop
      vertex 100.129 2.47587 19
      vertex 100.679 2.77836 17.5
      vertex 100.129 2.47587 17.5
    endloop
  endfacet
  facet normal 0.951056 0.309018 0
    outer loop
      vertex 2.35112 5.15938 19
      vertex 2.15708 5.75655 17.5
      vertex 2.15708 5.75655 19
    endloop
  endfacet
  facet normal 0.951056 0.309018 0
    outer loop
      vertex 2.15708 5.75655 17.5
      vertex 2.35112 5.15938 19
      vertex 2.35112 5.15938 17.5
    endloop
  endfacet
  facet normal -0 0 1
    outer loop
      vertex 99 91.5 17.5
      vertex 101.5 13.5 17.5
      vertex 101.5 91.5 17.5
    endloop
  endfacet
  facet normal 0 0 1
    outer loop
      vertex 101.5 13.5 17.5
      vertex 99 91.5 17.5
      vertex 99 13.5 17.5
    endloop
  endfacet
  facet normal 0 0 1
    outer loop
      vertex 101.5 101.5 17.5
      vertex 103 98 17.5
      vertex 102.961 98.6267 17.5
    endloop
  endfacet
  facet normal 0 0 1
    outer loop
      vertex 103 98 17.5
      vertex 101.5 91.5 17.5
      vertex 103 7 17.5
    endloop
  endfacet
  facet normal 0 0 1
    outer loop
      vertex 101.5 101.5 17.5
      vertex 102.961 98.6267 17.5
      vertex 102.843 99.2434 17.5
    endloop
  endfacet
  facet normal -0 0 1
    outer loop
      vertex 101.5 13.5 17.5
      vertex 103 7 17.5
      vertex 101.5 91.5 17.5
    endloop
  endfacet
  facet normal 0 0 1
    outer loop
      vertex 101.5 101.5 17.5
      vertex 102.843 99.2434 17.5
      vertex 102.649 99.8406 17.5
    endloop
  endfacet
  facet normal 0 0 1
    outer loop
      vertex 101.5 3.5 17.5
      vertex 103 7 17.5
      vertex 101.5 13.5 17.5
    endloop
  endfacet
  facet normal 0 0 1
    outer loop
      vertex 101.5 101.5 17.5
      vertex 102.649 99.8406 17.5
      vertex 102.382 100.409 17.5
    endloop
  endfacet
  facet normal 0 0 1
    outer loop
      vertex 103 7 17.5
      vertex 101.5 3.5 17.5
      vertex 102.961 6.37333 17.5
    endloop
  endfacet
  facet normal 0 0 1
    outer loop
      vertex 101.5 101.5 17.5
      vertex 102.382 100.409 17.5
      vertex 102.045 100.939 17.5
    endloop
  endfacet
  facet normal 0 0 1
    outer loop
      vertex 102.961 6.37333 17.5
      vertex 101.5 3.5 17.5
      vertex 102.843 5.75655 17.5
    endloop
  endfacet
  facet normal 0 0 1
    outer loop
      vertex 101.5 101.5 17.5
      vertex 102.045 100.939 17.5
      vertex 101.645 101.423 17.5
    endloop
  endfacet
  facet normal 0 0 1
    outer loop
      vertex 102.843 5.75655 17.5
      vertex 101.5 3.5 17.5
      vertex 102.649 5.15938 17.5
    endloop
  endfacet
  facet normal 0 0 1
    outer loop
      vertex 103 98 17.5
      vertex 101.5 101.5 17.5
      vertex 101.5 91.5 17.5
    endloop
  endfacet
  facet normal 0 0 1
    outer loop
      vertex 101.187 101.853 17.5
      vertex 101.5 101.5 17.5
      vertex 101.645 101.423 17.5
    endloop
  endfacet
  facet normal 0 0 1
    outer loop
      vertex 100.679 102.222 17.5
      vertex 101.5 101.5 17.5
      vertex 101.187 101.853 17.5
    endloop
  endfacet
  facet normal 0 0 1
    outer loop
      vertex 100.129 102.524 17.5
      vertex 101.5 101.5 17.5
      vertex 100.679 102.222 17.5
    endloop
  endfacet
  facet normal 0 0 1
    outer loop
      vertex 99.5451 102.755 17.5
      vertex 101.5 101.5 17.5
      vertex 100.129 102.524 17.5
    endloop
  endfacet
  facet normal 0 0 1
    outer loop
      vertex 98.9369 102.911 17.5
      vertex 101.5 101.5 17.5
      vertex 99.5451 102.755 17.5
    endloop
  endfacet
  facet normal 0 0 1
    outer loop
      vertex 98.3139 102.99 17.5
      vertex 101.5 101.5 17.5
      vertex 98.9369 102.911 17.5
    endloop
  endfacet
  facet normal 0 0 1
    outer loop
      vertex 98.3139 102.99 17.5
      vertex 91.5 101.5 17.5
      vertex 101.5 101.5 17.5
    endloop
  endfacet
  facet normal 0 0 1
    outer loop
      vertex 91.5 101.5 17.5
      vertex 74.5 101.5 17.5
      vertex 91.5 101 17.5
    endloop
  endfacet
  facet normal 0 0 1
    outer loop
      vertex 98.3139 102.99 17.5
      vertex 74.5 101.5 17.5
      vertex 91.5 101.5 17.5
    endloop
  endfacet
  facet normal 0 0 1
    outer loop
      vertex 98.3139 102.99 17.5
      vertex 30.5 101.5 17.5
      vertex 74.5 101.5 17.5
    endloop
  endfacet
  facet normal 0 0 1
    outer loop
      vertex 30.5 101.5 17.5
      vertex 13.5 101.5 17.5
      vertex 30.5 101 17.5
    endloop
  endfacet
  facet normal -0 0 1
    outer loop
      vertex 6.68605 102.99 17.5
      vertex 30.5 101.5 17.5
      vertex 98.3139 102.99 17.5
    endloop
  endfacet
  facet normal 0 0 1
    outer loop
      vertex 30.5 101.5 17.5
      vertex 6.68605 102.99 17.5
      vertex 13.5 101.5 17.5
    endloop
  endfacet
  facet normal 0 0 1
    outer loop
      vertex 3.5 101.5 17.5
      vertex 6.68605 102.99 17.5
      vertex 6.06309 102.911 17.5
    endloop
  endfacet
  facet normal 0 0 1
    outer loop
      vertex 3.5 101.5 17.5
      vertex 6.06309 102.911 17.5
      vertex 5.45492 102.755 17.5
    endloop
  endfacet
  facet normal 0 0 1
    outer loop
      vertex 3.5 101.5 17.5
      vertex 5.45492 102.755 17.5
      vertex 4.8711 102.524 17.5
    endloop
  endfacet
  facet normal 0 0 1
    outer loop
      vertex 3.5 101.5 17.5
      vertex 4.8711 102.524 17.5
      vertex 4.32087 102.222 17.5
    endloop
  endfacet
  facet normal 0 0 1
    outer loop
      vertex 3.5 101.5 17.5
      vertex 4.32087 102.222 17.5
      vertex 3.81288 101.853 17.5
    endloop
  endfacet
  facet normal 0 0 1
    outer loop
      vertex 6.68605 102.99 17.5
      vertex 3.5 101.5 17.5
      vertex 13.5 101.5 17.5
    endloop
  endfacet
  facet normal -0 0 1
    outer loop
      vertex 2 98 17.5
      vertex 3.5 91.5 17.5
      vertex 3.5 101.5 17.5
    endloop
  endfacet
  facet normal 0 0 1
    outer loop
      vertex 3.5 91.5 17.5
      vertex 2 98 17.5
      vertex 3.5 13.5 17.5
    endloop
  endfacet
  facet normal 0 0 1
    outer loop
      vertex 2.95492 100.939 17.5
      vertex 3.5 101.5 17.5
      vertex 3.35516 101.423 17.5
    endloop
  endfacet
  facet normal 0 0 1
    outer loop
      vertex 3.35516 101.423 17.5
      vertex 3.5 101.5 17.5
      vertex 3.81288 101.853 17.5
    endloop
  endfacet
  facet normal 0 0 1
    outer loop
      vertex 102.649 5.15938 17.5
      vertex 101.5 3.5 17.5
      vertex 102.382 4.59123 17.5
    endloop
  endfacet
  facet normal 0 0 1
    outer loop
      vertex 102.382 4.59123 17.5
      vertex 101.5 3.5 17.5
      vertex 102.045 4.06107 17.5
    endloop
  endfacet
  facet normal 0 0 1
    outer loop
      vertex 102.045 4.06107 17.5
      vertex 101.5 3.5 17.5
      vertex 101.645 3.57726 17.5
    endloop
  endfacet
  facet normal -0 0 1
    outer loop
      vertex 101.5 3.5 17.5
      vertex 101.187 3.14743 17.5
      vertex 101.645 3.57726 17.5
    endloop
  endfacet
  facet normal 0 0 1
    outer loop
      vertex 101.5 3.5 17.5
      vertex 100.679 2.77836 17.5
      vertex 101.187 3.14743 17.5
    endloop
  endfacet
  facet normal -0 0 1
    outer loop
      vertex 97.5 3.5 17.5
      vertex 100.679 2.77836 17.5
      vertex 101.5 3.5 17.5
    endloop
  endfacet
  facet normal 0 0 1
    outer loop
      vertex 100.679 2.77836 17.5
      vertex 97.5 3.5 17.5
      vertex 100.129 2.47587 17.5
    endloop
  endfacet
  facet normal 0 0 1
    outer loop
      vertex 100.129 2.47587 17.5
      vertex 97.5 3.5 17.5
      vertex 99.5451 2.24472 17.5
    endloop
  endfacet
  facet normal 0 0 1
    outer loop
      vertex 99.5451 2.24472 17.5
      vertex 97.5 3.5 17.5
      vertex 98.9369 2.08856 17.5
    endloop
  endfacet
  facet normal 0 0 1
    outer loop
      vertex 98.9369 2.08856 17.5
      vertex 97.5 3.5 17.5
      vertex 98.3139 2.00987 17.5
    endloop
  endfacet
  facet normal 0 0 1
    outer loop
      vertex 98.3139 2.00987 17.5
      vertex 97.5 3.5 17.5
      vertex 97.5 2.00987 17.5
    endloop
  endfacet
  facet normal 0 0 1
    outer loop
      vertex 91.5 101 17.5
      vertex 74.5 101.5 17.5
      vertex 74.5 101 17.5
    endloop
  endfacet
  facet normal 0 0 1
    outer loop
      vertex 30.5 101 17.5
      vertex 13.5 101.5 17.5
      vertex 13.5 101 17.5
    endloop
  endfacet
  facet normal -0 0 1
    outer loop
      vertex 3.5 91.5 17.5
      vertex 6 13.5 17.5
      vertex 6 91.5 17.5
    endloop
  endfacet
  facet normal 0 0 1
    outer loop
      vertex 6 13.5 17.5
      vertex 3.5 91.5 17.5
      vertex 3.5 13.5 17.5
    endloop
  endfacet
  facet normal 0 0 1
    outer loop
      vertex 7.5 3.5 17.5
      vertex 6.68605 2.00987 17.5
      vertex 7.5 2.00987 17.5
    endloop
  endfacet
  facet normal 0 0 1
    outer loop
      vertex 7.5 3.5 17.5
      vertex 6.06309 2.08856 17.5
      vertex 6.68605 2.00987 17.5
    endloop
  endfacet
  facet normal 0 0 1
    outer loop
      vertex 7.5 3.5 17.5
      vertex 5.45492 2.24472 17.5
      vertex 6.06309 2.08856 17.5
    endloop
  endfacet
  facet normal 0 0 1
    outer loop
      vertex 7.5 3.5 17.5
      vertex 4.8711 2.47587 17.5
      vertex 5.45492 2.24472 17.5
    endloop
  endfacet
  facet normal 0 0 1
    outer loop
      vertex 7.5 3.5 17.5
      vertex 4.32087 2.77836 17.5
      vertex 4.8711 2.47587 17.5
    endloop
  endfacet
  facet normal 0 0 1
    outer loop
      vertex 7.5 3.5 17.5
      vertex 3.81288 3.14743 17.5
      vertex 4.32087 2.77836 17.5
    endloop
  endfacet
  facet normal -0 0 1
    outer loop
      vertex 3.5 3.5 17.5
      vertex 3.81288 3.14743 17.5
      vertex 7.5 3.5 17.5
    endloop
  endfacet
  facet normal 0 0 1
    outer loop
      vertex 3.5 3.5 17.5
      vertex 3.35516 3.57726 17.5
      vertex 3.81288 3.14743 17.5
    endloop
  endfacet
  facet normal 0 0 1
    outer loop
      vertex 2 7 17.5
      vertex 3.5 13.5 17.5
      vertex 2 98 17.5
    endloop
  endfacet
  facet normal 0 0 1
    outer loop
      vertex 2.61847 100.409 17.5
      vertex 3.5 101.5 17.5
      vertex 2.95492 100.939 17.5
    endloop
  endfacet
  facet normal 0 0 1
    outer loop
      vertex 3.5 13.5 17.5
      vertex 2 7 17.5
      vertex 3.5 3.5 17.5
    endloop
  endfacet
  facet normal 0 0 1
    outer loop
      vertex 2.35112 99.8406 17.5
      vertex 3.5 101.5 17.5
      vertex 2.61847 100.409 17.5
    endloop
  endfacet
  facet normal -0 -0 1
    outer loop
      vertex 2.15708 5.75655 17.5
      vertex 3.5 3.5 17.5
      vertex 2 7 17.5
    endloop
  endfacet
  facet normal 0 0 1
    outer loop
      vertex 2.15708 99.2434 17.5
      vertex 3.5 101.5 17.5
      vertex 2.35112 99.8406 17.5
    endloop
  endfacet
  facet normal 0 0 1
    outer loop
      vertex 3.5 3.5 17.5
      vertex 2.95492 4.06107 17.5
      vertex 3.35516 3.57726 17.5
    endloop
  endfacet
  facet normal 0 0 1
    outer loop
      vertex 3.5 101.5 17.5
      vertex 2.15708 99.2434 17.5
      vertex 2 98 17.5
    endloop
  endfacet
  facet normal 0 0 1
    outer loop
      vertex 3.5 3.5 17.5
      vertex 2.61847 4.59123 17.5
      vertex 2.95492 4.06107 17.5
    endloop
  endfacet
  facet normal 0 0 1
    outer loop
      vertex 2 98 17.5
      vertex 2.15708 99.2434 17.5
      vertex 2.03943 98.6267 17.5
    endloop
  endfacet
  facet normal 0 0 1
    outer loop
      vertex 3.5 3.5 17.5
      vertex 2.35112 5.15938 17.5
      vertex 2.61847 4.59123 17.5
    endloop
  endfacet
  facet normal 0 0 1
    outer loop
      vertex 3.5 3.5 17.5
      vertex 2.15708 5.75655 17.5
      vertex 2.35112 5.15938 17.5
    endloop
  endfacet
  facet normal 0 0 1
    outer loop
      vertex 2.15708 5.75655 17.5
      vertex 2 7 17.5
      vertex 2.03943 6.37333 17.5
    endloop
  endfacet
  facet normal 0.24869 0.968583 -0
    outer loop
      vertex 6.06309 2.08856 17.5
      vertex 5.45492 2.24472 19
      vertex 6.06309 2.08856 19
    endloop
  endfacet
  facet normal 0.24869 0.968583 0
    outer loop
      vertex 5.45492 2.24472 19
      vertex 6.06309 2.08856 17.5
      vertex 5.45492 2.24472 17.5
    endloop
  endfacet
  facet normal 0.481754 0.876307 -0
    outer loop
      vertex 4.8711 2.47587 17.5
      vertex 4.32087 2.77836 19
      vertex 4.8711 2.47587 19
    endloop
  endfacet
  facet normal 0.481754 0.876307 0
    outer loop
      vertex 4.32087 2.77836 19
      vertex 4.8711 2.47587 17.5
      vertex 4.32087 2.77836 17.5
    endloop
  endfacet
  facet normal 0.587785 0.809017 -0
    outer loop
      vertex 4.32087 2.77836 17.5
      vertex 3.81288 3.14743 19
      vertex 4.32087 2.77836 19
    endloop
  endfacet
  facet normal 0.587785 0.809017 0
    outer loop
      vertex 3.81288 3.14743 19
      vertex 4.32087 2.77836 17.5
      vertex 3.81288 3.14743 17.5
    endloop
  endfacet
  facet normal 0.684547 0.728969 -0
    outer loop
      vertex 3.81288 3.14743 17.5
      vertex 3.35516 3.57726 19
      vertex 3.81288 3.14743 19
    endloop
  endfacet
  facet normal 0.684547 0.728969 0
    outer loop
      vertex 3.35516 3.57726 19
      vertex 3.81288 3.14743 17.5
      vertex 3.35516 3.57726 17.5
    endloop
  endfacet
  facet normal 0.982287 -0.187381 0
    outer loop
      vertex 2.03943 98.6267 19
      vertex 2.15708 99.2434 17.5
      vertex 2.15708 99.2434 19
    endloop
  endfacet
  facet normal 0.982287 -0.187381 0
    outer loop
      vertex 2.15708 99.2434 17.5
      vertex 2.03943 98.6267 19
      vertex 2.03943 98.6267 17.5
    endloop
  endfacet
  facet normal 0.684548 -0.728968 0
    outer loop
      vertex 3.35516 101.423 17.5
      vertex 3.81288 101.853 19
      vertex 3.35516 101.423 19
    endloop
  endfacet
  facet normal 0.684548 -0.728968 0
    outer loop
      vertex 3.81288 101.853 19
      vertex 3.35516 101.423 17.5
      vertex 3.81288 101.853 17.5
    endloop
  endfacet
  facet normal -0.904827 -0.425779 0
    outer loop
      vertex 102.649 99.8406 17.5
      vertex 102.382 100.409 19
      vertex 102.382 100.409 17.5
    endloop
  endfacet
  facet normal -0.904827 -0.425779 0
    outer loop
      vertex 102.382 100.409 19
      vertex 102.649 99.8406 17.5
      vertex 102.649 99.8406 19
    endloop
  endfacet
  facet normal -0.684547 -0.728969 0
    outer loop
      vertex 101.187 101.853 17.5
      vertex 101.645 101.423 19
      vertex 101.187 101.853 19
    endloop
  endfacet
  facet normal -0.684547 -0.728969 -0
    outer loop
      vertex 101.645 101.423 19
      vertex 101.187 101.853 17.5
      vertex 101.645 101.423 17.5
    endloop
  endfacet
  facet normal -0.481751 -0.876308 0
    outer loop
      vertex 100.129 102.524 17.5
      vertex 100.679 102.222 19
      vertex 100.129 102.524 19
    endloop
  endfacet
  facet normal -0.481751 -0.876308 -0
    outer loop
      vertex 100.679 102.222 19
      vertex 100.129 102.524 17.5
      vertex 100.679 102.222 17.5
    endloop
  endfacet
  facet normal -0.770517 -0.637419 0
    outer loop
      vertex 102.045 100.939 17.5
      vertex 101.645 101.423 19
      vertex 101.645 101.423 17.5
    endloop
  endfacet
  facet normal -0.770517 -0.637419 0
    outer loop
      vertex 101.645 101.423 19
      vertex 102.045 100.939 17.5
      vertex 102.045 100.939 19
    endloop
  endfacet
  facet normal -0.248697 -0.968581 0
    outer loop
      vertex 98.9369 102.911 17.5
      vertex 99.5451 102.755 19
      vertex 98.9369 102.911 19
    endloop
  endfacet
  facet normal -0.248697 -0.968581 -0
    outer loop
      vertex 99.5451 102.755 19
      vertex 98.9369 102.911 17.5
      vertex 99.5451 102.755 17.5
    endloop
  endfacet
  facet normal 0.481747 -0.87631 0
    outer loop
      vertex 4.32087 102.222 17.5
      vertex 4.8711 102.524 19
      vertex 4.32087 102.222 19
    endloop
  endfacet
  facet normal 0.481747 -0.87631 0
    outer loop
      vertex 4.8711 102.524 19
      vertex 4.32087 102.222 17.5
      vertex 4.8711 102.524 17.5
    endloop
  endfacet
  facet normal 0.844329 0.535826 0
    outer loop
      vertex 2.95492 4.06107 19
      vertex 2.61847 4.59123 17.5
      vertex 2.61847 4.59123 19
    endloop
  endfacet
  facet normal 0.844329 0.535826 0
    outer loop
      vertex 2.61847 4.59123 17.5
      vertex 2.95492 4.06107 19
      vertex 2.95492 4.06107 17.5
    endloop
  endfacet
  facet normal 0.904827 0.425779 0
    outer loop
      vertex 2.61847 4.59123 19
      vertex 2.35112 5.15938 17.5
      vertex 2.35112 5.15938 19
    endloop
  endfacet
  facet normal 0.904827 0.425779 0
    outer loop
      vertex 2.35112 5.15938 17.5
      vertex 2.61847 4.59123 19
      vertex 2.61847 4.59123 17.5
    endloop
  endfacet
  facet normal 0.982287 0.187381 0
    outer loop
      vertex 2.15708 5.75655 19
      vertex 2.03943 6.37333 17.5
      vertex 2.03943 6.37333 19
    endloop
  endfacet
  facet normal 0.982287 0.187381 0
    outer loop
      vertex 2.03943 6.37333 17.5
      vertex 2.15708 5.75655 19
      vertex 2.15708 5.75655 17.5
    endloop
  endfacet
  facet normal 0.998027 0.062791 0
    outer loop
      vertex 2.03943 6.37333 19
      vertex 2 7 17.5
      vertex 2 7 19
    endloop
  endfacet
  facet normal 0.998027 0.062791 0
    outer loop
      vertex 2 7 17.5
      vertex 2.03943 6.37333 19
      vertex 2.03943 6.37333 17.5
    endloop
  endfacet
  facet normal 0.844329 -0.535825 0
    outer loop
      vertex 2.61847 100.409 19
      vertex 2.95492 100.939 17.5
      vertex 2.95492 100.939 19
    endloop
  endfacet
  facet normal 0.844329 -0.535825 0
    outer loop
      vertex 2.95492 100.939 17.5
      vertex 2.61847 100.409 19
      vertex 2.61847 100.409 17.5
    endloop
  endfacet
  facet normal -0.587782 -0.809019 0
    outer loop
      vertex 100.679 102.222 17.5
      vertex 101.187 101.853 19
      vertex 100.679 102.222 19
    endloop
  endfacet
  facet normal -0.587782 -0.809019 -0
    outer loop
      vertex 101.187 101.853 19
      vertex 100.679 102.222 17.5
      vertex 101.187 101.853 17.5
    endloop
  endfacet
  facet normal 1 -0 0
    outer loop
      vertex 3.5 91.5 17.5
      vertex 3.5 101.5 15.9
      vertex 3.5 101.5 17.5
    endloop
  endfacet
  facet normal 1 0 0
    outer loop
      vertex 3.5 101.5 15.9
      vertex 3.5 91.5 17.5
      vertex 3.5 91.5 15.9
    endloop
  endfacet
  facet normal -1 0 0
    outer loop
      vertex 13.5 101 15.9
      vertex 13.5 101.5 17.5
      vertex 13.5 101.5 15.9
    endloop
  endfacet
  facet normal -1 -0 0
    outer loop
      vertex 13.5 101.5 17.5
      vertex 13.5 101 15.9
      vertex 13.5 101 17.5
    endloop
  endfacet
  facet normal 0 -1 0
    outer loop
      vertex 3.5 101.5 15.9
      vertex 13.5 101.5 17.5
      vertex 3.5 101.5 17.5
    endloop
  endfacet
  facet normal 0 -1 -0
    outer loop
      vertex 13.5 101.5 17.5
      vertex 3.5 101.5 15.9
      vertex 13.5 101.5 15.9
    endloop
  endfacet
  facet normal 0 0 1
    outer loop
      vertex 13.5 101.5 15.9
      vertex 6 101 15.9
      vertex 13.5 101 15.9
    endloop
  endfacet
  facet normal -0 0 1
    outer loop
      vertex 3.5 101.5 15.9
      vertex 6 101 15.9
      vertex 13.5 101.5 15.9
    endloop
  endfacet
  facet normal 0 0 1
    outer loop
      vertex 3.5 91.5 15.9
      vertex 6 101 15.9
      vertex 3.5 101.5 15.9
    endloop
  endfacet
  facet normal 0 0 1
    outer loop
      vertex 6 101 15.9
      vertex 3.5 91.5 15.9
      vertex 6 91.5 15.9
    endloop
  endfacet
  facet normal 0 1 -0
    outer loop
      vertex 6 91.5 15.9
      vertex 3.5 91.5 17.5
      vertex 6 91.5 17.5
    endloop
  endfacet
  facet normal 0 1 0
    outer loop
      vertex 3.5 91.5 17.5
      vertex 6 91.5 15.9
      vertex 3.5 91.5 15.9
    endloop
  endfacet
  facet normal 1 -0 0
    outer loop
      vertex 91.5 101 17.5
      vertex 91.5 101.5 15.9
      vertex 91.5 101.5 17.5
    endloop
  endfacet
  facet normal 1 0 0
    outer loop
      vertex 91.5 101.5 15.9
      vertex 91.5 101 17.5
      vertex 91.5 101 15.9
    endloop
  endfacet
  facet normal -1 0 0
    outer loop
      vertex 101.5 91.5 15.9
      vertex 101.5 101.5 17.5
      vertex 101.5 101.5 15.9
    endloop
  endfacet
  facet normal -1 -0 0
    outer loop
      vertex 101.5 101.5 17.5
      vertex 101.5 91.5 15.9
      vertex 101.5 91.5 17.5
    endloop
  endfacet
  facet normal 0 -1 0
    outer loop
      vertex 91.5 101.5 15.9
      vertex 101.5 101.5 17.5
      vertex 91.5 101.5 17.5
    endloop
  endfacet
  facet normal 0 -1 -0
    outer loop
      vertex 101.5 101.5 17.5
      vertex 91.5 101.5 15.9
      vertex 101.5 101.5 15.9
    endloop
  endfacet
  facet normal 0 0 1
    outer loop
      vertex 101.5 101.5 15.9
      vertex 99 101 15.9
      vertex 101.5 91.5 15.9
    endloop
  endfacet
  facet normal -0 0 1
    outer loop
      vertex 91.5 101.5 15.9
      vertex 99 101 15.9
      vertex 101.5 101.5 15.9
    endloop
  endfacet
  facet normal 0 0 1
    outer loop
      vertex 99 101 15.9
      vertex 91.5 101.5 15.9
      vertex 91.5 101 15.9
    endloop
  endfacet
  facet normal 0 0 1
    outer loop
      vertex 101.5 91.5 15.9
      vertex 99 101 15.9
      vertex 99 91.5 15.9
    endloop
  endfacet
  facet normal 0 1 -0
    outer loop
      vertex 101.5 91.5 15.9
      vertex 99 91.5 17.5
      vertex 101.5 91.5 17.5
    endloop
  endfacet
  facet normal 0 1 0
    outer loop
      vertex 99 91.5 17.5
      vertex 101.5 91.5 15.9
      vertex 99 91.5 15.9
    endloop
  endfacet
  facet normal 1 -0 0
    outer loop
      vertex 3.5 3.5 17.5
      vertex 3.5 13.5 15.9
      vertex 3.5 13.5 17.5
    endloop
  endfacet
  facet normal 1 0 0
    outer loop
      vertex 3.5 13.5 15.9
      vertex 3.5 3.5 17.5
      vertex 3.5 3.5 15.9
    endloop
  endfacet
  facet normal 0 0 1
    outer loop
      vertex 6 13.5 15.9
      vertex 3.5 13.5 15.9
      vertex 6 4 15.9
    endloop
  endfacet
  facet normal -0 0 1
    outer loop
      vertex 6 4 15.9
      vertex 7.5 3.5 15.9
      vertex 7.5 4 15.9
    endloop
  endfacet
  facet normal 0 0 1
    outer loop
      vertex 6 4 15.9
      vertex 3.5 3.5 15.9
      vertex 7.5 3.5 15.9
    endloop
  endfacet
  facet normal 0 0 1
    outer loop
      vertex 3.5 3.5 15.9
      vertex 6 4 15.9
      vertex 3.5 13.5 15.9
    endloop
  endfacet
  facet normal 0 1 -0
    outer loop
      vertex 7.5 3.5 15.9
      vertex 3.5 3.5 17.5
      vertex 7.5 3.5 17.5
    endloop
  endfacet
  facet normal 0 1 0
    outer loop
      vertex 3.5 3.5 17.5
      vertex 7.5 3.5 15.9
      vertex 3.5 3.5 15.9
    endloop
  endfacet
  facet normal 0 -1 0
    outer loop
      vertex 3.5 13.5 15.9
      vertex 6 13.5 17.5
      vertex 3.5 13.5 17.5
    endloop
  endfacet
  facet normal 0 -1 -0
    outer loop
      vertex 6 13.5 17.5
      vertex 3.5 13.5 15.9
      vertex 6 13.5 15.9
    endloop
  endfacet
  facet normal -1 0 0
    outer loop
      vertex 101.5 3.5 15.9
      vertex 101.5 13.5 17.5
      vertex 101.5 13.5 15.9
    endloop
  endfacet
  facet normal -1 -0 0
    outer loop
      vertex 101.5 13.5 17.5
      vertex 101.5 3.5 15.9
      vertex 101.5 3.5 17.5
    endloop
  endfacet
  facet normal 0 0 1
    outer loop
      vertex 99 4 15.9
      vertex 101.5 13.5 15.9
      vertex 99 13.5 15.9
    endloop
  endfacet
  facet normal 0 0 1
    outer loop
      vertex 101.5 13.5 15.9
      vertex 99 4 15.9
      vertex 101.5 3.5 15.9
    endloop
  endfacet
  facet normal 0 0 1
    outer loop
      vertex 97.5 3.5 15.9
      vertex 99 4 15.9
      vertex 97.5 4 15.9
    endloop
  endfacet
  facet normal 0 0 1
    outer loop
      vertex 99 4 15.9
      vertex 97.5 3.5 15.9
      vertex 101.5 3.5 15.9
    endloop
  endfacet
  facet normal 0 1 -0
    outer loop
      vertex 101.5 3.5 15.9
      vertex 97.5 3.5 17.5
      vertex 101.5 3.5 17.5
    endloop
  endfacet
  facet normal 0 1 0
    outer loop
      vertex 97.5 3.5 17.5
      vertex 101.5 3.5 15.9
      vertex 97.5 3.5 15.9
    endloop
  endfacet
  facet normal 0 -1 0
    outer loop
      vertex 99 13.5 15.9
      vertex 101.5 13.5 17.5
      vertex 99 13.5 17.5
    endloop
  endfacet
  facet normal 0 -1 -0
    outer loop
      vertex 101.5 13.5 17.5
      vertex 99 13.5 15.9
      vertex 101.5 13.5 15.9
    endloop
  endfacet
  facet normal 1 -0 0
    outer loop
      vertex 30.5 101 17.5
      vertex 30.5 101.5 15.9
      vertex 30.5 101.5 17.5
    endloop
  endfacet
  facet normal 1 0 0
    outer loop
      vertex 30.5 101.5 15.9
      vertex 30.5 101 17.5
      vertex 30.5 101 15.9
    endloop
  endfacet
  facet normal -1 0 0
    outer loop
      vertex 74.5 101 15.9
      vertex 74.5 101.5 17.5
      vertex 74.5 101.5 15.9
    endloop
  endfacet
  facet normal -1 -0 0
    outer loop
      vertex 74.5 101.5 17.5
      vertex 74.5 101 15.9
      vertex 74.5 101 17.5
    endloop
  endfacet
  facet normal -0 0 1
    outer loop
      vertex 30.5 101.5 15.9
      vertex 74.5 101 15.9
      vertex 74.5 101.5 15.9
    endloop
  endfacet
  facet normal 0 0 1
    outer loop
      vertex 74.5 101 15.9
      vertex 30.5 101.5 15.9
      vertex 30.5 101 15.9
    endloop
  endfacet
  facet normal 0 -1 0
    outer loop
      vertex 30.5 101.5 15.9
      vertex 74.5 101.5 17.5
      vertex 30.5 101.5 17.5
    endloop
  endfacet
  facet normal 0 -1 -0
    outer loop
      vertex 74.5 101.5 17.5
      vertex 30.5 101.5 15.9
      vertex 74.5 101.5 15.9
    endloop
  endfacet
  facet normal 1 0 0
    outer loop
      vertex 7.5 2.00987 19
      vertex 7.5 0.00986671 19
      vertex 7.5 2.00987 17.5
    endloop
  endfacet
  facet normal 1 0 0
    outer loop
      vertex 7.5 3.5 17.5
      vertex 7.5 2.00987 17.5
      vertex 7.5 3.5 15.9
    endloop
  endfacet
  facet normal 1 -0 0
    outer loop
      vertex 7.5 3.5 15.9
      vertex 7.5 4 1
      vertex 7.5 4 15.9
    endloop
  endfacet
  facet normal 1 0 0
    outer loop
      vertex 7.5 0.00986671 0
      vertex 7.5 4 1
      vertex 7.5 3.5 15.9
    endloop
  endfacet
  facet normal 1 0 0
    outer loop
      vertex 7.5 0.00986671 0
      vertex 7.5 3.5 15.9
      vertex 7.5 2.00987 17.5
    endloop
  endfacet
  facet normal 1 0 0
    outer loop
      vertex 7.5 0.00986671 0
      vertex 7.5 2.00987 17.5
      vertex 7.5 0.00986671 19
    endloop
  endfacet
  facet normal 1 0 0
    outer loop
      vertex 7.5 4 1
      vertex 7.5 0.00986671 0
      vertex 7.5 4 0
    endloop
  endfacet
  facet normal -1 0 0
    outer loop
      vertex 97.5 0.00986671 0
      vertex 97.5 4 1
      vertex 97.5 4 0
    endloop
  endfacet
  facet normal -1 0 0
    outer loop
      vertex 97.5 4 1
      vertex 97.5 3.5 15.9
      vertex 97.5 4 15.9
    endloop
  endfacet
  facet normal -1 0 0
    outer loop
      vertex 97.5 3.5 15.9
      vertex 97.5 2.00987 17.5
      vertex 97.5 3.5 17.5
    endloop
  endfacet
  facet normal -1 -0 0
    outer loop
      vertex 97.5 4 1
      vertex 97.5 0.00986671 0
      vertex 97.5 3.5 15.9
    endloop
  endfacet
  facet normal -1 -0 0
    outer loop
      vertex 97.5 3.5 15.9
      vertex 97.5 0.00986671 0
      vertex 97.5 2.00987 17.5
    endloop
  endfacet
  facet normal -1 0 0
    outer loop
      vertex 97.5 0.00986671 19
      vertex 97.5 2.00987 17.5
      vertex 97.5 0.00986671 0
    endloop
  endfacet
  facet normal -1 0 0
    outer loop
      vertex 97.5 2.00987 17.5
      vertex 97.5 0.00986671 19
      vertex 97.5 2.00987 19
    endloop
  endfacet
endsolid OpenSCAD_Model
