solid OpenSCAD_Model
  facet normal 1 -0 0
    outer loop
      vertex 104.25 5 5
      vertex 104.25 99.25 0
      vertex 104.25 99.25 5
    endloop
  endfacet
  facet normal 1 0 0
    outer loop
      vertex 104.25 99.25 0
      vertex 104.25 5 5
      vertex 104.25 5 0
    endloop
  endfacet
  facet normal 0.998027 -0.062794 0
    outer loop
      vertex 104.211 4.37333 5
      vertex 104.25 5 0
      vertex 104.25 5 5
    endloop
  endfacet
  facet normal 0.998027 -0.062794 0
    outer loop
      vertex 104.25 5 0
      vertex 104.211 4.37333 5
      vertex 104.211 4.37333 0
    endloop
  endfacet
  facet normal -1 0 0
    outer loop
      vertex 0 5 0
      vertex 0 99.25 5
      vertex 0 99.25 0
    endloop
  endfacet
  facet normal -1 -0 0
    outer loop
      vertex 0 99.25 5
      vertex 0 5 0
      vertex 0 5 5
    endloop
  endfacet
  facet normal 0.125333 -0.992115 0
    outer loop
      vertex 99.5639 0.00986671 0
      vertex 100.187 0.0885639 5
      vertex 99.5639 0.00986671 5
    endloop
  endfacet
  facet normal 0.125333 -0.992115 0
    outer loop
      vertex 100.187 0.0885639 5
      vertex 99.5639 0.00986671 0
      vertex 100.187 0.0885639 0
    endloop
  endfacet
  facet normal 0 0 1
    outer loop
      vertex 101.899 99.0906 5
      vertex 104.25 99.25 5
      vertex 104.211 99.8767 5
    endloop
  endfacet
  facet normal 0 0 1
    outer loop
      vertex 104.25 99.25 5
      vertex 102.25 97.25 5
      vertex 104.25 5 5
    endloop
  endfacet
  facet normal 0 0 1
    outer loop
      vertex 101.632 99.6588 5
      vertex 104.211 99.8767 5
      vertex 104.093 100.493 5
    endloop
  endfacet
  facet normal -0 0 1
    outer loop
      vertex 102.25 7 5
      vertex 104.25 5 5
      vertex 102.25 97.25 5
    endloop
  endfacet
  facet normal 0 0 1
    outer loop
      vertex 101.632 99.6588 5
      vertex 104.093 100.493 5
      vertex 103.899 101.091 5
    endloop
  endfacet
  facet normal -0 0 1
    outer loop
      vertex 102.211 6.37333 5
      vertex 104.25 5 5
      vertex 102.25 7 5
    endloop
  endfacet
  facet normal 0 0 1
    outer loop
      vertex 101.295 100.189 5
      vertex 103.899 101.091 5
      vertex 103.632 101.659 5
    endloop
  endfacet
  facet normal -0 0 1
    outer loop
      vertex 102.093 5.75655 5
      vertex 104.25 5 5
      vertex 102.211 6.37333 5
    endloop
  endfacet
  facet normal 0 0 1
    outer loop
      vertex 101.295 100.189 5
      vertex 103.632 101.659 5
      vertex 103.295 102.189 5
    endloop
  endfacet
  facet normal -0 0 1
    outer loop
      vertex 101.899 5.15938 5
      vertex 104.25 5 5
      vertex 102.093 5.75655 5
    endloop
  endfacet
  facet normal 0 0 1
    outer loop
      vertex 100.895 100.673 5
      vertex 103.295 102.189 5
      vertex 102.895 102.673 5
    endloop
  endfacet
  facet normal 0 0 1
    outer loop
      vertex 104.25 5 5
      vertex 101.899 5.15938 5
      vertex 104.211 4.37333 5
    endloop
  endfacet
  facet normal 0 0 1
    outer loop
      vertex 100.895 100.673 5
      vertex 102.895 102.673 5
      vertex 102.437 103.103 5
    endloop
  endfacet
  facet normal -0 0 1
    outer loop
      vertex 101.632 4.59123 5
      vertex 104.211 4.37333 5
      vertex 101.899 5.15938 5
    endloop
  endfacet
  facet normal 0 0 1
    outer loop
      vertex 104.211 4.37333 5
      vertex 101.632 4.59123 5
      vertex 104.093 3.75655 5
    endloop
  endfacet
  facet normal 0 0 1
    outer loop
      vertex 104.25 99.25 5
      vertex 102.211 97.8767 5
      vertex 102.25 97.25 5
    endloop
  endfacet
  facet normal 0 0 1
    outer loop
      vertex 104.25 99.25 5
      vertex 102.093 98.4934 5
      vertex 102.211 97.8767 5
    endloop
  endfacet
  facet normal 0 0 1
    outer loop
      vertex 100.437 101.103 5
      vertex 102.437 103.103 5
      vertex 101.929 103.472 5
    endloop
  endfacet
  facet normal 0 0 1
    outer loop
      vertex 104.25 99.25 5
      vertex 101.899 99.0906 5
      vertex 102.093 98.4934 5
    endloop
  endfacet
  facet normal 0 0 1
    outer loop
      vertex 104.211 99.8767 5
      vertex 101.632 99.6588 5
      vertex 101.899 99.0906 5
    endloop
  endfacet
  facet normal 0 0 1
    outer loop
      vertex 100.437 101.103 5
      vertex 101.929 103.472 5
      vertex 101.379 103.774 5
    endloop
  endfacet
  facet normal 0 0 1
    outer loop
      vertex 103.899 101.091 5
      vertex 101.295 100.189 5
      vertex 101.632 99.6588 5
    endloop
  endfacet
  facet normal 0 0 1
    outer loop
      vertex 103.295 102.189 5
      vertex 100.895 100.673 5
      vertex 101.295 100.189 5
    endloop
  endfacet
  facet normal 0 0 1
    outer loop
      vertex 99.9291 101.472 5
      vertex 101.379 103.774 5
      vertex 100.795 104.005 5
    endloop
  endfacet
  facet normal 0 0 1
    outer loop
      vertex 102.437 103.103 5
      vertex 100.437 101.103 5
      vertex 100.895 100.673 5
    endloop
  endfacet
  facet normal 0 0 1
    outer loop
      vertex 99.3789 101.774 5
      vertex 100.795 104.005 5
      vertex 100.187 104.161 5
    endloop
  endfacet
  facet normal 0 0 1
    outer loop
      vertex 101.379 103.774 5
      vertex 99.9291 101.472 5
      vertex 100.437 101.103 5
    endloop
  endfacet
  facet normal 0 0 1
    outer loop
      vertex 99.3789 101.774 5
      vertex 100.187 104.161 5
      vertex 99.5639 104.24 5
    endloop
  endfacet
  facet normal 0 0 1
    outer loop
      vertex 100.795 104.005 5
      vertex 99.3789 101.774 5
      vertex 99.9291 101.472 5
    endloop
  endfacet
  facet normal 0 0 1
    outer loop
      vertex 99.5639 104.24 5
      vertex 98.7951 102.005 5
      vertex 99.3789 101.774 5
    endloop
  endfacet
  facet normal 0 0 1
    outer loop
      vertex 99.5639 104.24 5
      vertex 98.1869 102.161 5
      vertex 98.7951 102.005 5
    endloop
  endfacet
  facet normal 0 0 1
    outer loop
      vertex 99.5639 104.24 5
      vertex 97.5639 102.24 5
      vertex 98.1869 102.161 5
    endloop
  endfacet
  facet normal 0 0 1
    outer loop
      vertex 99.5639 104.24 5
      vertex 6.68605 102.24 5
      vertex 97.5639 102.24 5
    endloop
  endfacet
  facet normal -0 0 1
    outer loop
      vertex 4.68605 104.24 5
      vertex 6.68605 102.24 5
      vertex 99.5639 104.24 5
    endloop
  endfacet
  facet normal 0 0 1
    outer loop
      vertex 4.68605 104.24 5
      vertex 6.06309 102.161 5
      vertex 6.68605 102.24 5
    endloop
  endfacet
  facet normal 0 0 1
    outer loop
      vertex 4.68605 104.24 5
      vertex 5.45492 102.005 5
      vertex 6.06309 102.161 5
    endloop
  endfacet
  facet normal 0 0 1
    outer loop
      vertex 4.68605 104.24 5
      vertex 4.8711 101.774 5
      vertex 5.45492 102.005 5
    endloop
  endfacet
  facet normal -0 0 1
    outer loop
      vertex 4.06309 104.161 5
      vertex 4.8711 101.774 5
      vertex 4.68605 104.24 5
    endloop
  endfacet
  facet normal -0 0 1
    outer loop
      vertex 3.45492 104.005 5
      vertex 4.8711 101.774 5
      vertex 4.06309 104.161 5
    endloop
  endfacet
  facet normal 0 0 1
    outer loop
      vertex 4.8711 101.774 5
      vertex 3.45492 104.005 5
      vertex 4.32087 101.472 5
    endloop
  endfacet
  facet normal -0 0 1
    outer loop
      vertex 2.8711 103.774 5
      vertex 4.32087 101.472 5
      vertex 3.45492 104.005 5
    endloop
  endfacet
  facet normal 0 0 1
    outer loop
      vertex 4.32087 101.472 5
      vertex 2.8711 103.774 5
      vertex 3.81288 101.103 5
    endloop
  endfacet
  facet normal -0 0 1
    outer loop
      vertex 2.32087 103.472 5
      vertex 3.81288 101.103 5
      vertex 2.8711 103.774 5
    endloop
  endfacet
  facet normal -0 0 1
    outer loop
      vertex 1.81288 103.103 5
      vertex 3.81288 101.103 5
      vertex 2.32087 103.472 5
    endloop
  endfacet
  facet normal 0 0 1
    outer loop
      vertex 3.81288 101.103 5
      vertex 1.81288 103.103 5
      vertex 3.35516 100.673 5
    endloop
  endfacet
  facet normal -0 0 1
    outer loop
      vertex 1.35516 102.673 5
      vertex 3.35516 100.673 5
      vertex 1.81288 103.103 5
    endloop
  endfacet
  facet normal -0 0 1
    outer loop
      vertex 0.954915 102.189 5
      vertex 3.35516 100.673 5
      vertex 1.35516 102.673 5
    endloop
  endfacet
  facet normal 0 0 1
    outer loop
      vertex 3.35516 100.673 5
      vertex 0.954915 102.189 5
      vertex 2.95492 100.189 5
    endloop
  endfacet
  facet normal -0 0 1
    outer loop
      vertex 0.618467 101.659 5
      vertex 2.95492 100.189 5
      vertex 0.954915 102.189 5
    endloop
  endfacet
  facet normal -0 0 1
    outer loop
      vertex 0.351118 101.091 5
      vertex 2.95492 100.189 5
      vertex 0.618467 101.659 5
    endloop
  endfacet
  facet normal -0 0 1
    outer loop
      vertex 0.157084 100.493 5
      vertex 2.61847 99.6588 5
      vertex 0.351118 101.091 5
    endloop
  endfacet
  facet normal 0 0 1
    outer loop
      vertex 2.95492 100.189 5
      vertex 0.351118 101.091 5
      vertex 2.61847 99.6588 5
    endloop
  endfacet
  facet normal 0 0 1
    outer loop
      vertex 104.093 3.75655 5
      vertex 101.632 4.59123 5
      vertex 103.899 3.15938 5
    endloop
  endfacet
  facet normal -0 0 1
    outer loop
      vertex 101.295 4.06107 5
      vertex 103.899 3.15938 5
      vertex 101.632 4.59123 5
    endloop
  endfacet
  facet normal 0 0 1
    outer loop
      vertex 103.899 3.15938 5
      vertex 101.295 4.06107 5
      vertex 103.632 2.59123 5
    endloop
  endfacet
  facet normal 0 0 1
    outer loop
      vertex 103.632 2.59123 5
      vertex 101.295 4.06107 5
      vertex 103.295 2.06107 5
    endloop
  endfacet
  facet normal -0 0 1
    outer loop
      vertex 100.895 3.57726 5
      vertex 103.295 2.06107 5
      vertex 101.295 4.06107 5
    endloop
  endfacet
  facet normal 0 0 1
    outer loop
      vertex 103.295 2.06107 5
      vertex 100.895 3.57726 5
      vertex 102.895 1.57726 5
    endloop
  endfacet
  facet normal 0 0 1
    outer loop
      vertex 102.895 1.57726 5
      vertex 100.895 3.57726 5
      vertex 102.437 1.14743 5
    endloop
  endfacet
  facet normal -0 0 1
    outer loop
      vertex 100.437 3.14743 5
      vertex 102.437 1.14743 5
      vertex 100.895 3.57726 5
    endloop
  endfacet
  facet normal 0 0 1
    outer loop
      vertex 102.437 1.14743 5
      vertex 100.437 3.14743 5
      vertex 101.929 0.778361 5
    endloop
  endfacet
  facet normal 0 0 1
    outer loop
      vertex 101.929 0.778361 5
      vertex 100.437 3.14743 5
      vertex 101.379 0.475865 5
    endloop
  endfacet
  facet normal -0 0 1
    outer loop
      vertex 99.9291 2.77836 5
      vertex 101.379 0.475865 5
      vertex 100.437 3.14743 5
    endloop
  endfacet
  facet normal 0 0 1
    outer loop
      vertex 101.379 0.475865 5
      vertex 99.9291 2.77836 5
      vertex 100.795 0.244718 5
    endloop
  endfacet
  facet normal -0 0 1
    outer loop
      vertex 99.3789 2.47587 5
      vertex 100.795 0.244718 5
      vertex 99.9291 2.77836 5
    endloop
  endfacet
  facet normal 0 0 1
    outer loop
      vertex 100.795 0.244718 5
      vertex 99.3789 2.47587 5
      vertex 100.187 0.0885639 5
    endloop
  endfacet
  facet normal 0 0 1
    outer loop
      vertex 100.187 0.0885639 5
      vertex 99.3789 2.47587 5
      vertex 99.5639 0.00986671 5
    endloop
  endfacet
  facet normal -0 0 1
    outer loop
      vertex 98.7951 2.24472 5
      vertex 99.5639 0.00986671 5
      vertex 99.3789 2.47587 5
    endloop
  endfacet
  facet normal -0 0 1
    outer loop
      vertex 98.1869 2.08856 5
      vertex 99.5639 0.00986671 5
      vertex 98.7951 2.24472 5
    endloop
  endfacet
  facet normal -0 0 1
    outer loop
      vertex 97.5639 2.00987 5
      vertex 99.5639 0.00986671 5
      vertex 98.1869 2.08856 5
    endloop
  endfacet
  facet normal 0 0 1
    outer loop
      vertex 95.625 0.00986671 5
      vertex 97.5639 2.00987 5
      vertex 95.625 2.00987 5
    endloop
  endfacet
  facet normal 0 0 1
    outer loop
      vertex 97.5639 2.00987 5
      vertex 95.625 0.00986671 5
      vertex 99.5639 0.00986671 5
    endloop
  endfacet
  facet normal -0 0 1
    outer loop
      vertex 6.68605 2.00987 5
      vertex 8.625 0.00986671 5
      vertex 8.625 2.00987 5
    endloop
  endfacet
  facet normal 0 0 1
    outer loop
      vertex 4.68605 0.00986671 5
      vertex 6.68605 2.00987 5
      vertex 6.06309 2.08856 5
    endloop
  endfacet
  facet normal 0 0 1
    outer loop
      vertex 4.68605 0.00986671 5
      vertex 6.06309 2.08856 5
      vertex 5.45492 2.24472 5
    endloop
  endfacet
  facet normal 0 0 1
    outer loop
      vertex 4.68605 0.00986671 5
      vertex 5.45492 2.24472 5
      vertex 4.8711 2.47587 5
    endloop
  endfacet
  facet normal 0 0 1
    outer loop
      vertex 6.68605 2.00987 5
      vertex 4.68605 0.00986671 5
      vertex 8.625 0.00986671 5
    endloop
  endfacet
  facet normal 0 0 1
    outer loop
      vertex 3.45492 0.244718 5
      vertex 4.8711 2.47587 5
      vertex 4.32087 2.77836 5
    endloop
  endfacet
  facet normal 0 0 1
    outer loop
      vertex 4.8711 2.47587 5
      vertex 4.06309 0.0885639 5
      vertex 4.68605 0.00986671 5
    endloop
  endfacet
  facet normal 0 0 1
    outer loop
      vertex 2.8711 0.475865 5
      vertex 4.32087 2.77836 5
      vertex 3.81288 3.14743 5
    endloop
  endfacet
  facet normal 0 0 1
    outer loop
      vertex 4.8711 2.47587 5
      vertex 3.45492 0.244718 5
      vertex 4.06309 0.0885639 5
    endloop
  endfacet
  facet normal 0 0 1
    outer loop
      vertex 1.81288 1.14743 5
      vertex 3.81288 3.14743 5
      vertex 3.35516 3.57726 5
    endloop
  endfacet
  facet normal 0 0 1
    outer loop
      vertex 0.954915 2.06107 5
      vertex 3.35516 3.57726 5
      vertex 2.95492 4.06107 5
    endloop
  endfacet
  facet normal 0 0 1
    outer loop
      vertex 4.32087 2.77836 5
      vertex 2.8711 0.475865 5
      vertex 3.45492 0.244718 5
    endloop
  endfacet
  facet normal 0 0 1
    outer loop
      vertex 0.351118 3.15938 5
      vertex 2.95492 4.06107 5
      vertex 2.61847 4.59123 5
    endloop
  endfacet
  facet normal 0 0 1
    outer loop
      vertex 0.0394268 4.37333 5
      vertex 2.61847 4.59123 5
      vertex 2.35112 5.15938 5
    endloop
  endfacet
  facet normal 0 0 1
    outer loop
      vertex 3.81288 3.14743 5
      vertex 2.32087 0.778361 5
      vertex 2.8711 0.475865 5
    endloop
  endfacet
  facet normal 0 0 1
    outer loop
      vertex 0 5 5
      vertex 2.35112 5.15938 5
      vertex 2.15708 5.75655 5
    endloop
  endfacet
  facet normal 0 0 1
    outer loop
      vertex 0 5 5
      vertex 2.15708 5.75655 5
      vertex 2.03943 6.37333 5
    endloop
  endfacet
  facet normal 0 0 1
    outer loop
      vertex 0 5 5
      vertex 2.03943 6.37333 5
      vertex 2 7 5
    endloop
  endfacet
  facet normal 0 0 1
    outer loop
      vertex 3.81288 3.14743 5
      vertex 1.81288 1.14743 5
      vertex 2.32087 0.778361 5
    endloop
  endfacet
  facet normal 0 0 1
    outer loop
      vertex 2 97.25 5
      vertex 0 99.25 5
      vertex 2 7 5
    endloop
  endfacet
  facet normal -0 0 1
    outer loop
      vertex 0.0394268 99.8767 5
      vertex 2.61847 99.6588 5
      vertex 0.157084 100.493 5
    endloop
  endfacet
  facet normal 0 0 1
    outer loop
      vertex 0 5 5
      vertex 2 7 5
      vertex 0 99.25 5
    endloop
  endfacet
  facet normal 0 0 1
    outer loop
      vertex 2.61847 99.6588 5
      vertex 0.0394268 99.8767 5
      vertex 2.35112 99.0906 5
    endloop
  endfacet
  facet normal 0 0 1
    outer loop
      vertex 2.35112 5.15938 5
      vertex 0 5 5
      vertex 0.0394268 4.37333 5
    endloop
  endfacet
  facet normal -0 0 1
    outer loop
      vertex 0 99.25 5
      vertex 2.35112 99.0906 5
      vertex 0.0394268 99.8767 5
    endloop
  endfacet
  facet normal 0 0 1
    outer loop
      vertex 3.35516 3.57726 5
      vertex 1.35516 1.57726 5
      vertex 1.81288 1.14743 5
    endloop
  endfacet
  facet normal 0 0 1
    outer loop
      vertex 2.35112 99.0906 5
      vertex 0 99.25 5
      vertex 2.15708 98.4934 5
    endloop
  endfacet
  facet normal 0 0 1
    outer loop
      vertex 3.35516 3.57726 5
      vertex 0.954915 2.06107 5
      vertex 1.35516 1.57726 5
    endloop
  endfacet
  facet normal 0 0 1
    outer loop
      vertex 2.15708 98.4934 5
      vertex 0 99.25 5
      vertex 2.03943 97.8767 5
    endloop
  endfacet
  facet normal 0 0 1
    outer loop
      vertex 2.95492 4.06107 5
      vertex 0.618467 2.59123 5
      vertex 0.954915 2.06107 5
    endloop
  endfacet
  facet normal 0 0 1
    outer loop
      vertex 2.03943 97.8767 5
      vertex 0 99.25 5
      vertex 2 97.25 5
    endloop
  endfacet
  facet normal 0 0 1
    outer loop
      vertex 2.95492 4.06107 5
      vertex 0.351118 3.15938 5
      vertex 0.618467 2.59123 5
    endloop
  endfacet
  facet normal 0 0 1
    outer loop
      vertex 2.61847 4.59123 5
      vertex 0.157084 3.75655 5
      vertex 0.351118 3.15938 5
    endloop
  endfacet
  facet normal 0 0 1
    outer loop
      vertex 2.61847 4.59123 5
      vertex 0.0394268 4.37333 5
      vertex 0.157084 3.75655 5
    endloop
  endfacet
  facet normal 0 -1 0
    outer loop
      vertex 95.625 0.00986671 0
      vertex 99.5639 0.00986671 5
      vertex 95.625 0.00986671 5
    endloop
  endfacet
  facet normal 0 -1 -0
    outer loop
      vertex 99.5639 0.00986671 5
      vertex 95.625 0.00986671 0
      vertex 99.5639 0.00986671 0
    endloop
  endfacet
  facet normal 0 -1 0
    outer loop
      vertex 4.68605 0.00986671 0
      vertex 8.625 0.00986671 5
      vertex 4.68605 0.00986671 5
    endloop
  endfacet
  facet normal 0 -1 -0
    outer loop
      vertex 8.625 0.00986671 5
      vertex 4.68605 0.00986671 0
      vertex 8.625 0.00986671 0
    endloop
  endfacet
  facet normal 0.770516 -0.63742 0
    outer loop
      vertex 102.895 1.57726 5
      vertex 103.295 2.06107 0
      vertex 103.295 2.06107 5
    endloop
  endfacet
  facet normal 0.770516 -0.63742 0
    outer loop
      vertex 103.295 2.06107 0
      vertex 102.895 1.57726 5
      vertex 102.895 1.57726 0
    endloop
  endfacet
  facet normal -0.587784 0.809018 0
    outer loop
      vertex 2.32087 103.472 0
      vertex 1.81288 103.103 5
      vertex 2.32087 103.472 5
    endloop
  endfacet
  facet normal -0.587784 0.809018 0
    outer loop
      vertex 1.81288 103.103 5
      vertex 2.32087 103.472 0
      vertex 1.81288 103.103 0
    endloop
  endfacet
  facet normal 0.998026 0.0627943 0
    outer loop
      vertex 104.25 99.25 5
      vertex 104.211 99.8767 0
      vertex 104.211 99.8767 5
    endloop
  endfacet
  facet normal 0.998026 0.0627943 0
    outer loop
      vertex 104.211 99.8767 0
      vertex 104.25 99.25 5
      vertex 104.25 99.25 0
    endloop
  endfacet
  facet normal 0.951054 -0.309024 0
    outer loop
      vertex 103.899 3.15938 5
      vertex 104.093 3.75655 0
      vertex 104.093 3.75655 5
    endloop
  endfacet
  facet normal 0.951054 -0.309024 0
    outer loop
      vertex 104.093 3.75655 0
      vertex 103.899 3.15938 5
      vertex 103.899 3.15938 0
    endloop
  endfacet
  facet normal 0.481758 -0.876304 0
    outer loop
      vertex 101.379 0.475865 0
      vertex 101.929 0.778361 5
      vertex 101.379 0.475865 5
    endloop
  endfacet
  facet normal 0.481758 -0.876304 0
    outer loop
      vertex 101.929 0.778361 5
      vertex 101.379 0.475865 0
      vertex 101.929 0.778361 0
    endloop
  endfacet
  facet normal -0.684547 -0.728969 0
    outer loop
      vertex 1.35516 1.57726 0
      vertex 1.81288 1.14743 5
      vertex 1.35516 1.57726 5
    endloop
  endfacet
  facet normal -0.684547 -0.728969 -0
    outer loop
      vertex 1.81288 1.14743 5
      vertex 1.35516 1.57726 0
      vertex 1.81288 1.14743 0
    endloop
  endfacet
  facet normal -0.125333 -0.992115 0
    outer loop
      vertex 4.06309 0.0885639 0
      vertex 4.68605 0.00986671 5
      vertex 4.06309 0.0885639 5
    endloop
  endfacet
  facet normal -0.125333 -0.992115 -0
    outer loop
      vertex 4.68605 0.00986671 5
      vertex 4.06309 0.0885639 0
      vertex 4.68605 0.00986671 0
    endloop
  endfacet
  facet normal 0.982289 -0.187374 0
    outer loop
      vertex 104.093 3.75655 5
      vertex 104.211 4.37333 0
      vertex 104.211 4.37333 5
    endloop
  endfacet
  facet normal 0.982289 -0.187374 0
    outer loop
      vertex 104.211 4.37333 0
      vertex 104.093 3.75655 5
      vertex 104.093 3.75655 0
    endloop
  endfacet
  facet normal -0.904827 0.425779 0
    outer loop
      vertex 0.351118 101.091 0
      vertex 0.618467 101.659 5
      vertex 0.618467 101.659 0
    endloop
  endfacet
  facet normal -0.904827 0.425779 0
    outer loop
      vertex 0.618467 101.659 5
      vertex 0.351118 101.091 0
      vertex 0.351118 101.091 5
    endloop
  endfacet
  facet normal 0 1 -0
    outer loop
      vertex 99.5639 104.24 0
      vertex 4.68605 104.24 5
      vertex 99.5639 104.24 5
    endloop
  endfacet
  facet normal 0 1 0
    outer loop
      vertex 4.68605 104.24 5
      vertex 99.5639 104.24 0
      vertex 4.68605 104.24 0
    endloop
  endfacet
  facet normal 0.982289 0.187374 0
    outer loop
      vertex 104.211 99.8767 5
      vertex 104.093 100.493 0
      vertex 104.093 100.493 5
    endloop
  endfacet
  facet normal 0.982289 0.187374 0
    outer loop
      vertex 104.093 100.493 0
      vertex 104.211 99.8767 5
      vertex 104.211 99.8767 0
    endloop
  endfacet
  facet normal 0.951055 0.309023 0
    outer loop
      vertex 104.093 100.493 5
      vertex 103.899 101.091 0
      vertex 103.899 101.091 5
    endloop
  endfacet
  facet normal 0.951055 0.309023 0
    outer loop
      vertex 103.899 101.091 0
      vertex 104.093 100.493 5
      vertex 104.093 100.493 0
    endloop
  endfacet
  facet normal 0.368122 -0.929777 0
    outer loop
      vertex 100.795 0.244718 0
      vertex 101.379 0.475865 5
      vertex 100.795 0.244718 5
    endloop
  endfacet
  facet normal 0.368122 -0.929777 0
    outer loop
      vertex 101.379 0.475865 5
      vertex 100.795 0.244718 0
      vertex 101.379 0.475865 0
    endloop
  endfacet
  facet normal 0.684545 -0.72897 0
    outer loop
      vertex 102.437 1.14743 0
      vertex 102.895 1.57726 5
      vertex 102.437 1.14743 5
    endloop
  endfacet
  facet normal 0.684545 -0.72897 0
    outer loop
      vertex 102.895 1.57726 5
      vertex 102.437 1.14743 0
      vertex 102.895 1.57726 0
    endloop
  endfacet
  facet normal -0.368126 -0.929776 0
    outer loop
      vertex 2.8711 0.475865 0
      vertex 3.45492 0.244718 5
      vertex 2.8711 0.475865 5
    endloop
  endfacet
  facet normal -0.368126 -0.929776 -0
    outer loop
      vertex 3.45492 0.244718 5
      vertex 2.8711 0.475865 0
      vertex 3.45492 0.244718 0
    endloop
  endfacet
  facet normal -0.951057 0.309016 0
    outer loop
      vertex 0.157084 100.493 0
      vertex 0.351118 101.091 5
      vertex 0.351118 101.091 0
    endloop
  endfacet
  facet normal -0.951057 0.309016 0
    outer loop
      vertex 0.351118 101.091 5
      vertex 0.157084 100.493 0
      vertex 0.157084 100.493 5
    endloop
  endfacet
  facet normal -0.982287 0.187381 0
    outer loop
      vertex 0.0394268 99.8767 0
      vertex 0.157084 100.493 5
      vertex 0.157084 100.493 0
    endloop
  endfacet
  facet normal -0.982287 0.187381 0
    outer loop
      vertex 0.157084 100.493 5
      vertex 0.0394268 99.8767 0
      vertex 0.0394268 99.8767 5
    endloop
  endfacet
  facet normal -0.844329 0.535825 0
    outer loop
      vertex 0.618467 101.659 0
      vertex 0.954915 102.189 5
      vertex 0.954915 102.189 0
    endloop
  endfacet
  facet normal -0.844329 0.535825 0
    outer loop
      vertex 0.954915 102.189 5
      vertex 0.618467 101.659 0
      vertex 0.618467 101.659 5
    endloop
  endfacet
  facet normal 0.844328 0.535826 0
    outer loop
      vertex 103.632 101.659 5
      vertex 103.295 102.189 0
      vertex 103.295 102.189 5
    endloop
  endfacet
  facet normal 0.844328 0.535826 0
    outer loop
      vertex 103.295 102.189 0
      vertex 103.632 101.659 5
      vertex 103.632 101.659 0
    endloop
  endfacet
  facet normal 0.368122 0.929777 -0
    outer loop
      vertex 101.379 103.774 0
      vertex 100.795 104.005 5
      vertex 101.379 103.774 5
    endloop
  endfacet
  facet normal 0.368122 0.929777 0
    outer loop
      vertex 100.795 104.005 5
      vertex 101.379 103.774 0
      vertex 100.795 104.005 0
    endloop
  endfacet
  facet normal -0.248697 0.968581 0
    outer loop
      vertex 4.06309 104.161 0
      vertex 3.45492 104.005 5
      vertex 4.06309 104.161 5
    endloop
  endfacet
  facet normal -0.248697 0.968581 0
    outer loop
      vertex 3.45492 104.005 5
      vertex 4.06309 104.161 0
      vertex 3.45492 104.005 0
    endloop
  endfacet
  facet normal -0.125333 0.992115 0
    outer loop
      vertex 4.68605 104.24 0
      vertex 4.06309 104.161 5
      vertex 4.68605 104.24 5
    endloop
  endfacet
  facet normal -0.125333 0.992115 0
    outer loop
      vertex 4.06309 104.161 5
      vertex 4.68605 104.24 0
      vertex 4.06309 104.161 0
    endloop
  endfacet
  facet normal -0.368126 0.929776 0
    outer loop
      vertex 3.45492 104.005 0
      vertex 2.8711 103.774 5
      vertex 3.45492 104.005 5
    endloop
  endfacet
  facet normal -0.368126 0.929776 0
    outer loop
      vertex 2.8711 103.774 5
      vertex 3.45492 104.005 0
      vertex 2.8711 103.774 0
    endloop
  endfacet
  facet normal 0.904827 -0.425779 0
    outer loop
      vertex 103.632 2.59123 5
      vertex 103.899 3.15938 0
      vertex 103.899 3.15938 5
    endloop
  endfacet
  facet normal 0.904827 -0.425779 0
    outer loop
      vertex 103.899 3.15938 0
      vertex 103.632 2.59123 5
      vertex 103.632 2.59123 0
    endloop
  endfacet
  facet normal 0.844328 -0.535827 0
    outer loop
      vertex 103.295 2.06107 5
      vertex 103.632 2.59123 0
      vertex 103.632 2.59123 5
    endloop
  endfacet
  facet normal 0.844328 -0.535827 0
    outer loop
      vertex 103.632 2.59123 0
      vertex 103.295 2.06107 5
      vertex 103.295 2.06107 0
    endloop
  endfacet
  facet normal 0.24869 -0.968583 0
    outer loop
      vertex 100.187 0.0885639 0
      vertex 100.795 0.244718 5
      vertex 100.187 0.0885639 5
    endloop
  endfacet
  facet normal 0.24869 -0.968583 0
    outer loop
      vertex 100.795 0.244718 5
      vertex 100.187 0.0885639 0
      vertex 100.795 0.244718 0
    endloop
  endfacet
  facet normal 0.587783 -0.809018 0
    outer loop
      vertex 101.929 0.778361 0
      vertex 102.437 1.14743 5
      vertex 101.929 0.778361 5
    endloop
  endfacet
  facet normal 0.587783 -0.809018 0
    outer loop
      vertex 102.437 1.14743 5
      vertex 101.929 0.778361 0
      vertex 102.437 1.14743 0
    endloop
  endfacet
  facet normal -0.951056 -0.309018 0
    outer loop
      vertex 0.351118 3.15938 0
      vertex 0.157084 3.75655 5
      vertex 0.157084 3.75655 0
    endloop
  endfacet
  facet normal -0.951056 -0.309018 0
    outer loop
      vertex 0.157084 3.75655 5
      vertex 0.351118 3.15938 0
      vertex 0.351118 3.15938 5
    endloop
  endfacet
  facet normal -0.770513 -0.637424 0
    outer loop
      vertex 1.35516 1.57726 0
      vertex 0.954915 2.06107 5
      vertex 0.954915 2.06107 0
    endloop
  endfacet
  facet normal -0.770513 -0.637424 0
    outer loop
      vertex 0.954915 2.06107 5
      vertex 1.35516 1.57726 0
      vertex 1.35516 1.57726 5
    endloop
  endfacet
  facet normal 0 0 -1
    outer loop
      vertex 8.625 0.00986671 0
      vertex 4.68605 0.00986671 0
      vertex 8.625 4 0
    endloop
  endfacet
  facet normal 0 0 -1
    outer loop
      vertex 12.625 4 0
      vertex 8.625 4 0
      vertex 12.625 94.25 0
    endloop
  endfacet
  facet normal 0 0 -1
    outer loop
      vertex 95.625 4 0
      vertex 104.25 5 0
      vertex 104.211 4.37333 0
    endloop
  endfacet
  facet normal 0 0 -1
    outer loop
      vertex 104.25 5 0
      vertex 91.625 94.25 0
      vertex 104.25 99.25 0
    endloop
  endfacet
  facet normal 0 0 -1
    outer loop
      vertex 95.625 4 0
      vertex 104.211 4.37333 0
      vertex 104.093 3.75655 0
    endloop
  endfacet
  facet normal 0 -0 -1
    outer loop
      vertex 99.5639 104.24 0
      vertex 104.25 99.25 0
      vertex 91.625 94.25 0
    endloop
  endfacet
  facet normal 0 0 -1
    outer loop
      vertex 95.625 4 0
      vertex 104.093 3.75655 0
      vertex 103.899 3.15938 0
    endloop
  endfacet
  facet normal 0 0 -1
    outer loop
      vertex 104.25 99.25 0
      vertex 99.5639 104.24 0
      vertex 104.211 99.8767 0
    endloop
  endfacet
  facet normal 0 0 -1
    outer loop
      vertex 95.625 4 0
      vertex 103.899 3.15938 0
      vertex 103.632 2.59123 0
    endloop
  endfacet
  facet normal 0 0 -1
    outer loop
      vertex 104.211 99.8767 0
      vertex 99.5639 104.24 0
      vertex 104.093 100.493 0
    endloop
  endfacet
  facet normal 0 0 -1
    outer loop
      vertex 95.625 4 0
      vertex 103.632 2.59123 0
      vertex 103.295 2.06107 0
    endloop
  endfacet
  facet normal 0 0 -1
    outer loop
      vertex 104.093 100.493 0
      vertex 99.5639 104.24 0
      vertex 103.899 101.091 0
    endloop
  endfacet
  facet normal 0 0 -1
    outer loop
      vertex 95.625 4 0
      vertex 103.295 2.06107 0
      vertex 102.895 1.57726 0
    endloop
  endfacet
  facet normal 0 0 -1
    outer loop
      vertex 103.899 101.091 0
      vertex 99.5639 104.24 0
      vertex 103.632 101.659 0
    endloop
  endfacet
  facet normal 0 0 -1
    outer loop
      vertex 95.625 4 0
      vertex 102.895 1.57726 0
      vertex 102.437 1.14743 0
    endloop
  endfacet
  facet normal 0 0 -1
    outer loop
      vertex 103.632 101.659 0
      vertex 99.5639 104.24 0
      vertex 103.295 102.189 0
    endloop
  endfacet
  facet normal 0 0 -1
    outer loop
      vertex 95.625 4 0
      vertex 102.437 1.14743 0
      vertex 101.929 0.778361 0
    endloop
  endfacet
  facet normal 0 0 -1
    outer loop
      vertex 103.295 102.189 0
      vertex 99.5639 104.24 0
      vertex 102.895 102.673 0
    endloop
  endfacet
  facet normal 0 0 -1
    outer loop
      vertex 95.625 4 0
      vertex 101.929 0.778361 0
      vertex 101.379 0.475865 0
    endloop
  endfacet
  facet normal 0 0 -1
    outer loop
      vertex 102.895 102.673 0
      vertex 99.5639 104.24 0
      vertex 102.437 103.103 0
    endloop
  endfacet
  facet normal 0 0 -1
    outer loop
      vertex 95.625 4 0
      vertex 101.379 0.475865 0
      vertex 100.795 0.244718 0
    endloop
  endfacet
  facet normal 0 0 -1
    outer loop
      vertex 102.437 103.103 0
      vertex 99.5639 104.24 0
      vertex 101.929 103.472 0
    endloop
  endfacet
  facet normal 0 0 -1
    outer loop
      vertex 95.625 4 0
      vertex 100.795 0.244718 0
      vertex 100.187 0.0885639 0
    endloop
  endfacet
  facet normal 0 0 -1
    outer loop
      vertex 101.929 103.472 0
      vertex 99.5639 104.24 0
      vertex 101.379 103.774 0
    endloop
  endfacet
  facet normal 0 0 -1
    outer loop
      vertex 95.625 4 0
      vertex 100.187 0.0885639 0
      vertex 99.5639 0.00986671 0
    endloop
  endfacet
  facet normal 0 0 -1
    outer loop
      vertex 101.379 103.774 0
      vertex 99.5639 104.24 0
      vertex 100.795 104.005 0
    endloop
  endfacet
  facet normal 0 0 -1
    outer loop
      vertex 95.625 4 0
      vertex 99.5639 0.00986671 0
      vertex 95.625 0.00986671 0
    endloop
  endfacet
  facet normal -0 0 -1
    outer loop
      vertex 104.25 5 0
      vertex 95.625 4 0
      vertex 91.625 94.25 0
    endloop
  endfacet
  facet normal 0 0 -1
    outer loop
      vertex 91.625 94.25 0
      vertex 95.625 4 0
      vertex 91.625 4 0
    endloop
  endfacet
  facet normal 0 0 -1
    outer loop
      vertex 100.795 104.005 0
      vertex 99.5639 104.24 0
      vertex 100.187 104.161 0
    endloop
  endfacet
  facet normal 0 0 -1
    outer loop
      vertex 12.625 94.25 0
      vertex 99.5639 104.24 0
      vertex 91.625 94.25 0
    endloop
  endfacet
  facet normal 0 0 -1
    outer loop
      vertex 4.06309 0.0885639 0
      vertex 8.625 4 0
      vertex 4.68605 0.00986671 0
    endloop
  endfacet
  facet normal 0 0 -1
    outer loop
      vertex 12.625 94.25 0
      vertex 4.68605 104.24 0
      vertex 99.5639 104.24 0
    endloop
  endfacet
  facet normal 0 0 -1
    outer loop
      vertex 8.625 4 0
      vertex 0 5 0
      vertex 12.625 94.25 0
    endloop
  endfacet
  facet normal 0 0 -1
    outer loop
      vertex 3.45492 0.244718 0
      vertex 8.625 4 0
      vertex 4.06309 0.0885639 0
    endloop
  endfacet
  facet normal 0 0 -1
    outer loop
      vertex 0 99.25 0
      vertex 12.625 94.25 0
      vertex 0 5 0
    endloop
  endfacet
  facet normal 0 0 -1
    outer loop
      vertex 2.8711 0.475865 0
      vertex 8.625 4 0
      vertex 3.45492 0.244718 0
    endloop
  endfacet
  facet normal 0 0 -1
    outer loop
      vertex 12.625 94.25 0
      vertex 0 99.25 0
      vertex 4.68605 104.24 0
    endloop
  endfacet
  facet normal 0 0 -1
    outer loop
      vertex 2.32087 0.778361 0
      vertex 8.625 4 0
      vertex 2.8711 0.475865 0
    endloop
  endfacet
  facet normal 0 0 -1
    outer loop
      vertex 4.68605 104.24 0
      vertex 0 99.25 0
      vertex 4.06309 104.161 0
    endloop
  endfacet
  facet normal 0 0 -1
    outer loop
      vertex 1.81288 1.14743 0
      vertex 8.625 4 0
      vertex 2.32087 0.778361 0
    endloop
  endfacet
  facet normal 0 0 -1
    outer loop
      vertex 4.06309 104.161 0
      vertex 0 99.25 0
      vertex 3.45492 104.005 0
    endloop
  endfacet
  facet normal 0 0 -1
    outer loop
      vertex 1.35516 1.57726 0
      vertex 8.625 4 0
      vertex 1.81288 1.14743 0
    endloop
  endfacet
  facet normal 0 0 -1
    outer loop
      vertex 3.45492 104.005 0
      vertex 0 99.25 0
      vertex 2.8711 103.774 0
    endloop
  endfacet
  facet normal 0 0 -1
    outer loop
      vertex 0.954915 2.06107 0
      vertex 8.625 4 0
      vertex 1.35516 1.57726 0
    endloop
  endfacet
  facet normal 0 0 -1
    outer loop
      vertex 2.8711 103.774 0
      vertex 0 99.25 0
      vertex 2.32087 103.472 0
    endloop
  endfacet
  facet normal 0 0 -1
    outer loop
      vertex 0.618467 2.59123 0
      vertex 8.625 4 0
      vertex 0.954915 2.06107 0
    endloop
  endfacet
  facet normal 0 0 -1
    outer loop
      vertex 2.32087 103.472 0
      vertex 0 99.25 0
      vertex 1.81288 103.103 0
    endloop
  endfacet
  facet normal 0 0 -1
    outer loop
      vertex 0.351118 3.15938 0
      vertex 8.625 4 0
      vertex 0.618467 2.59123 0
    endloop
  endfacet
  facet normal 0 0 -1
    outer loop
      vertex 1.81288 103.103 0
      vertex 0 99.25 0
      vertex 1.35516 102.673 0
    endloop
  endfacet
  facet normal 0 0 -1
    outer loop
      vertex 0.157084 3.75655 0
      vertex 8.625 4 0
      vertex 0.351118 3.15938 0
    endloop
  endfacet
  facet normal 0 0 -1
    outer loop
      vertex 1.35516 102.673 0
      vertex 0 99.25 0
      vertex 0.954915 102.189 0
    endloop
  endfacet
  facet normal 0 0 -1
    outer loop
      vertex 0.0394268 4.37333 0
      vertex 8.625 4 0
      vertex 0.157084 3.75655 0
    endloop
  endfacet
  facet normal 0 0 -1
    outer loop
      vertex 0.954915 102.189 0
      vertex 0 99.25 0
      vertex 0.618467 101.659 0
    endloop
  endfacet
  facet normal 0 0 -1
    outer loop
      vertex 8.625 4 0
      vertex 0.0394268 4.37333 0
      vertex 0 5 0
    endloop
  endfacet
  facet normal 0 0 -1
    outer loop
      vertex 0.618467 101.659 0
      vertex 0 99.25 0
      vertex 0.351118 101.091 0
    endloop
  endfacet
  facet normal 0 0 -1
    outer loop
      vertex 0.351118 101.091 0
      vertex 0 99.25 0
      vertex 0.157084 100.493 0
    endloop
  endfacet
  facet normal 0 0 -1
    outer loop
      vertex 0.157084 100.493 0
      vertex 0 99.25 0
      vertex 0.0394268 99.8767 0
    endloop
  endfacet
  facet normal -0.24869 -0.968583 0
    outer loop
      vertex 3.45492 0.244718 0
      vertex 4.06309 0.0885639 5
      vertex 3.45492 0.244718 5
    endloop
  endfacet
  facet normal -0.24869 -0.968583 -0
    outer loop
      vertex 4.06309 0.0885639 5
      vertex 3.45492 0.244718 0
      vertex 4.06309 0.0885639 0
    endloop
  endfacet
  facet normal -0.481754 -0.876307 0
    outer loop
      vertex 2.32087 0.778361 0
      vertex 2.8711 0.475865 5
      vertex 2.32087 0.778361 5
    endloop
  endfacet
  facet normal -0.481754 -0.876307 -0
    outer loop
      vertex 2.8711 0.475865 5
      vertex 2.32087 0.778361 0
      vertex 2.8711 0.475865 0
    endloop
  endfacet
  facet normal -0.587785 -0.809017 0
    outer loop
      vertex 1.81288 1.14743 0
      vertex 2.32087 0.778361 5
      vertex 1.81288 1.14743 5
    endloop
  endfacet
  facet normal -0.587785 -0.809017 -0
    outer loop
      vertex 2.32087 0.778361 5
      vertex 1.81288 1.14743 0
      vertex 2.32087 0.778361 0
    endloop
  endfacet
  facet normal -0.998027 0.0627913 0
    outer loop
      vertex 0 99.25 0
      vertex 0.0394268 99.8767 5
      vertex 0.0394268 99.8767 0
    endloop
  endfacet
  facet normal -0.998027 0.0627913 0
    outer loop
      vertex 0.0394268 99.8767 5
      vertex 0 99.25 0
      vertex 0 99.25 5
    endloop
  endfacet
  facet normal -0.684548 0.728968 0
    outer loop
      vertex 1.81288 103.103 0
      vertex 1.35516 102.673 5
      vertex 1.81288 103.103 5
    endloop
  endfacet
  facet normal -0.684548 0.728968 0
    outer loop
      vertex 1.35516 102.673 5
      vertex 1.81288 103.103 0
      vertex 1.35516 102.673 0
    endloop
  endfacet
  facet normal 0.904827 0.425779 0
    outer loop
      vertex 103.899 101.091 5
      vertex 103.632 101.659 0
      vertex 103.632 101.659 5
    endloop
  endfacet
  facet normal 0.904827 0.425779 0
    outer loop
      vertex 103.632 101.659 0
      vertex 103.899 101.091 5
      vertex 103.899 101.091 0
    endloop
  endfacet
  facet normal 0.684547 0.728969 -0
    outer loop
      vertex 102.895 102.673 0
      vertex 102.437 103.103 5
      vertex 102.895 102.673 5
    endloop
  endfacet
  facet normal 0.684547 0.728969 0
    outer loop
      vertex 102.437 103.103 5
      vertex 102.895 102.673 0
      vertex 102.437 103.103 0
    endloop
  endfacet
  facet normal 0.770517 0.637419 0
    outer loop
      vertex 103.295 102.189 5
      vertex 102.895 102.673 0
      vertex 102.895 102.673 5
    endloop
  endfacet
  facet normal 0.770517 0.637419 0
    outer loop
      vertex 102.895 102.673 0
      vertex 103.295 102.189 5
      vertex 103.295 102.189 0
    endloop
  endfacet
  facet normal -0.481747 0.87631 0
    outer loop
      vertex 2.8711 103.774 0
      vertex 2.32087 103.472 5
      vertex 2.8711 103.774 5
    endloop
  endfacet
  facet normal -0.481747 0.87631 0
    outer loop
      vertex 2.32087 103.472 5
      vertex 2.8711 103.774 0
      vertex 2.32087 103.472 0
    endloop
  endfacet
  facet normal -0.844329 -0.535826 0
    outer loop
      vertex 0.954915 2.06107 0
      vertex 0.618467 2.59123 5
      vertex 0.618467 2.59123 0
    endloop
  endfacet
  facet normal -0.844329 -0.535826 0
    outer loop
      vertex 0.618467 2.59123 5
      vertex 0.954915 2.06107 0
      vertex 0.954915 2.06107 5
    endloop
  endfacet
  facet normal -0.904827 -0.425779 0
    outer loop
      vertex 0.618467 2.59123 0
      vertex 0.351118 3.15938 5
      vertex 0.351118 3.15938 0
    endloop
  endfacet
  facet normal -0.904827 -0.425779 0
    outer loop
      vertex 0.351118 3.15938 5
      vertex 0.618467 2.59123 0
      vertex 0.618467 2.59123 5
    endloop
  endfacet
  facet normal -0.982287 -0.187381 0
    outer loop
      vertex 0.157084 3.75655 0
      vertex 0.0394268 4.37333 5
      vertex 0.0394268 4.37333 0
    endloop
  endfacet
  facet normal -0.982287 -0.187381 0
    outer loop
      vertex 0.0394268 4.37333 5
      vertex 0.157084 3.75655 0
      vertex 0.157084 3.75655 5
    endloop
  endfacet
  facet normal -0.998027 -0.062791 0
    outer loop
      vertex 0.0394268 4.37333 0
      vertex 0 5 5
      vertex 0 5 0
    endloop
  endfacet
  facet normal -0.998027 -0.062791 0
    outer loop
      vertex 0 5 5
      vertex 0.0394268 4.37333 0
      vertex 0.0394268 4.37333 5
    endloop
  endfacet
  facet normal -0.770514 0.637423 0
    outer loop
      vertex 0.954915 102.189 0
      vertex 1.35516 102.673 5
      vertex 1.35516 102.673 0
    endloop
  endfacet
  facet normal -0.770514 0.637423 0
    outer loop
      vertex 1.35516 102.673 5
      vertex 0.954915 102.189 0
      vertex 0.954915 102.189 5
    endloop
  endfacet
  facet normal 0.481751 0.876308 -0
    outer loop
      vertex 101.929 103.472 0
      vertex 101.379 103.774 5
      vertex 101.929 103.472 5
    endloop
  endfacet
  facet normal 0.481751 0.876308 0
    outer loop
      vertex 101.379 103.774 5
      vertex 101.929 103.472 0
      vertex 101.379 103.774 0
    endloop
  endfacet
  facet normal 0.587782 0.809019 -0
    outer loop
      vertex 102.437 103.103 0
      vertex 101.929 103.472 5
      vertex 102.437 103.103 5
    endloop
  endfacet
  facet normal 0.587782 0.809019 0
    outer loop
      vertex 101.929 103.472 5
      vertex 102.437 103.103 0
      vertex 101.929 103.472 0
    endloop
  endfacet
  facet normal 0.125333 0.992115 -0
    outer loop
      vertex 100.187 104.161 0
      vertex 99.5639 104.24 5
      vertex 100.187 104.161 5
    endloop
  endfacet
  facet normal 0.125333 0.992115 0
    outer loop
      vertex 99.5639 104.24 5
      vertex 100.187 104.161 0
      vertex 99.5639 104.24 0
    endloop
  endfacet
  facet normal 0.248697 0.968581 -0
    outer loop
      vertex 100.795 104.005 0
      vertex 100.187 104.161 5
      vertex 100.795 104.005 5
    endloop
  endfacet
  facet normal 0.248697 0.968581 0
    outer loop
      vertex 100.187 104.161 5
      vertex 100.795 104.005 0
      vertex 100.187 104.161 0
    endloop
  endfacet
  facet normal 1 -0 0
    outer loop
      vertex 4 4 3.5
      vertex 4 100.25 1
      vertex 4 100.25 3.5
    endloop
  endfacet
  facet normal 1 0 0
    outer loop
      vertex 4 100.25 1
      vertex 4 4 3.5
      vertex 4 4 1
    endloop
  endfacet
  facet normal -1 0 0
    outer loop
      vertex 100.25 4 1
      vertex 100.25 100.25 3.5
      vertex 100.25 100.25 1
    endloop
  endfacet
  facet normal -1 -0 0
    outer loop
      vertex 100.25 100.25 3.5
      vertex 100.25 4 1
      vertex 100.25 4 3.5
    endloop
  endfacet
  facet normal -0 0 1
    outer loop
      vertex 91.625 94.25 1
      vertex 100.25 4 1
      vertex 100.25 100.25 1
    endloop
  endfacet
  facet normal 0 0 1
    outer loop
      vertex 100.25 4 1
      vertex 91.625 94.25 1
      vertex 95.625 4 1
    endloop
  endfacet
  facet normal 0 0 1
    outer loop
      vertex 100.25 100.25 1
      vertex 12.625 94.25 1
      vertex 91.625 94.25 1
    endloop
  endfacet
  facet normal 0 0 1
    outer loop
      vertex 12.625 94.25 1
      vertex 8.625 4 1
      vertex 12.625 4 1
    endloop
  endfacet
  facet normal -0 0 1
    outer loop
      vertex 4 100.25 1
      vertex 12.625 94.25 1
      vertex 100.25 100.25 1
    endloop
  endfacet
  facet normal 0 0 1
    outer loop
      vertex 4 4 1
      vertex 12.625 94.25 1
      vertex 4 100.25 1
    endloop
  endfacet
  facet normal 0 0 1
    outer loop
      vertex 12.625 94.25 1
      vertex 4 4 1
      vertex 8.625 4 1
    endloop
  endfacet
  facet normal 0 0 1
    outer loop
      vertex 95.625 4 1
      vertex 91.625 94.25 1
      vertex 91.625 4 1
    endloop
  endfacet
  facet normal 0 1 0
    outer loop
      vertex 8.625 4 3.5
      vertex 8 4 2.5
      vertex 8 4 3.5
    endloop
  endfacet
  facet normal 0 1 0
    outer loop
      vertex 8 4 2.5
      vertex 8.625 4 1
      vertex 5 4 2.5
    endloop
  endfacet
  facet normal 0 1 -0
    outer loop
      vertex 8.625 4 1
      vertex 8 4 2.5
      vertex 8.625 4 3.5
    endloop
  endfacet
  facet normal 0 1 -0
    outer loop
      vertex 5 4 2.5
      vertex 4 4 3.5
      vertex 5 4 3.5
    endloop
  endfacet
  facet normal 0 1 0
    outer loop
      vertex 5 4 2.5
      vertex 4 4 1
      vertex 4 4 3.5
    endloop
  endfacet
  facet normal 0 1 0
    outer loop
      vertex 4 4 1
      vertex 5 4 2.5
      vertex 8.625 4 1
    endloop
  endfacet
  facet normal 0 1 0
    outer loop
      vertex 100.25 4 3.5
      vertex 99.25 4 2.5
      vertex 99.25 4 3.5
    endloop
  endfacet
  facet normal 0 1 0
    outer loop
      vertex 95.625 4 1
      vertex 99.25 4 2.5
      vertex 100.25 4 1
    endloop
  endfacet
  facet normal 0 1 -0
    outer loop
      vertex 100.25 4 1
      vertex 99.25 4 2.5
      vertex 100.25 4 3.5
    endloop
  endfacet
  facet normal 0 1 -0
    outer loop
      vertex 96.25 4 2.5
      vertex 95.625 4 3.5
      vertex 96.25 4 3.5
    endloop
  endfacet
  facet normal 0 1 0
    outer loop
      vertex 96.25 4 2.5
      vertex 95.625 4 1
      vertex 95.625 4 3.5
    endloop
  endfacet
  facet normal 0 1 0
    outer loop
      vertex 99.25 4 2.5
      vertex 95.625 4 1
      vertex 96.25 4 2.5
    endloop
  endfacet
  facet normal 0 -1 0
    outer loop
      vertex 8.625 4 0
      vertex 12.625 4 1
      vertex 8.625 4 1
    endloop
  endfacet
  facet normal 0 -1 -0
    outer loop
      vertex 12.625 4 1
      vertex 8.625 4 0
      vertex 12.625 4 0
    endloop
  endfacet
  facet normal 0 -1 0
    outer loop
      vertex 91.625 4 0
      vertex 95.625 4 1
      vertex 91.625 4 1
    endloop
  endfacet
  facet normal 0 -1 -0
    outer loop
      vertex 95.625 4 1
      vertex 91.625 4 0
      vertex 95.625 4 0
    endloop
  endfacet
  facet normal 0 -1 0
    outer loop
      vertex 4 100.25 3.5
      vertex 5 100.25 2.5
      vertex 5 100.25 3.5
    endloop
  endfacet
  facet normal 0 -1 0
    outer loop
      vertex 4 100.25 1
      vertex 8 100.25 2.5
      vertex 5 100.25 2.5
    endloop
  endfacet
  facet normal 0 -1 -0
    outer loop
      vertex 8 100.25 2.5
      vertex 4 100.25 1
      vertex 96.25 100.25 2.5
    endloop
  endfacet
  facet normal 0 -1 0
    outer loop
      vertex 100.25 100.25 1
      vertex 96.25 100.25 2.5
      vertex 4 100.25 1
    endloop
  endfacet
  facet normal 0 -1 0
    outer loop
      vertex 4 100.25 1
      vertex 5 100.25 2.5
      vertex 4 100.25 3.5
    endloop
  endfacet
  facet normal 0 -1 0
    outer loop
      vertex 8 100.25 2.5
      vertex 96.25 100.25 3.5
      vertex 8 100.25 3.5
    endloop
  endfacet
  facet normal 0 -1 -0
    outer loop
      vertex 96.25 100.25 3.5
      vertex 8 100.25 2.5
      vertex 96.25 100.25 2.5
    endloop
  endfacet
  facet normal 0 -1 0
    outer loop
      vertex 99.25 100.25 2.5
      vertex 100.25 100.25 3.5
      vertex 99.25 100.25 3.5
    endloop
  endfacet
  facet normal 0 -1 0
    outer loop
      vertex 99.25 100.25 2.5
      vertex 100.25 100.25 1
      vertex 100.25 100.25 3.5
    endloop
  endfacet
  facet normal 0 -1 0
    outer loop
      vertex 96.25 100.25 2.5
      vertex 100.25 100.25 1
      vertex 99.25 100.25 2.5
    endloop
  endfacet
  facet normal 1 -0 0
    outer loop
      vertex 12.625 4 1
      vertex 12.625 94.25 0
      vertex 12.625 94.25 1
    endloop
  endfacet
  facet normal 1 0 0
    outer loop
      vertex 12.625 94.25 0
      vertex 12.625 4 1
      vertex 12.625 4 0
    endloop
  endfacet
  facet normal -1 0 0
    outer loop
      vertex 91.625 4 0
      vertex 91.625 94.25 1
      vertex 91.625 94.25 0
    endloop
  endfacet
  facet normal -1 -0 0
    outer loop
      vertex 91.625 94.25 1
      vertex 91.625 4 0
      vertex 91.625 4 1
    endloop
  endfacet
  facet normal 0 -1 0
    outer loop
      vertex 12.625 94.25 0
      vertex 91.625 94.25 1
      vertex 12.625 94.25 1
    endloop
  endfacet
  facet normal 0 -1 -0
    outer loop
      vertex 91.625 94.25 1
      vertex 12.625 94.25 0
      vertex 91.625 94.25 0
    endloop
  endfacet
  facet normal 1 -0 0
    outer loop
      vertex 5 100.25 3.5
      vertex 5 100.75 2.5
      vertex 5 100.75 3.5
    endloop
  endfacet
  facet normal 1 0 0
    outer loop
      vertex 5 100.75 2.5
      vertex 5 100.25 3.5
      vertex 5 100.25 2.5
    endloop
  endfacet
  facet normal 0 0 1
    outer loop
      vertex 96.25 100.25 3.5
      vertex 8 100.75 3.5
      vertex 8 100.25 3.5
    endloop
  endfacet
  facet normal 0 0 1
    outer loop
      vertex 96.25 4 3.5
      vertex 95.625 4 3.5
      vertex 96.25 3.5 3.5
    endloop
  endfacet
  facet normal 0 0 1
    outer loop
      vertex 98.7951 102.005 3.5
      vertex 99.25 100.75 3.5
      vertex 99.3789 101.774 3.5
    endloop
  endfacet
  facet normal 0 0 1
    outer loop
      vertex 98.1869 102.161 3.5
      vertex 99.25 100.75 3.5
      vertex 98.7951 102.005 3.5
    endloop
  endfacet
  facet normal 0 0 1
    outer loop
      vertex 96.25 100.75 3.5
      vertex 98.1869 102.161 3.5
      vertex 97.5639 102.24 3.5
    endloop
  endfacet
  facet normal 0 0 1
    outer loop
      vertex 98.1869 102.161 3.5
      vertex 96.25 100.75 3.5
      vertex 99.25 100.75 3.5
    endloop
  endfacet
  facet normal 0 0 1
    outer loop
      vertex 96.25 100.75 3.5
      vertex 8 100.75 3.5
      vertex 96.25 100.25 3.5
    endloop
  endfacet
  facet normal 0 0 1
    outer loop
      vertex 97.5639 102.24 3.5
      vertex 8 100.75 3.5
      vertex 96.25 100.75 3.5
    endloop
  endfacet
  facet normal -0 0 1
    outer loop
      vertex 6.68605 102.24 3.5
      vertex 8 100.75 3.5
      vertex 97.5639 102.24 3.5
    endloop
  endfacet
  facet normal -0 0 1
    outer loop
      vertex 6.06309 102.161 3.5
      vertex 8 100.75 3.5
      vertex 6.68605 102.24 3.5
    endloop
  endfacet
  facet normal 0 0 1
    outer loop
      vertex 5 100.75 3.5
      vertex 6.06309 102.161 3.5
      vertex 5.45492 102.005 3.5
    endloop
  endfacet
  facet normal 0 0 1
    outer loop
      vertex 6.06309 102.161 3.5
      vertex 5 100.75 3.5
      vertex 8 100.75 3.5
    endloop
  endfacet
  facet normal -0 0 1
    outer loop
      vertex 4.8711 101.774 3.5
      vertex 5 100.75 3.5
      vertex 5.45492 102.005 3.5
    endloop
  endfacet
  facet normal -0 0 1
    outer loop
      vertex 4.32087 101.472 3.5
      vertex 5 100.75 3.5
      vertex 4.8711 101.774 3.5
    endloop
  endfacet
  facet normal -0 0 1
    outer loop
      vertex 3.81288 101.103 3.5
      vertex 5 100.75 3.5
      vertex 4.32087 101.472 3.5
    endloop
  endfacet
  facet normal 0 0 1
    outer loop
      vertex 5 100.75 3.5
      vertex 4 100.25 3.5
      vertex 5 100.25 3.5
    endloop
  endfacet
  facet normal -0 0 1
    outer loop
      vertex 3.35516 100.673 3.5
      vertex 4 100.25 3.5
      vertex 3.81288 101.103 3.5
    endloop
  endfacet
  facet normal 0 0 1
    outer loop
      vertex 5 100.75 3.5
      vertex 3.81288 101.103 3.5
      vertex 4 100.25 3.5
    endloop
  endfacet
  facet normal 0 0 1
    outer loop
      vertex 100.25 100.25 3.5
      vertex 102.25 97.25 3.5
      vertex 102.211 97.8767 3.5
    endloop
  endfacet
  facet normal 0 0 1
    outer loop
      vertex 102.25 97.25 3.5
      vertex 100.25 100.25 3.5
      vertex 102.25 7 3.5
    endloop
  endfacet
  facet normal 0 0 1
    outer loop
      vertex 100.25 100.25 3.5
      vertex 102.211 97.8767 3.5
      vertex 102.093 98.4934 3.5
    endloop
  endfacet
  facet normal 0 0 1
    outer loop
      vertex 100.25 4 3.5
      vertex 102.25 7 3.5
      vertex 100.25 100.25 3.5
    endloop
  endfacet
  facet normal 0 0 1
    outer loop
      vertex 100.25 100.25 3.5
      vertex 102.093 98.4934 3.5
      vertex 101.899 99.0906 3.5
    endloop
  endfacet
  facet normal 0 0 1
    outer loop
      vertex 102.25 7 3.5
      vertex 100.25 4 3.5
      vertex 102.211 6.37333 3.5
    endloop
  endfacet
  facet normal 0 0 1
    outer loop
      vertex 100.25 100.25 3.5
      vertex 101.899 99.0906 3.5
      vertex 101.632 99.6588 3.5
    endloop
  endfacet
  facet normal 0 0 1
    outer loop
      vertex 102.211 6.37333 3.5
      vertex 100.25 4 3.5
      vertex 102.093 5.75655 3.5
    endloop
  endfacet
  facet normal 0 0 1
    outer loop
      vertex 100.25 100.25 3.5
      vertex 101.632 99.6588 3.5
      vertex 101.295 100.189 3.5
    endloop
  endfacet
  facet normal 0 0 1
    outer loop
      vertex 102.093 5.75655 3.5
      vertex 100.25 4 3.5
      vertex 101.899 5.15938 3.5
    endloop
  endfacet
  facet normal -0 0 1
    outer loop
      vertex 100.25 100.25 3.5
      vertex 101.295 100.189 3.5
      vertex 100.895 100.673 3.5
    endloop
  endfacet
  facet normal 0 0 1
    outer loop
      vertex 101.899 5.15938 3.5
      vertex 100.25 4 3.5
      vertex 101.632 4.59123 3.5
    endloop
  endfacet
  facet normal 0 0 1
    outer loop
      vertex 100.25 100.25 3.5
      vertex 100.895 100.673 3.5
      vertex 100.437 101.103 3.5
    endloop
  endfacet
  facet normal 0 0 1
    outer loop
      vertex 101.632 4.59123 3.5
      vertex 100.25 4 3.5
      vertex 101.295 4.06107 3.5
    endloop
  endfacet
  facet normal 0 0 1
    outer loop
      vertex 101.295 4.06107 3.5
      vertex 100.25 4 3.5
      vertex 100.895 3.57726 3.5
    endloop
  endfacet
  facet normal 0 0 1
    outer loop
      vertex 99.25 100.75 3.5
      vertex 100.437 101.103 3.5
      vertex 99.9291 101.472 3.5
    endloop
  endfacet
  facet normal 0 0 1
    outer loop
      vertex 99.25 100.75 3.5
      vertex 99.9291 101.472 3.5
      vertex 99.3789 101.774 3.5
    endloop
  endfacet
  facet normal 0 0 1
    outer loop
      vertex 100.437 101.103 3.5
      vertex 99.25 100.75 3.5
      vertex 100.25 100.25 3.5
    endloop
  endfacet
  facet normal 0 0 1
    outer loop
      vertex 100.25 100.25 3.5
      vertex 99.25 100.75 3.5
      vertex 99.25 100.25 3.5
    endloop
  endfacet
  facet normal 0 0 1
    outer loop
      vertex 100.895 3.57726 3.5
      vertex 100.25 4 3.5
      vertex 100.437 3.14743 3.5
    endloop
  endfacet
  facet normal -0 0 1
    outer loop
      vertex 99.25 3.5 3.5
      vertex 100.437 3.14743 3.5
      vertex 100.25 4 3.5
    endloop
  endfacet
  facet normal 0 0 1
    outer loop
      vertex 100.437 3.14743 3.5
      vertex 99.25 3.5 3.5
      vertex 99.9291 2.77836 3.5
    endloop
  endfacet
  facet normal 0 0 1
    outer loop
      vertex 99.25 3.5 3.5
      vertex 100.25 4 3.5
      vertex 99.25 4 3.5
    endloop
  endfacet
  facet normal 0 0 1
    outer loop
      vertex 99.9291 2.77836 3.5
      vertex 99.25 3.5 3.5
      vertex 99.3789 2.47587 3.5
    endloop
  endfacet
  facet normal 0 0 1
    outer loop
      vertex 99.25 3.5 3.5
      vertex 98.7951 2.24472 3.5
      vertex 99.3789 2.47587 3.5
    endloop
  endfacet
  facet normal 0 0 1
    outer loop
      vertex 99.25 3.5 3.5
      vertex 98.1869 2.08856 3.5
      vertex 98.7951 2.24472 3.5
    endloop
  endfacet
  facet normal -0 0 1
    outer loop
      vertex 96.25 3.5 3.5
      vertex 98.1869 2.08856 3.5
      vertex 99.25 3.5 3.5
    endloop
  endfacet
  facet normal 0 0 1
    outer loop
      vertex 98.1869 2.08856 3.5
      vertex 96.25 3.5 3.5
      vertex 97.5639 2.00987 3.5
    endloop
  endfacet
  facet normal 0 0 1
    outer loop
      vertex 95.625 2.00987 3.5
      vertex 96.25 3.5 3.5
      vertex 95.625 4 3.5
    endloop
  endfacet
  facet normal 0 0 1
    outer loop
      vertex 96.25 3.5 3.5
      vertex 95.625 2.00987 3.5
      vertex 97.5639 2.00987 3.5
    endloop
  endfacet
  facet normal -0 0 1
    outer loop
      vertex 4 4 3.5
      vertex 5 3.5 3.5
      vertex 5 4 3.5
    endloop
  endfacet
  facet normal 0 0 1
    outer loop
      vertex 5 3.5 3.5
      vertex 4.32087 2.77836 3.5
      vertex 4.8711 2.47587 3.5
    endloop
  endfacet
  facet normal 0 0 1
    outer loop
      vertex 3.81288 3.14743 3.5
      vertex 5 3.5 3.5
      vertex 4 4 3.5
    endloop
  endfacet
  facet normal 0 0 1
    outer loop
      vertex 5 3.5 3.5
      vertex 3.81288 3.14743 3.5
      vertex 4.32087 2.77836 3.5
    endloop
  endfacet
  facet normal 0 0 1
    outer loop
      vertex 4 100.25 3.5
      vertex 2 97.25 3.5
      vertex 4 4 3.5
    endloop
  endfacet
  facet normal 0 0 1
    outer loop
      vertex 2.95492 100.189 3.5
      vertex 4 100.25 3.5
      vertex 3.35516 100.673 3.5
    endloop
  endfacet
  facet normal -0 0 1
    outer loop
      vertex 2 7 3.5
      vertex 4 4 3.5
      vertex 2 97.25 3.5
    endloop
  endfacet
  facet normal 0 0 1
    outer loop
      vertex 2.61847 99.6588 3.5
      vertex 4 100.25 3.5
      vertex 2.95492 100.189 3.5
    endloop
  endfacet
  facet normal -0 -0 1
    outer loop
      vertex 2.03943 6.37333 3.5
      vertex 4 4 3.5
      vertex 2 7 3.5
    endloop
  endfacet
  facet normal 0 0 1
    outer loop
      vertex 2.35112 99.0906 3.5
      vertex 4 100.25 3.5
      vertex 2.61847 99.6588 3.5
    endloop
  endfacet
  facet normal 0 0 1
    outer loop
      vertex 4 4 3.5
      vertex 3.35516 3.57726 3.5
      vertex 3.81288 3.14743 3.5
    endloop
  endfacet
  facet normal 0 0 1
    outer loop
      vertex 2.15708 98.4934 3.5
      vertex 4 100.25 3.5
      vertex 2.35112 99.0906 3.5
    endloop
  endfacet
  facet normal 0 0 1
    outer loop
      vertex 4 4 3.5
      vertex 2.95492 4.06107 3.5
      vertex 3.35516 3.57726 3.5
    endloop
  endfacet
  facet normal 0 0 1
    outer loop
      vertex 2.03943 97.8767 3.5
      vertex 4 100.25 3.5
      vertex 2.15708 98.4934 3.5
    endloop
  endfacet
  facet normal 0 0 1
    outer loop
      vertex 4 4 3.5
      vertex 2.61847 4.59123 3.5
      vertex 2.95492 4.06107 3.5
    endloop
  endfacet
  facet normal 0 0 1
    outer loop
      vertex 4 100.25 3.5
      vertex 2.03943 97.8767 3.5
      vertex 2 97.25 3.5
    endloop
  endfacet
  facet normal 0 0 1
    outer loop
      vertex 4 4 3.5
      vertex 2.35112 5.15938 3.5
      vertex 2.61847 4.59123 3.5
    endloop
  endfacet
  facet normal 0 0 1
    outer loop
      vertex 4 4 3.5
      vertex 2.15708 5.75655 3.5
      vertex 2.35112 5.15938 3.5
    endloop
  endfacet
  facet normal 0 0 1
    outer loop
      vertex 4 4 3.5
      vertex 2.03943 6.37333 3.5
      vertex 2.15708 5.75655 3.5
    endloop
  endfacet
  facet normal 0 0 1
    outer loop
      vertex 8 3.5 3.5
      vertex 8.625 4 3.5
      vertex 8 4 3.5
    endloop
  endfacet
  facet normal 0 0 1
    outer loop
      vertex 8.625 4 3.5
      vertex 8 3.5 3.5
      vertex 8.625 2.00987 3.5
    endloop
  endfacet
  facet normal 0 0 1
    outer loop
      vertex 8 3.5 3.5
      vertex 6.68605 2.00987 3.5
      vertex 8.625 2.00987 3.5
    endloop
  endfacet
  facet normal 0 0 1
    outer loop
      vertex 8 3.5 3.5
      vertex 6.06309 2.08856 3.5
      vertex 6.68605 2.00987 3.5
    endloop
  endfacet
  facet normal -0 0 1
    outer loop
      vertex 5 3.5 3.5
      vertex 6.06309 2.08856 3.5
      vertex 8 3.5 3.5
    endloop
  endfacet
  facet normal 0 0 1
    outer loop
      vertex 6.06309 2.08856 3.5
      vertex 5 3.5 3.5
      vertex 5.45492 2.24472 3.5
    endloop
  endfacet
  facet normal 0 0 1
    outer loop
      vertex 5.45492 2.24472 3.5
      vertex 5 3.5 3.5
      vertex 4.8711 2.47587 3.5
    endloop
  endfacet
  facet normal -1 0 0
    outer loop
      vertex 8 100.25 2.5
      vertex 8 100.75 3.5
      vertex 8 100.75 2.5
    endloop
  endfacet
  facet normal -1 -0 0
    outer loop
      vertex 8 100.75 3.5
      vertex 8 100.25 2.5
      vertex 8 100.25 3.5
    endloop
  endfacet
  facet normal 0 -1 0
    outer loop
      vertex 5 100.75 2.5
      vertex 8 100.75 3.5
      vertex 5 100.75 3.5
    endloop
  endfacet
  facet normal 0 -1 -0
    outer loop
      vertex 8 100.75 3.5
      vertex 5 100.75 2.5
      vertex 8 100.75 2.5
    endloop
  endfacet
  facet normal -0 0 1
    outer loop
      vertex 5 100.75 2.5
      vertex 8 100.25 2.5
      vertex 8 100.75 2.5
    endloop
  endfacet
  facet normal 0 0 1
    outer loop
      vertex 8 100.25 2.5
      vertex 5 100.75 2.5
      vertex 5 100.25 2.5
    endloop
  endfacet
  facet normal 1 -0 0
    outer loop
      vertex 96.25 100.25 3.5
      vertex 96.25 100.75 2.5
      vertex 96.25 100.75 3.5
    endloop
  endfacet
  facet normal 1 0 0
    outer loop
      vertex 96.25 100.75 2.5
      vertex 96.25 100.25 3.5
      vertex 96.25 100.25 2.5
    endloop
  endfacet
  facet normal -1 0 0
    outer loop
      vertex 99.25 100.25 2.5
      vertex 99.25 100.75 3.5
      vertex 99.25 100.75 2.5
    endloop
  endfacet
  facet normal -1 -0 0
    outer loop
      vertex 99.25 100.75 3.5
      vertex 99.25 100.25 2.5
      vertex 99.25 100.25 3.5
    endloop
  endfacet
  facet normal -0 0 1
    outer loop
      vertex 96.25 100.75 2.5
      vertex 99.25 100.25 2.5
      vertex 99.25 100.75 2.5
    endloop
  endfacet
  facet normal 0 0 1
    outer loop
      vertex 99.25 100.25 2.5
      vertex 96.25 100.75 2.5
      vertex 96.25 100.25 2.5
    endloop
  endfacet
  facet normal 0 -1 0
    outer loop
      vertex 96.25 100.75 2.5
      vertex 99.25 100.75 3.5
      vertex 96.25 100.75 3.5
    endloop
  endfacet
  facet normal 0 -1 -0
    outer loop
      vertex 99.25 100.75 3.5
      vertex 96.25 100.75 2.5
      vertex 99.25 100.75 2.5
    endloop
  endfacet
  facet normal 1 -0 0
    outer loop
      vertex 5 3.5 3.5
      vertex 5 4 2.5
      vertex 5 4 3.5
    endloop
  endfacet
  facet normal 1 0 0
    outer loop
      vertex 5 4 2.5
      vertex 5 3.5 3.5
      vertex 5 3.5 2.5
    endloop
  endfacet
  facet normal -1 0 0
    outer loop
      vertex 8 3.5 2.5
      vertex 8 4 3.5
      vertex 8 4 2.5
    endloop
  endfacet
  facet normal -1 -0 0
    outer loop
      vertex 8 4 3.5
      vertex 8 3.5 2.5
      vertex 8 3.5 3.5
    endloop
  endfacet
  facet normal -0 0 1
    outer loop
      vertex 5 4 2.5
      vertex 8 3.5 2.5
      vertex 8 4 2.5
    endloop
  endfacet
  facet normal 0 0 1
    outer loop
      vertex 8 3.5 2.5
      vertex 5 4 2.5
      vertex 5 3.5 2.5
    endloop
  endfacet
  facet normal 0 1 -0
    outer loop
      vertex 8 3.5 2.5
      vertex 5 3.5 3.5
      vertex 8 3.5 3.5
    endloop
  endfacet
  facet normal 0 1 0
    outer loop
      vertex 5 3.5 3.5
      vertex 8 3.5 2.5
      vertex 5 3.5 2.5
    endloop
  endfacet
  facet normal 1 -0 0
    outer loop
      vertex 96.25 3.5 3.5
      vertex 96.25 4 2.5
      vertex 96.25 4 3.5
    endloop
  endfacet
  facet normal 1 0 0
    outer loop
      vertex 96.25 4 2.5
      vertex 96.25 3.5 3.5
      vertex 96.25 3.5 2.5
    endloop
  endfacet
  facet normal -1 0 0
    outer loop
      vertex 99.25 3.5 2.5
      vertex 99.25 4 3.5
      vertex 99.25 4 2.5
    endloop
  endfacet
  facet normal -1 -0 0
    outer loop
      vertex 99.25 4 3.5
      vertex 99.25 3.5 2.5
      vertex 99.25 3.5 3.5
    endloop
  endfacet
  facet normal -0 0 1
    outer loop
      vertex 96.25 4 2.5
      vertex 99.25 3.5 2.5
      vertex 99.25 4 2.5
    endloop
  endfacet
  facet normal 0 0 1
    outer loop
      vertex 99.25 3.5 2.5
      vertex 96.25 4 2.5
      vertex 96.25 3.5 2.5
    endloop
  endfacet
  facet normal 0 1 -0
    outer loop
      vertex 99.25 3.5 2.5
      vertex 96.25 3.5 3.5
      vertex 99.25 3.5 3.5
    endloop
  endfacet
  facet normal 0 1 0
    outer loop
      vertex 96.25 3.5 3.5
      vertex 99.25 3.5 2.5
      vertex 96.25 3.5 2.5
    endloop
  endfacet
  facet normal -1 0 0
    outer loop
      vertex 102.25 7 3.5
      vertex 102.25 97.25 5
      vertex 102.25 97.25 3.5
    endloop
  endfacet
  facet normal -1 -0 0
    outer loop
      vertex 102.25 97.25 5
      vertex 102.25 7 3.5
      vertex 102.25 7 5
    endloop
  endfacet
  facet normal 0.998027 0.062791 0
    outer loop
      vertex 2.03943 6.37333 5
      vertex 2 7 3.5
      vertex 2 7 5
    endloop
  endfacet
  facet normal 0.998027 0.062791 0
    outer loop
      vertex 2 7 3.5
      vertex 2.03943 6.37333 5
      vertex 2.03943 6.37333 3.5
    endloop
  endfacet
  facet normal -0.998027 0.062794 0
    outer loop
      vertex 102.211 6.37333 3.5
      vertex 102.25 7 5
      vertex 102.25 7 3.5
    endloop
  endfacet
  facet normal -0.998027 0.062794 0
    outer loop
      vertex 102.25 7 5
      vertex 102.211 6.37333 3.5
      vertex 102.211 6.37333 5
    endloop
  endfacet
  facet normal 1 -0 0
    outer loop
      vertex 2 7 5
      vertex 2 97.25 3.5
      vertex 2 97.25 5
    endloop
  endfacet
  facet normal 1 0 0
    outer loop
      vertex 2 97.25 3.5
      vertex 2 7 5
      vertex 2 7 3.5
    endloop
  endfacet
  facet normal 0 1 -0
    outer loop
      vertex 8.625 2.00987 3.5
      vertex 6.68605 2.00987 5
      vertex 8.625 2.00987 5
    endloop
  endfacet
  facet normal 0 1 0
    outer loop
      vertex 6.68605 2.00987 5
      vertex 8.625 2.00987 3.5
      vertex 6.68605 2.00987 3.5
    endloop
  endfacet
  facet normal 0 1 -0
    outer loop
      vertex 97.5639 2.00987 3.5
      vertex 95.625 2.00987 5
      vertex 97.5639 2.00987 5
    endloop
  endfacet
  facet normal 0 1 0
    outer loop
      vertex 95.625 2.00987 5
      vertex 97.5639 2.00987 3.5
      vertex 95.625 2.00987 3.5
    endloop
  endfacet
  facet normal -0.770516 0.63742 0
    outer loop
      vertex 100.895 3.57726 3.5
      vertex 101.295 4.06107 5
      vertex 101.295 4.06107 3.5
    endloop
  endfacet
  facet normal -0.770516 0.63742 0
    outer loop
      vertex 101.295 4.06107 5
      vertex 100.895 3.57726 3.5
      vertex 100.895 3.57726 5
    endloop
  endfacet
  facet normal 0.587784 -0.809018 0
    outer loop
      vertex 3.81288 101.103 3.5
      vertex 4.32087 101.472 5
      vertex 3.81288 101.103 5
    endloop
  endfacet
  facet normal 0.587784 -0.809018 0
    outer loop
      vertex 4.32087 101.472 5
      vertex 3.81288 101.103 3.5
      vertex 4.32087 101.472 3.5
    endloop
  endfacet
  facet normal -0.998026 -0.0627943 0
    outer loop
      vertex 102.25 97.25 3.5
      vertex 102.211 97.8767 5
      vertex 102.211 97.8767 3.5
    endloop
  endfacet
  facet normal -0.998026 -0.0627943 0
    outer loop
      vertex 102.211 97.8767 5
      vertex 102.25 97.25 3.5
      vertex 102.25 97.25 5
    endloop
  endfacet
  facet normal -0.951054 0.309024 0
    outer loop
      vertex 101.899 5.15938 3.5
      vertex 102.093 5.75655 5
      vertex 102.093 5.75655 3.5
    endloop
  endfacet
  facet normal -0.951054 0.309024 0
    outer loop
      vertex 102.093 5.75655 5
      vertex 101.899 5.15938 3.5
      vertex 101.899 5.15938 5
    endloop
  endfacet
  facet normal -0.684545 0.72897 0
    outer loop
      vertex 100.895 3.57726 3.5
      vertex 100.437 3.14743 5
      vertex 100.895 3.57726 5
    endloop
  endfacet
  facet normal -0.684545 0.72897 0
    outer loop
      vertex 100.437 3.14743 5
      vertex 100.895 3.57726 3.5
      vertex 100.437 3.14743 3.5
    endloop
  endfacet
  facet normal 0.125333 0.992115 -0
    outer loop
      vertex 6.68605 2.00987 3.5
      vertex 6.06309 2.08856 5
      vertex 6.68605 2.00987 5
    endloop
  endfacet
  facet normal 0.125333 0.992115 0
    outer loop
      vertex 6.06309 2.08856 5
      vertex 6.68605 2.00987 3.5
      vertex 6.06309 2.08856 3.5
    endloop
  endfacet
  facet normal -0.982289 0.187374 0
    outer loop
      vertex 102.093 5.75655 3.5
      vertex 102.211 6.37333 5
      vertex 102.211 6.37333 3.5
    endloop
  endfacet
  facet normal -0.982289 0.187374 0
    outer loop
      vertex 102.211 6.37333 5
      vertex 102.093 5.75655 3.5
      vertex 102.093 5.75655 5
    endloop
  endfacet
  facet normal 0.998027 -0.0627913 0
    outer loop
      vertex 2 97.25 5
      vertex 2.03943 97.8767 3.5
      vertex 2.03943 97.8767 5
    endloop
  endfacet
  facet normal 0.998027 -0.0627913 0
    outer loop
      vertex 2.03943 97.8767 3.5
      vertex 2 97.25 5
      vertex 2 97.25 3.5
    endloop
  endfacet
  facet normal 0.904827 -0.425779 0
    outer loop
      vertex 2.35112 99.0906 5
      vertex 2.61847 99.6588 3.5
      vertex 2.61847 99.6588 5
    endloop
  endfacet
  facet normal 0.904827 -0.425779 0
    outer loop
      vertex 2.61847 99.6588 3.5
      vertex 2.35112 99.0906 5
      vertex 2.35112 99.0906 3.5
    endloop
  endfacet
  facet normal 0 -1 0
    outer loop
      vertex 6.68605 102.24 3.5
      vertex 97.5639 102.24 5
      vertex 6.68605 102.24 5
    endloop
  endfacet
  facet normal 0 -1 -0
    outer loop
      vertex 97.5639 102.24 5
      vertex 6.68605 102.24 3.5
      vertex 97.5639 102.24 3.5
    endloop
  endfacet
  facet normal -0.982289 -0.187374 0
    outer loop
      vertex 102.211 97.8767 3.5
      vertex 102.093 98.4934 5
      vertex 102.093 98.4934 3.5
    endloop
  endfacet
  facet normal -0.982289 -0.187374 0
    outer loop
      vertex 102.093 98.4934 5
      vertex 102.211 97.8767 3.5
      vertex 102.211 97.8767 5
    endloop
  endfacet
  facet normal -0.844328 0.535827 0
    outer loop
      vertex 101.295 4.06107 3.5
      vertex 101.632 4.59123 5
      vertex 101.632 4.59123 3.5
    endloop
  endfacet
  facet normal -0.844328 0.535827 0
    outer loop
      vertex 101.632 4.59123 5
      vertex 101.295 4.06107 3.5
      vertex 101.295 4.06107 5
    endloop
  endfacet
  facet normal -0.904827 0.425779 0
    outer loop
      vertex 101.632 4.59123 3.5
      vertex 101.899 5.15938 5
      vertex 101.899 5.15938 3.5
    endloop
  endfacet
  facet normal -0.904827 0.425779 0
    outer loop
      vertex 101.899 5.15938 5
      vertex 101.632 4.59123 3.5
      vertex 101.632 4.59123 5
    endloop
  endfacet
  facet normal -0.368122 0.929777 0
    outer loop
      vertex 99.3789 2.47587 3.5
      vertex 98.7951 2.24472 5
      vertex 99.3789 2.47587 5
    endloop
  endfacet
  facet normal -0.368122 0.929777 0
    outer loop
      vertex 98.7951 2.24472 5
      vertex 99.3789 2.47587 3.5
      vertex 98.7951 2.24472 3.5
    endloop
  endfacet
  facet normal 0.770513 0.637424 0
    outer loop
      vertex 3.35516 3.57726 5
      vertex 2.95492 4.06107 3.5
      vertex 2.95492 4.06107 5
    endloop
  endfacet
  facet normal 0.770513 0.637424 0
    outer loop
      vertex 2.95492 4.06107 3.5
      vertex 3.35516 3.57726 5
      vertex 3.35516 3.57726 3.5
    endloop
  endfacet
  facet normal 0.368126 0.929776 -0
    outer loop
      vertex 5.45492 2.24472 3.5
      vertex 4.8711 2.47587 5
      vertex 5.45492 2.24472 5
    endloop
  endfacet
  facet normal 0.368126 0.929776 0
    outer loop
      vertex 4.8711 2.47587 5
      vertex 5.45492 2.24472 3.5
      vertex 4.8711 2.47587 3.5
    endloop
  endfacet
  facet normal 0.951057 -0.309016 0
    outer loop
      vertex 2.15708 98.4934 5
      vertex 2.35112 99.0906 3.5
      vertex 2.35112 99.0906 5
    endloop
  endfacet
  facet normal 0.951057 -0.309016 0
    outer loop
      vertex 2.35112 99.0906 3.5
      vertex 2.15708 98.4934 5
      vertex 2.15708 98.4934 3.5
    endloop
  endfacet
  facet normal 0.770514 -0.637423 0
    outer loop
      vertex 2.95492 100.189 5
      vertex 3.35516 100.673 3.5
      vertex 3.35516 100.673 5
    endloop
  endfacet
  facet normal 0.770514 -0.637423 0
    outer loop
      vertex 3.35516 100.673 3.5
      vertex 2.95492 100.189 5
      vertex 2.95492 100.189 3.5
    endloop
  endfacet
  facet normal -0.368122 -0.929777 0
    outer loop
      vertex 98.7951 102.005 3.5
      vertex 99.3789 101.774 5
      vertex 98.7951 102.005 5
    endloop
  endfacet
  facet normal -0.368122 -0.929777 -0
    outer loop
      vertex 99.3789 101.774 5
      vertex 98.7951 102.005 3.5
      vertex 99.3789 101.774 3.5
    endloop
  endfacet
  facet normal 0.248697 -0.968581 0
    outer loop
      vertex 5.45492 102.005 3.5
      vertex 6.06309 102.161 5
      vertex 5.45492 102.005 5
    endloop
  endfacet
  facet normal 0.248697 -0.968581 0
    outer loop
      vertex 6.06309 102.161 5
      vertex 5.45492 102.005 3.5
      vertex 6.06309 102.161 3.5
    endloop
  endfacet
  facet normal -0.125333 -0.992115 0
    outer loop
      vertex 97.5639 102.24 3.5
      vertex 98.1869 102.161 5
      vertex 97.5639 102.24 5
    endloop
  endfacet
  facet normal -0.125333 -0.992115 -0
    outer loop
      vertex 98.1869 102.161 5
      vertex 97.5639 102.24 3.5
      vertex 98.1869 102.161 3.5
    endloop
  endfacet
  facet normal 0.125333 -0.992115 0
    outer loop
      vertex 6.06309 102.161 3.5
      vertex 6.68605 102.24 5
      vertex 6.06309 102.161 5
    endloop
  endfacet
  facet normal 0.125333 -0.992115 0
    outer loop
      vertex 6.68605 102.24 5
      vertex 6.06309 102.161 3.5
      vertex 6.68605 102.24 3.5
    endloop
  endfacet
  facet normal 0.368126 -0.929776 0
    outer loop
      vertex 4.8711 101.774 3.5
      vertex 5.45492 102.005 5
      vertex 4.8711 101.774 5
    endloop
  endfacet
  facet normal 0.368126 -0.929776 0
    outer loop
      vertex 5.45492 102.005 5
      vertex 4.8711 101.774 3.5
      vertex 5.45492 102.005 3.5
    endloop
  endfacet
  facet normal -0.904827 -0.425779 0
    outer loop
      vertex 101.899 99.0906 3.5
      vertex 101.632 99.6588 5
      vertex 101.632 99.6588 3.5
    endloop
  endfacet
  facet normal -0.904827 -0.425779 0
    outer loop
      vertex 101.632 99.6588 5
      vertex 101.899 99.0906 3.5
      vertex 101.899 99.0906 5
    endloop
  endfacet
  facet normal -0.24869 0.968583 0
    outer loop
      vertex 98.7951 2.24472 3.5
      vertex 98.1869 2.08856 5
      vertex 98.7951 2.24472 5
    endloop
  endfacet
  facet normal -0.24869 0.968583 0
    outer loop
      vertex 98.1869 2.08856 5
      vertex 98.7951 2.24472 3.5
      vertex 98.1869 2.08856 3.5
    endloop
  endfacet
  facet normal -0.125333 0.992115 0
    outer loop
      vertex 98.1869 2.08856 3.5
      vertex 97.5639 2.00987 5
      vertex 98.1869 2.08856 5
    endloop
  endfacet
  facet normal -0.125333 0.992115 0
    outer loop
      vertex 97.5639 2.00987 5
      vertex 98.1869 2.08856 3.5
      vertex 97.5639 2.00987 3.5
    endloop
  endfacet
  facet normal -0.587783 0.809018 0
    outer loop
      vertex 100.437 3.14743 3.5
      vertex 99.9291 2.77836 5
      vertex 100.437 3.14743 5
    endloop
  endfacet
  facet normal -0.587783 0.809018 0
    outer loop
      vertex 99.9291 2.77836 5
      vertex 100.437 3.14743 3.5
      vertex 99.9291 2.77836 3.5
    endloop
  endfacet
  facet normal -0.481758 0.876304 0
    outer loop
      vertex 99.9291 2.77836 3.5
      vertex 99.3789 2.47587 5
      vertex 99.9291 2.77836 5
    endloop
  endfacet
  facet normal -0.481758 0.876304 0
    outer loop
      vertex 99.3789 2.47587 5
      vertex 99.9291 2.77836 3.5
      vertex 99.3789 2.47587 3.5
    endloop
  endfacet
  facet normal 0.951056 0.309018 0
    outer loop
      vertex 2.35112 5.15938 5
      vertex 2.15708 5.75655 3.5
      vertex 2.15708 5.75655 5
    endloop
  endfacet
  facet normal 0.951056 0.309018 0
    outer loop
      vertex 2.15708 5.75655 3.5
      vertex 2.35112 5.15938 5
      vertex 2.35112 5.15938 3.5
    endloop
  endfacet
  facet normal 0.24869 0.968583 -0
    outer loop
      vertex 6.06309 2.08856 3.5
      vertex 5.45492 2.24472 5
      vertex 6.06309 2.08856 5
    endloop
  endfacet
  facet normal 0.24869 0.968583 0
    outer loop
      vertex 5.45492 2.24472 5
      vertex 6.06309 2.08856 3.5
      vertex 5.45492 2.24472 3.5
    endloop
  endfacet
  facet normal 0.481754 0.876307 -0
    outer loop
      vertex 4.8711 2.47587 3.5
      vertex 4.32087 2.77836 5
      vertex 4.8711 2.47587 5
    endloop
  endfacet
  facet normal 0.481754 0.876307 0
    outer loop
      vertex 4.32087 2.77836 5
      vertex 4.8711 2.47587 3.5
      vertex 4.32087 2.77836 3.5
    endloop
  endfacet
  facet normal 0.587785 0.809017 -0
    outer loop
      vertex 4.32087 2.77836 3.5
      vertex 3.81288 3.14743 5
      vertex 4.32087 2.77836 5
    endloop
  endfacet
  facet normal 0.587785 0.809017 0
    outer loop
      vertex 3.81288 3.14743 5
      vertex 4.32087 2.77836 3.5
      vertex 3.81288 3.14743 3.5
    endloop
  endfacet
  facet normal 0.684547 0.728969 -0
    outer loop
      vertex 3.81288 3.14743 3.5
      vertex 3.35516 3.57726 5
      vertex 3.81288 3.14743 5
    endloop
  endfacet
  facet normal 0.684547 0.728969 0
    outer loop
      vertex 3.35516 3.57726 5
      vertex 3.81288 3.14743 3.5
      vertex 3.35516 3.57726 3.5
    endloop
  endfacet
  facet normal 0.982287 -0.187381 0
    outer loop
      vertex 2.03943 97.8767 5
      vertex 2.15708 98.4934 3.5
      vertex 2.15708 98.4934 5
    endloop
  endfacet
  facet normal 0.982287 -0.187381 0
    outer loop
      vertex 2.15708 98.4934 3.5
      vertex 2.03943 97.8767 5
      vertex 2.03943 97.8767 3.5
    endloop
  endfacet
  facet normal 0.844329 -0.535825 0
    outer loop
      vertex 2.61847 99.6588 5
      vertex 2.95492 100.189 3.5
      vertex 2.95492 100.189 5
    endloop
  endfacet
  facet normal 0.844329 -0.535825 0
    outer loop
      vertex 2.95492 100.189 3.5
      vertex 2.61847 99.6588 5
      vertex 2.61847 99.6588 3.5
    endloop
  endfacet
  facet normal 0.684548 -0.728968 0
    outer loop
      vertex 3.35516 100.673 3.5
      vertex 3.81288 101.103 5
      vertex 3.35516 100.673 5
    endloop
  endfacet
  facet normal 0.684548 -0.728968 0
    outer loop
      vertex 3.81288 101.103 5
      vertex 3.35516 100.673 3.5
      vertex 3.81288 101.103 3.5
    endloop
  endfacet
  facet normal -0.844328 -0.535826 0
    outer loop
      vertex 101.632 99.6588 3.5
      vertex 101.295 100.189 5
      vertex 101.295 100.189 3.5
    endloop
  endfacet
  facet normal -0.844328 -0.535826 0
    outer loop
      vertex 101.295 100.189 5
      vertex 101.632 99.6588 3.5
      vertex 101.632 99.6588 5
    endloop
  endfacet
  facet normal -0.684547 -0.728969 0
    outer loop
      vertex 100.437 101.103 3.5
      vertex 100.895 100.673 5
      vertex 100.437 101.103 5
    endloop
  endfacet
  facet normal -0.684547 -0.728969 -0
    outer loop
      vertex 100.895 100.673 5
      vertex 100.437 101.103 3.5
      vertex 100.895 100.673 3.5
    endloop
  endfacet
  facet normal -0.481751 -0.876308 0
    outer loop
      vertex 99.3789 101.774 3.5
      vertex 99.9291 101.472 5
      vertex 99.3789 101.774 5
    endloop
  endfacet
  facet normal -0.481751 -0.876308 -0
    outer loop
      vertex 99.9291 101.472 5
      vertex 99.3789 101.774 3.5
      vertex 99.9291 101.472 3.5
    endloop
  endfacet
  facet normal -0.770517 -0.637419 0
    outer loop
      vertex 101.295 100.189 3.5
      vertex 100.895 100.673 5
      vertex 100.895 100.673 3.5
    endloop
  endfacet
  facet normal -0.770517 -0.637419 0
    outer loop
      vertex 100.895 100.673 5
      vertex 101.295 100.189 3.5
      vertex 101.295 100.189 5
    endloop
  endfacet
  facet normal -0.248697 -0.968581 0
    outer loop
      vertex 98.1869 102.161 3.5
      vertex 98.7951 102.005 5
      vertex 98.1869 102.161 5
    endloop
  endfacet
  facet normal -0.248697 -0.968581 -0
    outer loop
      vertex 98.7951 102.005 5
      vertex 98.1869 102.161 3.5
      vertex 98.7951 102.005 3.5
    endloop
  endfacet
  facet normal 0.481747 -0.87631 0
    outer loop
      vertex 4.32087 101.472 3.5
      vertex 4.8711 101.774 5
      vertex 4.32087 101.472 5
    endloop
  endfacet
  facet normal 0.481747 -0.87631 0
    outer loop
      vertex 4.8711 101.774 5
      vertex 4.32087 101.472 3.5
      vertex 4.8711 101.774 3.5
    endloop
  endfacet
  facet normal -0.951055 -0.309023 0
    outer loop
      vertex 102.093 98.4934 3.5
      vertex 101.899 99.0906 5
      vertex 101.899 99.0906 3.5
    endloop
  endfacet
  facet normal -0.951055 -0.309023 0
    outer loop
      vertex 101.899 99.0906 5
      vertex 102.093 98.4934 3.5
      vertex 102.093 98.4934 5
    endloop
  endfacet
  facet normal 0.844329 0.535826 0
    outer loop
      vertex 2.95492 4.06107 5
      vertex 2.61847 4.59123 3.5
      vertex 2.61847 4.59123 5
    endloop
  endfacet
  facet normal 0.844329 0.535826 0
    outer loop
      vertex 2.61847 4.59123 3.5
      vertex 2.95492 4.06107 5
      vertex 2.95492 4.06107 3.5
    endloop
  endfacet
  facet normal 0.904827 0.425779 0
    outer loop
      vertex 2.61847 4.59123 5
      vertex 2.35112 5.15938 3.5
      vertex 2.35112 5.15938 5
    endloop
  endfacet
  facet normal 0.904827 0.425779 0
    outer loop
      vertex 2.35112 5.15938 3.5
      vertex 2.61847 4.59123 5
      vertex 2.61847 4.59123 3.5
    endloop
  endfacet
  facet normal 0.982287 0.187381 0
    outer loop
      vertex 2.15708 5.75655 5
      vertex 2.03943 6.37333 3.5
      vertex 2.03943 6.37333 5
    endloop
  endfacet
  facet normal 0.982287 0.187381 0
    outer loop
      vertex 2.03943 6.37333 3.5
      vertex 2.15708 5.75655 5
      vertex 2.15708 5.75655 3.5
    endloop
  endfacet
  facet normal -0.587782 -0.809019 0
    outer loop
      vertex 99.9291 101.472 3.5
      vertex 100.437 101.103 5
      vertex 99.9291 101.472 5
    endloop
  endfacet
  facet normal -0.587782 -0.809019 -0
    outer loop
      vertex 100.437 101.103 5
      vertex 99.9291 101.472 3.5
      vertex 100.437 101.103 3.5
    endloop
  endfacet
  facet normal 1 0 0
    outer loop
      vertex 8.625 2.00987 5
      vertex 8.625 0.00986671 5
      vertex 8.625 2.00987 3.5
    endloop
  endfacet
  facet normal 1 -0 0
    outer loop
      vertex 8.625 2.00987 3.5
      vertex 8.625 4 1
      vertex 8.625 4 3.5
    endloop
  endfacet
  facet normal 1 0 0
    outer loop
      vertex 8.625 0.00986671 0
      vertex 8.625 4 1
      vertex 8.625 2.00987 3.5
    endloop
  endfacet
  facet normal 1 0 0
    outer loop
      vertex 8.625 0.00986671 0
      vertex 8.625 2.00987 3.5
      vertex 8.625 0.00986671 5
    endloop
  endfacet
  facet normal 1 0 0
    outer loop
      vertex 8.625 4 1
      vertex 8.625 0.00986671 0
      vertex 8.625 4 0
    endloop
  endfacet
  facet normal -1 0 0
    outer loop
      vertex 95.625 0.00986671 0
      vertex 95.625 4 1
      vertex 95.625 4 0
    endloop
  endfacet
  facet normal -1 0 0
    outer loop
      vertex 95.625 4 1
      vertex 95.625 2.00987 3.5
      vertex 95.625 4 3.5
    endloop
  endfacet
  facet normal -1 -0 0
    outer loop
      vertex 95.625 4 1
      vertex 95.625 0.00986671 0
      vertex 95.625 2.00987 3.5
    endloop
  endfacet
  facet normal -1 0 0
    outer loop
      vertex 95.625 0.00986671 5
      vertex 95.625 2.00987 3.5
      vertex 95.625 0.00986671 0
    endloop
  endfacet
  facet normal -1 0 0
    outer loop
      vertex 95.625 2.00987 3.5
      vertex 95.625 0.00986671 5
      vertex 95.625 2.00987 5
    endloop
  endfacet
endsolid OpenSCAD_Model
